<?xml version="1.0" encoding="UTF-8" standalone="no" ?>
<!DOCTYPE svg PUBLIC "-//W3C//DTD SVG 1.1//EN" "http://www.w3.org/Graphics/SVG/1.1/DTD/svg11.dtd">
<svg xmlns="http://www.w3.org/2000/svg" xmlns:xlink="http://www.w3.org/1999/xlink" version="1.1" width="1080" height="1080" viewBox="0 0 5000 1080" xml:space="preserve">
<desc>Created with Fabric.js 5.2.4</desc>
<defs>
</defs>
<g transform="matrix(1 0 0 1 540 540)" id="79d91047-59e8-4ff9-a40f-a78e8299c1a8"  >
<rect style="stroke: none; stroke-width: 1; stroke-dasharray: none; stroke-linecap: butt; stroke-dashoffset: 0; stroke-linejoin: miter; stroke-miterlimit: 4; fill: rgb(255,255,255); fill-rule: nonzero; opacity: 1; visibility: hidden;" vector-effect="non-scaling-stroke"  x="-540" y="-540" rx="0" ry="0" width="1080" height="1080" />
</g>
<g transform="matrix(1 0 0 1 540 540)" id="2c98db8a-3191-4712-b32f-c4895e0d8731"  >
</g>
<g transform="matrix(4.26 0 0 4.26 540 540)"  >
<g style=""   >
		<g transform="matrix(1 0 0 1 0 0.5)" id="path2"  >
<path style="stroke: none; stroke-width: 1; stroke-dasharray: none; stroke-linecap: butt; stroke-dashoffset: 0; stroke-linejoin: miter; stroke-miterlimit: 4; fill: none; fill-rule: nonzero; opacity: 1;" vector-effect="non-scaling-stroke"  transform=" translate(-297.64, -420.94)" d="M -0.0003 -0.0003 L -0.0003 841.89 L 595.2759 841.89 L 595.2759 -0.0003 Z" stroke-linecap="round" />
</g>
		<g transform="matrix(1 0 0 1 0.06 -39.27)" id="path4"  >
<path style="stroke: none; stroke-width: 1; stroke-dasharray: none; stroke-linecap: butt; stroke-dashoffset: 0; stroke-linejoin: miter; stroke-miterlimit: 4; fill: rgb(95,194,187); fill-rule: evenodd; opacity: 1;" vector-effect="non-scaling-stroke"  transform=" translate(-297.69, -381.18)" d="M 297.7273 313.1814 C 275.2869 362.2957 236.4206 398.8571 288.1071 449.1757 C 251.5467 398.2384 287.7407 362.36940000000004 297.7273 334.2593 C 307.7139 362.3694 343.908 398.2384 307.3475 449.1757 C 358.579 399.2999 320.6979 363.4559 297.7273 313.1814 z" stroke-linecap="round" />
</g>
		<g transform="matrix(1 0 0 1 0.09 -28.73)" id="path6"  >
<path style="stroke: none; stroke-width: 1; stroke-dasharray: none; stroke-linecap: butt; stroke-dashoffset: 0; stroke-linejoin: miter; stroke-miterlimit: 4; fill: none; fill-rule: nonzero; opacity: 1;" vector-effect="non-scaling-stroke"  transform=" translate(-297.73, -391.72)" d="M 307.3475 449.1757 L 288.1071 449.1757 C 251.5467 398.2384 287.7407 362.36940000000004 297.7273 334.2593 C 307.7139 362.3694 343.908 398.2384 307.3475 449.1757 z" stroke-linecap="round" />
</g>
		<g transform="matrix(1 0 0 1 54.38 37.42)" id="path8"  >
<path style="stroke: none; stroke-width: 1; stroke-dasharray: none; stroke-linecap: butt; stroke-dashoffset: 0; stroke-linejoin: miter; stroke-miterlimit: 4; fill: rgb(95,194,187); fill-rule: evenodd; opacity: 1;" vector-effect="non-scaling-stroke"  transform=" translate(-352.02, -457.86)" d="M 398.9264 457.8635 L 398.9264 457.8639 C 364.7023 473.4969 340.5252 501.2096 305.1112 464.8323 C 340.83979999999997 490.4765 365.822 464.2313 385.3579 457.8639 C 365.82199999999995 451.4965 340.83979999999997 425.2509 305.11119999999994 450.8951 C 340.52559999999994 414.5174 364.70179999999993 442.2305 398.92639999999994 457.8635 z" stroke-linecap="round" />
</g>
		<g transform="matrix(1 0 0 1 -0.62 36.92)" id="path10"  >
<path style="stroke: none; stroke-width: 1; stroke-dasharray: none; stroke-linecap: butt; stroke-dashoffset: 0; stroke-linejoin: miter; stroke-miterlimit: 4; fill: rgb(95,194,187); fill-rule: evenodd; opacity: 1;" vector-effect="non-scaling-stroke"  transform=" translate(-297.01, -457.36)" d="M 292.9247 403.593 L 301.0977 403.593 L 297.0112 511.1291 z" stroke-linecap="round" />
</g>
		<g transform="matrix(1 0 0 1 -0.62 -26.85)" id="path12"  >
<path style="stroke: none; stroke-width: 1; stroke-dasharray: none; stroke-linecap: butt; stroke-dashoffset: 0; stroke-linejoin: miter; stroke-miterlimit: 4; fill: rgb(95,194,187); fill-rule: evenodd; opacity: 1;" vector-effect="non-scaling-stroke"  transform=" translate(-297.01, -393.59)" d="M 297.0111 388.1869 C 299.9957 388.1869 302.415 390.6065 302.415 393.5908 C 302.415 396.5751 299.9957 398.9948 297.0111 398.9948 C 294.0267 398.9948 291.6074 396.5751 291.6074 393.5908 C 291.6074 390.6065 294.0267 388.1869 297.0111 388.1869 z" stroke-linecap="round" />
</g>
		<g transform="matrix(1 0 0 1 -1.77 47.61)" id="path14"  >
<path style="stroke: none; stroke-width: 1; stroke-dasharray: none; stroke-linecap: butt; stroke-dashoffset: 0; stroke-linejoin: miter; stroke-miterlimit: 4; fill: rgb(86,87,87); fill-rule: evenodd; opacity: 1;" vector-effect="non-scaling-stroke"  transform=" translate(-295.86, -468.05)" d="M 295.7182 478.6936 L 296.10060000000004 488.5902 C 296.10060000000004 488.5902 294.0194 493.17769999999996 296.27040000000005 500.1012 C 298.52150000000006 507.0248 299.3713000000001 508.6401 298.86150000000004 513.9069 C 298.3516 519.1736999999999 297.24710000000005 526.5636999999999 297.24710000000005 526.5636999999999 C 297.24710000000005 526.5636999999999 298.52150000000006 511.5277999999999 296.39760000000007 506.0059999999999 C 294.2737000000001 500.4842999999999 291.62140000000005 492.16919999999993 292.57490000000007 487.18909999999994 C 293.52850000000007 482.20899999999995 295.7182000000001 478.69359999999995 295.7182000000001 478.69359999999995 z M 285.2109 412.771 C 285.2109 412.771 292.5737 407.0794 298.2652 410.8173 C 303.9568 414.5552 308.4592 422.7951 305.6559 429.4214 C 302.85269999999997 436.0476 299.70939999999996 437.83140000000003 299.70939999999996 437.83140000000003 L 299.87929999999994 423.21990000000005 C 299.87929999999994 423.21990000000005 299.62429999999995 420.58650000000006 296.56609999999995 421.1811000000001 C 293.5079999999999 421.7757000000001 288.55319999999995 420.92620000000005 286.8820999999999 418.29280000000006 C 285.2108999999999 415.65940000000006 285.2108999999999 412.7710000000001 285.2108999999999 412.7710000000001 z M 293.2129 412.3909 C 293.8464 412.3909 294.3598 412.9043 294.3598 413.5377 C 294.3598 414.1712 293.8464 414.6846 293.2129 414.6846 C 292.57939999999996 414.6846 292.066 414.1712 292.066 413.5377 C 292.066 412.9043 292.57939999999996 412.3909 293.2129 412.3909 z M 294.6124 434.4333 L 294.9525 447.4308 C 294.9525 447.4308 304.2118 455.5009 303.6171 463.4862 C 303.0225 471.4715 298.5202 479.712 298.5202 479.712 L 298.6049 462.3823 C 298.6049 462.3823 297.2462 459.3245 294.2731 455.16179999999997 C 291.3 450.9991 288.0296 447.89829999999995 289.431 442.03679999999997 C 290.8325 436.17539999999997 294.6124 434.4333 294.6124 434.4333 z" stroke-linecap="round" />
</g>
		<g transform="matrix(1 0 0 1 -54.38 37.44)" id="path16"  >
<path style="stroke: none; stroke-width: 1; stroke-dasharray: none; stroke-linecap: butt; stroke-dashoffset: 0; stroke-linejoin: miter; stroke-miterlimit: 4; fill: rgb(95,194,187); fill-rule: evenodd; opacity: 1;" vector-effect="non-scaling-stroke"  transform=" translate(-243.26, -457.89)" d="M 196.3491 457.8639 C 230.5733 473.4969 254.75039999999998 501.2096 290.1643 464.8323 C 254.43580000000003 490.4765 229.45350000000002 464.2313 209.91760000000002 457.8639 C 229.45350000000002 451.4965 254.43580000000003 425.2509 290.1643 450.8951 C 255.07680000000002 414.85290000000003 231.47430000000003 441.8195 196.34910000000002 457.8639 z" stroke-linecap="round" />
</g>
		<g transform="matrix(1 0 0 1 -0.83 100.05)" id="path19"  >
<path style="stroke: none; stroke-width: 1; stroke-dasharray: none; stroke-linecap: butt; stroke-dashoffset: 0; stroke-linejoin: miter; stroke-miterlimit: 4; fill: rgb(86,87,87); fill-rule: evenodd; opacity: 1;" vector-effect="non-scaling-stroke"  transform=" translate(-296.8, -520.49)" d="M 202.682 502.3675 L 199.5418 498.3718 L 199.8391 498.1382 C 199.3428 497.9883 198.9539 497.7323 198.6718 497.3734 C 198.48669999999998 497.1382 198.4153 496.878 198.4572 496.5951 C 198.5006 496.311 198.6378 496.0772 198.8734 495.8918 L 202.1511 493.3159 L 202.74970000000002 494.0782 L 199.72060000000002 496.45869999999996 C 199.51630000000003 496.61909999999995 199.4805 496.78299999999996 199.61120000000003 496.9491 C 200.05990000000003 497.52 200.70090000000002 497.4755 201.53650000000002 496.8187 L 203.61800000000002 495.1828 L 204.19510000000002 495.917 L 200.80400000000003 498.58189999999996 L 202.76140000000004 501.07269999999994 L 206.15240000000003 498.4074999999999 L 206.75140000000002 499.1694999999999 z M 210.55919999999998 504.36310000000003 L 209.74309999999997 503.50730000000004 L 206.62979999999996 506.47580000000005 L 205.98579999999995 505.80030000000005 L 209.09909999999996 502.83180000000004 L 207.85949999999997 501.5316 L 204.74619999999996 504.5 L 204.09419999999997 503.8163 L 207.83989999999997 500.24490000000003 L 211.19159999999997 503.76020000000005 z M 214.56789999999998 514.2339000000001 L 211.37869999999998 511.19320000000005 L 211.9663 510.57720000000006 C 212.2628 510.86010000000005 212.61829999999998 510.94290000000007 213.0335 510.82700000000006 C 213.3819 510.7354 213.7054 510.53190000000006 214.0038 510.2189000000001 C 214.93980000000002 509.23730000000006 214.9197 508.2823000000001 213.9446 507.3525000000001 C 212.83970000000002 506.29890000000006 211.88830000000002 506.1881000000001 211.0941 507.0209000000001 C 211.513 506.9934000000001 211.9209 507.1706000000001 212.3203 507.5512000000001 C 212.69 507.90390000000014 212.85840000000002 508.3047000000001 212.8255 508.7514000000001 C 212.7954 509.1571000000001 212.6021 509.5497000000001 212.2447 509.9247000000001 C 211.9127 510.2728000000001 211.5156 510.42930000000007 211.0527 510.3964000000001 C 210.5904 510.3612000000001 210.1822 510.17640000000006 209.8287 509.83940000000007 C 209.3207 509.3552000000001 209.1195 508.79620000000006 209.2235 508.1613000000001 C 209.3221 507.6241000000001 209.6266 507.0872000000001 210.138 506.5512000000001 C 210.8288 505.8266000000001 211.5822 505.5055000000001 212.3966 505.58710000000013 C 213.1226 505.66880000000015 213.8598 506.06670000000014 214.60760000000002 506.77970000000016 C 215.18310000000002 507.32840000000016 215.54530000000003 507.9379000000002 215.69500000000002 508.60770000000014 C 215.84610000000004 509.2792000000001 215.51980000000003 510.0333000000001 214.72190000000003 510.8700000000001 C 214.21560000000002 511.4010000000001 213.69320000000005 511.6810000000001 213.15370000000004 511.7097000000001 L 214.49710000000005 512.9904000000001 L 217.48110000000005 509.86090000000013 L 218.13930000000005 510.4885000000001 z M 211.6094 509.3246000000001 C 211.76839999999999 509.1579000000001 211.8416 508.9510000000001 211.83419999999998 508.7038000000001 C 211.8242 508.4563000000001 211.7336 508.25080000000014 211.56289999999998 508.0881000000001 C 211.39229999999998 507.92540000000014 211.1839 507.84320000000014 210.939 507.8424000000001 C 210.6941 507.8444000000001 210.4897 507.9283000000001 210.32559999999998 508.1003000000001 C 210.1632 508.27100000000013 210.0912 508.47930000000014 210.10789999999997 508.7251000000001 C 210.12429999999998 508.9683000000001 210.21649999999997 509.1695000000001 210.38139999999999 509.3271000000001 C 210.55239999999998 509.4899000000001 210.759 509.5735000000001 211.0014 509.57720000000006 C 211.2437 509.5780000000001 211.447 509.49500000000006 211.6094 509.3246000000001 z M 222.571 515.1954000000001 L 221.6412 514.4647000000001 L 218.9832 517.8470000000001 L 218.2493 517.2701000000001 L 220.9073 513.8878000000001 L 219.4948 512.7780000000001 L 216.8368 516.1601000000002 L 216.0941 515.5761000000002 L 219.2922 511.50700000000023 L 223.11100000000002 514.5083000000002 z M 222.7666 511.98210000000006 C 222.65910000000002 512.1187000000001 222.51770000000002 512.1930000000001 222.34310000000002 512.2057000000001 C 222.1673 512.2176000000001 222.0114 512.1711000000001 221.87590000000003 512.0646 C 221.73930000000004 511.9571 221.65850000000003 511.81770000000006 221.63270000000003 511.64730000000003 C 221.60550000000003 511.47610000000003 221.64720000000003 511.3233 221.75460000000004 511.18670000000003 C 221.86230000000003 511.0498 222.00180000000003 510.96900000000005 222.17580000000004 510.944 C 222.35050000000004 510.9219 222.50890000000004 510.9653 222.65150000000003 511.07750000000004 C 222.79290000000003 511.18840000000006 222.8754 511.33180000000004 222.90040000000002 511.50610000000006 C 222.9225 511.68080000000003 222.87910000000002 511.83920000000006 222.7666 511.98210000000006 z M 227.0662 521.6355000000001 C 226.7561 522.0717000000001 226.3561 522.3203000000001 225.8685 522.3798 C 225.38240000000002 522.4402 224.9181 522.3121000000001 224.4745 521.9966000000001 L 223.8477 521.551 L 224.2446 520.9929000000001 C 223.6598 521.1077 223.0795 520.9614 222.5018 520.5506 C 222.084 520.2533000000001 221.81300000000002 519.8791 221.69 519.4290000000001 C 221.5655 518.9777000000001 221.6463 518.5508000000001 221.9338 518.1466 C 222.29489999999998 517.6389 222.8414 517.3804 223.575 517.3693000000001 L 224.6907 515.8001 L 228.2814 518.3535 L 227.85 518.9604 L 226.6469 518.1049 L 226.05169999999998 518.942 L 226.67839999999998 519.3876 C 227.06249999999997 519.6609 227.2918 520.0098 227.3635 520.4327000000001 C 227.4347 520.8554 227.33489999999998 521.2573000000001 227.06619999999998 521.6355000000001 z M 226.3235 521.1074000000001 C 226.474 520.8953000000001 226.5239 520.6737 226.47 520.4426000000001 C 226.4176 520.2125000000001 226.279 520.0172000000001 226.0534 519.8567 L 225.6202 519.5489 C 225.2134 520.1209 225.04080000000002 520.3698 225.1023 520.2964 C 224.7956 520.6893 224.5482 520.8851 224.3622 520.8883 C 224.4302 521.0124 224.5657 521.1478999999999 224.7715 521.2941999999999 C 225.0215 521.4718999999999 225.2999 521.5459 225.60490000000001 521.5169999999999 C 225.90990000000002 521.4885999999999 226.15 521.3511 226.32350000000002 521.1074 z M 224.3931 519.7051000000001 L 224.879 519.0219000000001 L 223.9444 518.3572 C 223.7462 518.2163 223.5331 518.1704000000001 223.3074 518.2234000000001 C 223.0824 518.2747 222.8987 518.4011 222.7564 518.6010000000001 C 222.5971 518.8249000000001 222.5526 519.0780000000001 222.62290000000002 519.3601000000001 C 222.69340000000003 519.6419000000001 222.8468 519.8683000000001 223.0832 520.0362000000001 C 223.3089 520.1969000000001 223.5475 520.2357000000001 223.7992 520.1529000000002 C 224.0308 520.0858000000002 224.22840000000002 519.9369000000002 224.3931 519.7051000000001 z M 225.3107 518.4150000000001 L 225.9057 517.5780000000001 L 224.9711 516.9132000000001 L 224.3758 517.7503 z M 228.2987 516.1890000000001 C 228.1935 516.3369000000001 228.058 516.4243000000001 227.8888 516.4486 C 227.7215 516.4744000000001 227.5603 516.4330000000001 227.40630000000002 516.3236 C 227.25840000000002 516.2185000000001 227.1679 516.0807000000001 227.13420000000002 515.912 C 227.0988 515.7422 227.13510000000002 515.5843 227.24020000000002 515.4367000000001 C 227.3454 515.2887000000001 227.48460000000003 515.1994000000001 227.66230000000002 515.1696000000001 C 227.8369 515.1402 227.99880000000002 515.1766 228.14700000000002 515.2822000000001 C 228.2947 515.3873000000001 228.3829 515.5282000000001 228.41230000000002 515.7028000000001 C 228.4421 515.8806000000002 228.4043 516.0413000000001 228.29870000000003 516.1890000000002 z M 234.78379999999999 527.4204000000001 C 234.3294 528.1294 233.52919999999997 528.5143 232.38479999999998 528.5764 C 231.58999999999997 528.62 230.7214 528.3391 229.78089999999997 527.7362 C 228.78539999999998 527.0978 228.12599999999998 526.3373 227.80199999999996 525.456 C 227.44119999999995 524.4868 227.56959999999995 523.5202 228.18559999999997 522.5593 C 228.74709999999996 521.6837 229.58219999999997 521.1746 230.69199999999998 521.0348 L 230.8062 521.8656 C 230.3215 521.9662999999999 229.9586 522.0849999999999 229.72109999999998 522.2237 C 229.41519999999997 522.392 229.146 522.6596 228.91179999999997 523.025 C 227.93839999999997 524.5435 228.42649999999998 525.9277 230.37649999999996 527.1777999999999 C 231.06019999999995 527.616 231.71439999999996 527.8331 232.34309999999996 527.8336999999999 C 233.08069999999995 527.8200999999999 233.65839999999997 527.4878999999999 234.07459999999998 526.8386999999999 C 234.27839999999998 526.5206999999999 234.36819999999997 526.2006999999999 234.33849999999998 525.8791999999999 C 234.3115 525.5574999999999 234.1417 525.2952999999999 233.83129999999997 525.0959999999999 L 233.41239999999996 524.8275999999998 L 232.86979999999997 525.6733999999999 C 232.59739999999996 526.0985999999999 232.22519999999997 526.3358999999999 231.75179999999997 526.3879999999999 C 231.3224 526.4305999999999 230.88899999999998 526.3126 230.45099999999996 526.0319999999999 C 229.98639999999997 525.7340999999999 229.67889999999997 525.3677999999999 229.52579999999998 524.9343999999999 C 229.36559999999997 524.4558999999998 229.4294 523.9924999999998 229.71829999999997 523.5417999999999 C 230.02919999999997 523.0567999999998 230.54969999999997 522.7925999999999 231.28019999999998 522.7451999999998 L 232.33829999999998 521.0942999999999 L 236.01939999999996 523.4544999999998 L 235.58029999999997 524.1395999999999 L 234.35629999999998 523.3549999999999 L 233.81999999999996 524.1911999999999 L 234.48669999999996 524.6185999999999 C 234.99069999999995 524.9414999999999 235.25229999999996 525.3761 235.26819999999995 525.9194999999999 C 235.28129999999996 526.3947999999998 235.11999999999995 526.8959999999998 234.78379999999996 527.4203999999999 z M 232.1719 525.0569 L 232.63739999999999 524.3306 L 231.84029999999998 523.8198 C 231.59619999999998 523.6634 231.3465 523.5987 231.0931 523.6299 C 230.8408 523.6591 230.63729999999998 523.7932000000001 230.4836 524.0327 C 230.3311 524.2706 230.3164 524.5186 230.44219999999999 524.7771 C 230.54199999999997 524.9991 230.7183 525.1921 230.97029999999998 525.3537 C 231.18319999999997 525.49 231.40009999999998 525.5291 231.6246 525.4707 C 231.84939999999997 525.4146 232.0313 525.276 232.1719 525.0568999999999 z M 233.0453 523.6946 L 233.5813 522.8580000000001 L 232.6365 522.2523000000001 L 232.1002 523.0888000000001 z M 243.4649 530.3492 C 243.1066 531.0485 242.6 531.4997 241.943 531.7033 C 241.28500000000003 531.9045 240.60610000000003 531.826 239.9049 531.4669 L 235.6668 529.2964000000001 L 238.02089999999998 524.7 L 238.8518 525.1255000000001 L 236.88569999999999 528.9642000000001 L 239.0624 530.0790000000001 L 241.0285 526.2401000000001 L 242.7021 527.0973000000001 C 243.3334 527.4207000000001 243.7027 527.8978000000002 243.8147 528.5290000000001 C 243.91559999999998 529.0914000000001 243.79819999999998 529.6980000000001 243.4649 530.3492000000001 z M 242.6845 529.9557 C 242.8994 529.5359 242.9943 529.1456 242.96460000000002 528.7853 C 242.92010000000002 528.3547 242.7015 528.0389 242.30830000000003 527.8374 L 241.48890000000003 527.4179 L 239.90510000000003 530.5105 L 240.39980000000003 530.7639 C 240.86100000000002 531 241.2975 531.0428 241.70830000000004 530.8894 C 242.11790000000005 530.7378 242.44380000000004 530.4254 242.68450000000004 529.9557 z M 250.054 531.5423 L 248.9763 531.055 L 247.20430000000002 534.9747 L 246.3537 534.5901 L 248.1259 530.6706 L 246.4889 529.9305 L 244.7169 533.8502000000001 L 243.8561 533.4608000000001 L 245.988 528.7450000000001 L 250.414 530.7460000000001 z M 257.6631 536.3602999999999 C 257.3748 537.0913999999999 256.9147 537.5897 256.2806 537.8563999999999 C 255.6456 538.1208999999999 254.9622 538.1089999999999 254.2294 537.8201999999999 L 249.7997 536.0733999999999 L 251.6939 531.2692999999999 L 252.56210000000002 531.6116999999999 L 250.98010000000002 535.6242 L 253.25520000000003 536.521 L 254.83720000000002 532.5086 L 256.5867 533.1986 C 257.2464 533.4588000000001 257.6605 533.8973000000001 257.8334 534.5147000000001 C 257.989 535.0646 257.93149999999997 535.6797 257.6631 536.3603 z M 256.8481 536.0447999999999 C 257.021 535.6062999999999 257.0774 535.2082999999999 257.0125 534.8528999999999 C 256.926 534.4287999999999 256.678 534.1353999999999 256.267 533.9734999999998 L 255.4106 533.6356999999998 L 254.1359 536.8682999999999 L 254.6532 537.0720999999999 C 255.1351 537.2622999999999 255.5736 537.2619999999998 255.9677 537.0690999999998 C 256.3605 536.8780999999998 256.6545 536.5353999999999 256.8481 536.0443999999998 z M 256.5592 531.2689999999999 C 256.4926 531.4376999999998 256.37949999999995 531.5561999999999 256.22189999999995 531.6247999999999 C 256.0635 531.6950999999999 255.90359999999995 531.6964999999999 255.74169999999995 531.6328 C 255.57309999999995 531.5662 255.45459999999994 531.4531 255.38829999999996 531.2900999999999 C 255.32109999999994 531.1288 255.31939999999994 530.9652 255.38229999999996 530.8050999999999 C 255.44609999999994 530.6432 255.55939999999995 530.5289999999999 255.72129999999996 530.4600999999999 C 255.88429999999997 530.3937999999999 256.04619999999994 530.3908999999999 256.20629999999994 530.4540999999999 C 256.36819999999994 530.5178999999999 256.4837999999999 530.6281999999999 256.55359999999996 530.7820999999999 C 256.62359999999995 530.9365999999999 256.62609999999995 531.0985 256.55859999999996 531.2690999999999 z M 274.59209999999996 543.4981999999999 L 265.2304 541.3376999999999 C 264.34799999999996 541.1338999999999 263.9846 540.6947999999999 264.14079999999996 540.0183999999999 C 264.20829999999995 539.7266999999999 264.38059999999996 539.5206999999999 264.66009999999994 539.3991 C 265.0104999999999 539.2454 265.51929999999993 539.246 266.18829999999997 539.4001 C 266.2557 539.4154 266.35799999999995 539.4391999999999 266.49269999999996 539.4701 C 266.62789999999995 539.5013 266.72429999999997 539.5237 266.78639999999996 539.5378 C 267.33879999999994 539.6654 267.751 539.6837999999999 268.02369999999996 539.5930999999999 C 268.4052 539.4467999999999 268.66599999999994 539.0653 268.80769999999995 538.4509999999999 C 268.905 538.0297999999999 268.82959999999997 537.6573 268.58009999999996 537.3327999999999 C 268.34169999999995 537.0337 268.0089 536.8358999999999 267.57859999999994 536.7366 C 267.1173999999999 536.6301 266.7446999999999 536.6902 266.45869999999996 536.9141 C 266.5877 536.9132 266.7098 536.9243 266.8246 536.9507 C 267.1092 537.0164 267.32149999999996 537.1613 267.4602 537.3832 C 267.59909999999996 537.6057 267.63509999999997 537.8577 267.5693 538.1423 C 267.4809 538.525 267.2912 538.7903 266.9978 538.9377 C 266.70529999999997 539.0831999999999 266.3623 539.1115 265.97229999999996 539.0215999999999 C 265.549 538.9238999999999 265.25789999999995 538.7222999999999 265.09889999999996 538.4129999999999 C 264.9396 538.1054999999999 264.9084 537.7409999999999 265.00589999999994 537.3179999999999 C 265.14449999999994 536.7181999999999 265.50229999999993 536.3074999999999 266.07939999999996 536.0854999999999 C 266.58849999999995 535.8783 267.15229999999997 535.8471 267.77419999999995 535.9907999999999 C 268.44319999999993 536.1449999999999 268.9591 536.4467 269.32449999999994 536.8939999999999 C 269.7278999999999 537.3919999999999 269.85369999999995 537.9628999999999 269.70489999999995 538.6080999999999 C 269.5396999999999 539.3229999999999 269.19949999999994 539.8321 268.68049999999994 540.1324999999999 C 268.1619999999999 540.4336 267.5471999999999 540.5007999999999 266.83259999999996 540.3358 L 265.61279999999994 540.0542999999999 C 265.34299999999996 539.9918999999999 265.1875999999999 540.0502999999999 265.1467999999999 540.2271999999999 C 265.1169999999999 540.3564999999999 265.2366999999999 540.4533999999999 265.5064999999999 540.5155 L 274.7859999999999 542.6573999999999 z M 266.69929999999994 538.0261999999999 C 266.7296999999999 537.8949999999999 266.7092999999999 537.7751 266.6420999999999 537.6673999999999 C 266.57519999999994 537.5579999999999 266.47599999999994 537.4888 266.3443999999999 537.4585 C 266.2131999999999 537.4281 266.0938999999999 537.4467999999999 265.9855999999999 537.5156999999999 C 265.8778999999999 537.5831999999999 265.8069999999999 537.6820999999999 265.7766999999999 537.8133999999999 C 265.7485999999999 537.9351999999999 265.7716999999999 538.0519999999999 265.8420999999999 538.1625999999999 C 265.9149999999999 538.2713999999999 266.0124999999999 538.3399999999999 266.1343999999999 538.3683999999998 C 266.2568999999999 538.3963999999999 266.3744999999999 538.3773999999999 266.48759999999993 538.3116999999999 C 266.59959999999995 538.2430999999999 266.67099999999994 538.1480999999999 266.69929999999994 538.0261999999999 z M 282.00839999999994 544.5231999999999 L 276.2285999999999 543.7887999999998 L 276.8810999999999 538.6546999999998 L 277.8536999999999 538.7782999999998 L 277.3190999999999 542.9859999999999 L 282.1262999999999 543.5968999999999 z M 291.4998999999999 542.7095999999999 C 291.4352999999999 543.5582999999999 291.1597999999999 544.2167999999999 290.6738999999999 544.6864999999999 C 290.1693999999999 545.1791999999999 289.5017999999999 545.3925999999999 288.6677999999999 545.3294 C 288.26139999999987 545.2982 287.9293999999999 545.1474 287.6779999999999 544.875 C 287.4265999999999 544.6026 287.3142999999999 544.2772 287.3428999999999 543.9002 L 287.52429999999987 541.5177 C 287.54649999999987 541.2266 287.4528999999999 540.9754 287.24399999999986 540.7608 C 287.03509999999983 540.5479 286.78139999999985 540.4292 286.4825999999999 540.4065 C 285.93439999999987 540.3648000000001 285.47719999999987 540.5026 285.1134999999999 540.8184 C 284.7497999999999 541.1341 284.5425999999999 541.5667 284.49329999999986 542.1166 C 284.84929999999986 541.804 285.2574999999999 541.6641999999999 285.72209999999984 541.6996999999999 C 286.23119999999983 541.7381999999999 286.6197999999998 541.9385999999998 286.88489999999985 542.2985999999999 C 287.12829999999985 542.6265999999998 287.2309999999998 543.0528999999998 287.19099999999986 543.5789999999998 C 287.15269999999987 544.0824999999999 286.96029999999985 544.4676999999998 286.6172999999999 544.7343999999998 C 286.27229999999986 545.0008999999998 285.8450999999999 545.1145999999998 285.3336999999999 545.0756999999999 C 284.6584999999999 545.0243999999999 284.1714999999999 544.7190999999999 283.8744999999999 544.1578999999998 C 283.6266999999999 543.6886999999998 283.5291999999999 543.0959999999998 283.5832999999999 542.3813999999998 C 283.6552999999999 541.4373999999998 283.9571999999999 540.7267999999998 284.4869999999999 540.2488999999997 C 285.01679999999993 539.7711999999997 285.7526999999999 539.5682999999997 286.6948999999999 539.6399999999998 C 287.4412999999999 539.6966999999997 287.9469999999999 539.9528999999998 288.2128999999999 540.4067999999997 C 288.4089999999999 540.7386999999998 288.4824999999999 541.2301999999997 288.4328999999999 541.8832999999997 C 288.4208999999999 542.0397999999998 288.3953999999999 542.2727999999997 288.3571999999999 542.5808999999997 C 288.31659999999994 542.8915999999997 288.2924999999999 543.1129999999997 288.2822999999999 543.2453999999997 C 288.25229999999993 543.6387999999997 288.2802999999999 543.9338999999997 288.3687999999999 544.1300999999996 C 288.4690999999999 544.3667999999997 288.6765999999999 544.4968999999996 288.9900999999999 544.5209999999996 C 289.4620999999999 544.5566999999996 289.84849999999994 544.3647999999996 290.1486999999999 543.9446999999997 C 290.3969999999999 543.5917999999997 290.5392999999999 543.1730999999996 290.5763999999999 542.6860999999997 C 290.61299999999994 542.2064999999997 290.53869999999995 541.7750999999997 290.3544999999999 541.3894999999997 C 290.1270999999999 540.9441999999997 289.7908999999999 540.7066999999996 289.3427999999999 540.6726999999996 C 289.0986999999999 540.6539999999997 288.8741999999999 540.7196999999996 288.6638999999999 540.8687999999996 L 288.7392999999999 539.8760999999996 C 288.9297999999999 539.8660999999996 289.1391999999999 539.8710999999996 289.3668999999999 539.8882999999996 C 290.13729999999987 539.9469999999997 290.70599999999985 540.2434999999996 291.07619999999986 540.7783999999996 C 291.41969999999986 541.2695999999996 291.56029999999987 541.9147999999996 291.49989999999985 542.7095999999996 z M 286.3524999999999 543.5265999999999 C 286.37119999999993 543.2819999999999 286.3028999999999 543.0704999999999 286.1458999999999 542.8876999999999 C 285.9907999999999 542.7070999999999 285.79009999999994 542.6055999999999 285.5474999999999 542.5871999999998 C 285.3033999999999 542.5684999999999 285.0913999999999 542.6367999999999 284.9093999999999 542.7878999999998 C 284.7290999999999 542.9394999999998 284.6272999999999 543.1418999999999 284.60809999999987 543.3938999999998 C 284.59019999999987 543.6285999999998 284.66249999999985 543.8389999999998 284.82149999999984 544.0197999999998 C 284.9816999999998 544.2028999999998 285.17899999999986 544.3023999999998 285.41569999999984 544.3202999999999 C 285.65089999999987 544.3380999999998 285.86269999999985 544.2677999999999 286.04749999999984 544.1073999999999 C 286.23429999999985 543.9469999999999 286.3351999999998 543.7538999999998 286.35249999999985 543.5265999999999 z M 288.7468999999999 538.2198 C 288.73389999999995 538.3936 288.6629999999999 538.5341999999999 288.5308999999999 538.6424999999999 C 288.4007999999999 538.7507999999999 288.2448999999999 538.799 288.06409999999994 538.7854 C 287.89989999999995 538.7726 287.75879999999995 538.702 287.64109999999994 538.5747 C 287.52489999999995 538.4477 287.4724999999999 538.2975 287.4857999999999 538.124 C 287.49909999999994 537.9506 287.57199999999995 537.806 287.70289999999994 537.6883 C 287.83529999999996 537.5727 287.98779999999994 537.5203 288.1592999999999 537.5333 C 288.3401999999999 537.5472000000001 288.4866999999999 537.6203 288.5986999999999 537.7507 C 288.7125999999999 537.8834 288.7607999999999 538.0387000000001 288.74689999999987 538.2198000000001 z M 309.7751999999999 544.9305999999999 L 300.19519999999994 545.6593999999999 C 299.29209999999995 545.7279999999998 298.81449999999995 545.4169999999999 298.76169999999996 544.7247999999998 C 298.73909999999995 544.4265999999999 298.84219999999993 544.1782999999998 299.073 543.9789999999998 C 299.36129999999997 543.7277999999998 299.84709999999995 543.5764999999998 300.532 543.5245999999999 C 300.60089999999997 543.5195999999999 300.7054 543.5112999999999 300.8435 543.5007999999998 C 300.9815 543.4902999999998 301.0802 543.4828999999997 301.144 543.4780999999998 C 301.7092 543.4349999999998 302.1083 543.3295999999998 302.3413 543.1617999999999 C 302.6619 542.9082999999998 302.7971 542.4663999999999 302.7492 541.8376999999998 C 302.71659999999997 541.4067999999999 302.53349999999995 541.0734999999999 302.19849999999997 540.8384999999998 C 301.8821 540.6238999999998 301.50539999999995 540.5342999999998 301.06489999999997 540.5677999999998 C 300.5929 540.6037999999998 300.25499999999994 540.7721999999998 300.04889999999995 541.0711999999999 C 300.17139999999995 541.0317999999999 300.29159999999996 541.0056999999998 300.40889999999996 540.9968999999999 C 300.70029999999997 540.9747999999998 300.94609999999994 541.0499999999998 301.1448 541.2202999999998 C 301.34319999999997 541.3911999999998 301.4529 541.6210999999998 301.4751 541.9122999999998 C 301.5048 542.3039999999999 301.4028 542.6137999999999 301.1669 542.8419999999999 C 300.9308 543.0678999999999 300.6119 543.1974999999999 300.2128 543.2277999999999 C 299.7799 543.2606999999999 299.4418 543.1551999999999 299.1977 542.9071999999999 C 298.9539 542.6611999999999 298.8156 542.3226999999998 298.7827 541.8898999999999 C 298.73589999999996 541.2758999999999 298.95509999999996 540.7772999999999 299.4398 540.3931999999999 C 299.86379999999997 540.0436999999998 300.39279999999997 539.8460999999999 301.0292 539.7975999999999 C 301.7137 539.7453999999999 302.29630000000003 539.8794999999999 302.7784 540.1975999999999 C 303.3119 540.5527999999998 303.6022 541.0598999999999 303.65229999999997 541.7202999999998 C 303.7079 542.4516999999998 303.53499999999997 543.0389999999999 303.1294 543.4806999999998 C 302.724 543.9225999999999 302.15709999999996 544.1702999999999 301.426 544.2258999999998 L 300.1776 544.3208999999998 C 299.9015 544.3417999999998 299.7706 544.4438999999999 299.7845 544.6246999999998 C 299.79449999999997 544.7570999999998 299.9375 544.8137999999999 300.2136 544.7927999999998 L 309.7097 544.0705999999998 z M 300.6098999999999 542.0604999999999 C 300.5996999999999 541.9260999999999 300.54439999999994 541.8178999999999 300.4482999999999 541.7351 C 300.3519999999999 541.6505999999999 300.2365999999999 541.614 300.1019999999999 541.6243 C 299.96789999999993 541.6345 299.8592999999999 541.688 299.77649999999994 541.7860999999999 C 299.69379999999995 541.8824999999999 299.65579999999994 541.9980999999999 299.66599999999994 542.1321999999999 C 299.67499999999995 542.2571999999999 299.73229999999995 542.3617999999999 299.83239999999995 542.4463 C 299.9343999999999 542.5282 300.04779999999994 542.5648 300.17279999999994 542.5554 C 300.2980999999999 542.5454 300.40469999999993 542.4925 300.4930999999999 542.3960999999999 C 300.57929999999993 542.2974999999999 300.61959999999993 542.1854999999999 300.6098999999999 542.0604999999999 z M 317.3501999999999 541.8068 C 317.6404999999999 544.0917999999999 316.6542999999999 545.3993999999999 314.3930999999999 545.7266 C 314.2224999999999 545.7484 313.8899999999999 545.7905999999999 313.3980999999999 545.853 C 312.93579999999986 545.9119 312.54629999999986 546.0367 312.2290999999999 546.228 C 311.8087999999999 546.4814 311.6233999999999 546.8028999999999 311.6732999999999 547.1963 L 311.7194999999999 547.5603 L 310.8528999999999 547.6703 L 310.80049999999994 547.2581 C 310.73779999999994 546.7643 310.90709999999996 546.3167 311.30819999999994 545.9111 C 311.7092999999999 545.5057 312.4017999999999 545.2401 313.38739999999996 545.1148000000001 C 313.50419999999997 545.1001000000001 313.67169999999993 545.0828 313.89189999999996 545.0624 C 314.10369999999995 545.0355000000001 314.25559999999996 545.0159 314.35029999999995 545.004 C 316.01509999999996 544.7925 316.73249999999996 543.7882000000001 316.50429999999994 541.9916000000001 C 316.31469999999996 540.4995 315.74269999999996 539.8121000000001 314.78849999999994 539.9331000000001 C 314.46169999999995 539.9748000000001 314.21479999999997 540.1097000000001 314.04779999999994 540.3385000000001 C 313.88229999999993 540.5649000000001 313.8218999999999 540.8464 313.86439999999993 541.182 L 314.27289999999994 544.3951000000001 L 313.31139999999994 544.5173000000001 L 312.84059999999994 540.8124000000001 C 312.79689999999994 540.4691000000001 312.6060999999999 540.3180000000001 312.27019999999993 540.3606000000001 C 311.95109999999994 540.4011 311.81499999999994 540.6222000000001 311.8653999999999 541.0193 L 312.3257999999999 544.6426 L 311.4348999999999 544.756 L 310.94929999999994 540.934 C 310.8956999999999 540.5128 310.9991999999999 540.1695 311.25999999999993 539.9062 C 311.49749999999995 539.6536 311.83089999999993 539.5 312.2613999999999 539.4453 C 312.73819999999995 539.3846 313.15349999999995 539.4902999999999 313.5052999999999 539.7642 C 313.9256999999999 539.3923 314.3216999999999 539.1832999999999 314.68729999999994 539.1369 C 316.21119999999996 538.9431999999999 317.09959999999995 539.8339 317.3501999999999 541.8068 z M 313.8924999999999 537.3802 C 313.91739999999993 537.5749999999999 313.8782999999999 537.7421999999999 313.77169999999995 537.8838999999999 C 313.66689999999994 538.0233999999999 313.5208999999999 538.1065 313.33349999999996 538.1302999999999 C 313.1294 538.1560999999999 312.95959999999997 538.1134999999999 312.82329999999996 538.0043999999999 C 312.68659999999994 537.8935999999999 312.60529999999994 537.7418999999999 312.58029999999997 537.5468999999999 C 312.55649999999997 537.3594999999999 312.60189999999994 537.1971 312.7147 537.0601999999999 C 312.8292 536.9229999999999 312.9792 536.8415999999999 313.16679999999997 536.8177999999999 C 313.3468 536.7948999999999 313.50699999999995 536.8385 313.6473 536.9473999999999 C 313.789 537.0556999999999 313.86949999999996 537.1999 313.8925 537.3802 z M 325.15059999999994 540.3674 C 325.55569999999994 542.6347999999999 324.6363999999999 543.9906 322.39449999999994 544.4308 C 322.22489999999993 544.4612 321.89529999999996 544.5201 321.40709999999996 544.6071 C 320.94849999999997 544.6890999999999 320.56549999999993 544.8335999999999 320.25859999999994 545.0403 C 319.85119999999995 545.3147 319.68229999999994 545.6452 319.75199999999995 546.0355 L 319.81629999999996 546.3967 L 318.95629999999994 546.5503 L 318.88349999999997 546.1413 C 318.79589999999996 545.6511 318.94269999999995 545.1956 319.3228 544.7704 C 319.703 544.3452 320.381 544.0453 321.3592 543.8704 C 321.4752 543.8497 321.6416 543.8242 321.86039999999997 543.7925 C 322.0705 543.7551 322.2215 543.7281 322.3151 543.7114 C 323.9674 543.4163 324.63329999999996 542.3774000000001 324.31489999999997 540.5944000000001 C 324.05049999999994 539.1136 323.44469999999995 538.456 322.49789999999996 538.6249 C 322.17359999999996 538.6827000000001 321.93379999999996 538.8301 321.77879999999993 539.0668000000001 C 321.6248999999999 539.3015 321.57839999999993 539.5856000000001 321.63789999999995 539.9186000000001 L 322.20739999999995 543.1073000000001 L 321.25319999999994 543.2777000000001 L 320.59669999999994 539.6012000000001 C 320.53579999999994 539.2604000000001 320.33789999999993 539.119 320.00429999999994 539.1785000000001 C 319.68769999999995 539.2349000000002 319.5625999999999 539.4626000000001 319.63319999999993 539.8566000000001 L 320.27529999999996 543.4523 L 319.39109999999994 543.6102000000001 L 318.71399999999994 539.8174 C 318.6390999999999 539.3996 318.72529999999995 539.0515 318.97279999999995 538.7754 C 319.19699999999995 538.5112 319.52209999999997 538.3409 319.9496 538.2646 C 320.42269999999996 538.1802 320.84279999999995 538.2649 321.2079 538.5206 C 321.609 538.1279999999999 321.9939 537.8995 322.3568 537.8345999999999 C 323.869 537.5647999999999 324.8011 538.4094999999999 325.1506 540.3673999999999 z M 332.7794999999999 538.4440999999999 C 332.98639999999995 539.1731 332.81659999999994 539.8142999999999 332.2700999999999 540.3702 C 331.8255999999999 540.8252 331.2132999999999 541.1624999999999 330.4323999999999 541.3842 C 329.3415999999999 541.694 328.3950999999999 541.5738 327.5917999999999 541.0255999999999 C 326.84739999999994 540.5076999999999 326.3178999999999 539.6972999999999 326.00409999999994 538.592 C 325.2928999999999 536.0865 326.1843999999999 534.4795 328.6771999999999 533.7717 C 329.3429999999999 533.5826 329.9402999999999 533.5611 330.4632999999999 533.706 C 331.0956999999999 533.8845 331.50099999999986 534.2848 331.6770999999999 534.9042000000001 C 331.80579999999986 535.3574000000001 331.7538999999999 535.7574000000001 331.5202999999999 536.1058 C 331.2866999999999 536.4541 330.9405999999999 536.6942 330.4779999999999 536.8258000000001 C 330.0388999999999 536.9505 329.6357999999999 536.9151 329.2689999999999 536.7195 C 328.9024999999999 536.5244 328.6567999999999 536.207 328.53199999999987 535.7679 C 328.41159999999985 535.3430000000001 328.4562999999999 534.9257 328.6663999999999 534.5138000000001 L 328.5869999999999 534.5365 C 326.8618999999999 535.009 326.31169999999986 536.3459 326.93579999999986 538.5436000000001 C 327.19179999999983 539.4453000000001 327.62809999999985 540.0780000000001 328.24349999999987 540.4439000000001 C 328.85909999999984 540.8099000000001 329.61769999999984 540.8649000000001 330.51909999999987 540.6089000000001 L 330.60019999999986 540.5856000000001 C 330.02329999999984 540.3410000000001 329.66789999999986 539.9870000000001 329.53659999999985 539.5243000000002 C 329.39039999999983 539.0096000000002 329.42639999999983 538.5540000000002 329.6471999999998 538.1603000000001 C 329.86569999999983 537.7660000000001 330.23819999999984 537.4950000000001 330.76009999999985 537.3468000000001 C 331.23909999999984 537.2107000000001 331.65979999999985 537.2410000000001 332.02659999999986 537.4363000000002 C 332.39249999999987 537.6300000000002 332.64399999999983 537.9673000000001 332.77949999999987 538.4441000000002 z M 331.97979999999995 538.6966 C 331.91489999999993 538.4679 331.78169999999994 538.2995 331.5773 538.1904 C 331.3743 538.0786999999999 331.1583 538.0563 330.93129999999996 538.1209 C 330.71189999999996 538.1833 330.54659999999996 538.3137 330.4344 538.5146 C 330.32349999999997 538.7135999999999 330.3003 538.9262 330.36519999999996 539.155 C 330.42529999999994 539.367 330.5574 539.53 330.7623 539.6431 C 330.96639999999996 539.7585 331.1742 539.7849 331.3868 539.7245 C 331.6136 539.6601 331.7856 539.5275 331.8999 539.3259 C 332.0161 539.1255000000001 332.0422 538.916 331.9798 538.6966000000001 z M 330.9018 535.0717 C 330.84369999999996 534.8665 330.7133 534.7089 330.5146 534.598 C 330.3153 534.4855 330.10979999999995 534.4599999999999 329.8972 534.5202999999999 C 329.68489999999997 534.5806999999999 329.5227 534.7082999999999 329.4094 534.9042 C 329.2977 535.1012 329.2719 535.305 329.33230000000003 535.5173 C 329.3946 535.737 329.5253 535.9019999999999 329.72400000000005 536.0128 C 329.92440000000005 536.1233 330.13050000000004 536.1503 330.34280000000007 536.0899 C 330.5554000000001 536.0295 330.71580000000006 535.8965999999999 330.8258000000001 535.6941999999999 C 330.9358000000001 535.4917999999999 330.9616000000001 535.2823 330.9018000000001 535.0717 z M 339.8669 538.2309 L 335.01939999999996 539.871 L 333.3606 534.9688 L 334.2895 534.6544 L 335.664 538.7165 L 338.70869999999996 537.6864 L 337.3345 533.6243000000001 L 338.2081 533.3287 z M 344.7133 531.7625 L 343.6129 532.1965 L 345.19100000000003 536.1982 L 344.3224 536.5406 L 342.7447 532.5389 L 341.0736 533.1977 L 342.6514 537.1994000000001 L 341.7724 537.546 L 339.874 532.7311000000001 L 344.39270000000005 530.9495000000001 z M 355.0989 532.7705000000001 L 353.1606 533.6467000000001 C 352.8632 534.8242000000001 351.9969 535.7375000000001 350.5595 536.3875000000002 C 350.0498 536.6180000000002 349.5781 536.7285000000002 349.1408 536.7189000000002 C 348.5744 536.7061000000002 348.19030000000004 536.4794000000002 347.9893 536.0343000000001 C 347.76570000000004 535.5400000000002 348.0511 535.1128000000001 348.8491 534.7522000000001 L 352.36940000000004 533.1872000000001 C 352.4003 532.7422 352.3124 532.2892 352.10440000000006 531.8289000000001 C 351.95470000000006 531.498 351.72200000000004 531.2645000000001 351.40510000000006 531.1264000000001 C 351.08790000000005 530.9887000000001 350.7678000000001 530.9935000000002 350.44410000000005 531.1400000000001 L 350.0246 531.3297000000001 L 350.41920000000005 532.2025000000001 C 350.6136 532.6322000000001 350.5932 533.0642000000001 350.3568 533.4996000000001 C 350.13800000000003 533.8922000000001 349.80150000000003 534.1924000000001 349.34970000000004 534.3968000000001 C 348.84680000000003 534.6241000000001 348.37850000000003 534.6876000000001 347.94430000000006 534.5904 C 347.46970000000005 534.4764 347.12360000000007 534.1791000000001 346.90620000000007 533.6983 C 346.60800000000006 533.0387000000001 346.7313000000001 532.4119000000001 347.27700000000004 531.8203 L 346.4637 530.0215 L 350.4586 528.2154999999999 L 350.7846 528.9366999999999 L 349.25530000000003 529.6279999999998 L 349.71310000000005 530.6408999999998 L 350.41380000000004 530.3238999999998 C 350.9082 530.1005999999998 351.39770000000004 530.1112999999998 351.88190000000003 530.3604999999998 C 352.3235 530.5920999999997 352.66 530.9636999999998 352.89040000000006 531.4733999999997 C 353.08230000000003 531.8976999999998 353.1917000000001 532.3308999999997 353.22040000000004 532.7758999999998 L 353.97380000000004 532.4620999999997 L 351.7832 527.6165999999997 L 352.6016 527.2465999999997 z M 352.1052 534.1241000000001 L 349.28360000000004 535.3997000000002 C 349.09770000000003 535.4838000000002 348.99530000000004 535.5343000000001 348.97610000000003 535.5510000000002 C 348.86350000000004 535.6287000000002 348.83320000000003 535.7205000000001 348.8817 535.8277000000002 C 348.9494 535.9779000000002 349.2065 536.0012000000002 349.65130000000005 535.8949000000001 C 349.9347 535.8180000000001 350.21740000000005 535.7169000000001 350.4988000000001 535.5896000000001 C 351.2370000000001 535.2559000000001 351.7719000000001 534.7633000000002 352.1007000000001 534.1139000000002 z M 349.4775 532.4457000000001 L 349.1515 531.7243000000001 L 348.2481 532.1327000000001 C 347.98900000000003 532.2501000000001 347.8124 532.4139000000001 347.7189 532.6248000000002 C 347.6234 532.8363000000002 347.63390000000004 533.0676000000002 347.747 533.3182000000002 C 347.85810000000004 533.5637000000002 348.0437 533.7159000000001 348.30510000000004 533.7805000000002 C 348.54210000000006 533.8460000000002 348.7859 533.8219000000001 349.03810000000004 533.7079000000002 C 349.59740000000005 533.4551000000002 349.74340000000007 533.0336000000002 349.4775 532.4457000000002 z M 348.84000000000003 531.0354000000001 L 348.3822 530.0226000000001 L 347.5862 530.3826000000001 L 348.04400000000004 531.3954000000001 z M 366.4397 522.0629000000001 C 366.7459 522.5403000000001 366.882 523.0511000000001 366.84770000000003 523.5973000000001 C 366.81850000000003 524.2073000000001 366.5738 524.6578000000002 366.11550000000005 524.9514000000001 C 365.97690000000006 525.0402000000001 365.79260000000005 525.0895000000002 365.56360000000006 525.0963000000002 L 365.57570000000004 525.1150000000001 C 365.6829 525.2820000000002 365.8978 525.3642000000001 366.22490000000005 525.3613000000001 C 366.5169 525.3523000000001 366.75720000000007 525.2868000000002 366.94290000000007 525.1674000000002 L 367.4863000000001 524.8327000000002 L 367.9974000000001 525.6298000000002 C 367.5594000000001 525.9104000000002 367.2986000000001 526.1108000000002 367.2145000000001 526.2293000000002 C 367.1331000000001 526.3481000000002 366.9185000000001 526.7724000000002 366.5710000000001 527.4995000000002 C 366.3386000000001 527.9862000000003 366.03100000000006 528.3527000000003 365.6466000000001 528.5988000000002 C 365.1755000000001 528.9009000000002 364.6633000000001 529.0271000000002 364.1088000000001 528.9803000000002 C 363.4965000000001 528.9304000000002 363.0461000000001 528.6815000000001 362.75610000000006 528.2291000000001 L 363.57820000000004 527.7158000000002 C 363.73580000000004 527.9615000000002 363.9716 528.1081000000001 364.2902 528.1574000000002 C 364.60690000000005 528.2076000000002 364.8912 528.1524000000002 365.14320000000004 527.9905000000001 C 365.44250000000005 527.7986000000001 365.6815 527.4986000000001 365.86060000000003 527.0950000000001 C 366.0914 526.5916000000001 366.2651 526.2735000000001 366.3865 526.1403000000001 C 365.9913 526.2245000000001 365.6075 526.1661000000001 365.23560000000003 525.9643000000001 C 364.894 525.7811 364.60540000000003 525.5082000000001 364.3713 525.1428000000001 C 363.92490000000004 524.4466000000001 363.7789 523.7510000000001 363.9302 523.0539000000001 L 364.83680000000004 523.1752000000001 C 364.73470000000003 523.5117000000001 364.75540000000007 523.7940000000001 364.90000000000003 524.0194000000001 C 364.98470000000003 524.1515000000002 365.09700000000004 524.2397000000001 365.23670000000004 524.2810000000002 C 365.3756 524.3210000000001 365.51140000000004 524.3006000000001 365.64380000000006 524.2158000000002 C 365.91620000000006 524.0412000000001 366.02110000000005 523.7541000000002 365.96150000000006 523.3521000000002 C 365.9159000000001 523.0346000000002 365.79660000000007 522.7243000000002 365.6007000000001 522.4187000000002 C 365.18770000000006 521.7744000000001 364.62930000000006 521.4127000000002 363.9220000000001 521.3322000000002 C 363.2652000000001 521.2576000000001 362.6099000000001 521.4314000000002 361.9528000000001 521.8526000000002 C 361.32290000000006 522.2563000000001 360.9000000000001 522.7651000000002 360.6871000000001 523.3793000000002 C 360.4538000000001 524.0245000000002 360.4972000000001 524.6745000000002 360.8141000000001 525.3316000000002 C 360.9108000000001 524.9143000000003 361.1327000000001 524.5943000000002 361.4774000000001 524.3732000000002 C 361.9091000000001 524.0965000000002 362.32580000000013 524.0047000000002 362.7312000000001 524.0959000000003 C 363.1365000000001 524.1875000000002 363.47750000000013 524.4489000000002 363.75420000000014 524.8803000000003 C 364.0258000000001 525.3041000000003 364.08610000000016 525.7278000000002 363.9379000000001 526.1519000000003 C 363.8078000000001 526.5351000000003 363.52460000000013 526.8657000000003 363.08660000000015 527.1463000000003 C 362.54950000000014 527.4907000000003 362.00410000000016 527.5315000000004 361.45250000000016 527.2673000000003 C 360.99300000000017 527.0460000000003 360.58050000000014 526.6525000000004 360.21400000000017 526.0808000000003 C 359.6576000000002 525.2128000000002 359.4986000000002 524.3301000000002 359.74010000000015 523.4377000000003 C 359.97850000000017 522.5825000000003 360.53570000000013 521.8741000000003 361.41170000000017 521.3126000000003 C 362.2275000000002 520.7896000000003 363.10900000000015 520.5356000000003 364.0581000000002 520.5495000000003 C 365.0071000000002 520.5634000000003 365.8017000000002 521.0674000000004 366.4397000000002 522.0629000000004 z M 363.028 525.3457000000001 C 362.9049 525.1538 362.7312 525.0319000000001 362.5072 524.984 C 362.285 524.9356 362.0775 524.9730000000001 361.88530000000003 525.0963 C 361.69340000000005 525.2193000000001 361.5744 525.3911 361.5273 525.6122 C 361.482 525.8324 361.52130000000005 526.0405000000001 361.6449 526.2324 C 361.764 526.4184 361.9338 526.5343 362.154 526.5794 C 362.376 526.6242 362.579 526.5874 362.7649 526.468 C 362.9571 526.3448999999999 363.0796 526.1750999999999 363.1323 525.9590999999999 C 363.1864 525.7422999999999 363.1513 525.5382 363.02799999999996 525.3457 z M 373.54560000000004 514.5925000000001 L 372.71740000000005 515.1813000000001 L 375.29260000000005 518.8028 L 374.56070000000005 519.3232 L 371.9854 515.7017000000001 L 370.80060000000003 516.5442 L 373.3758 520.166 L 372.6241 520.7003000000001 L 370.9327 518.3218 C 370.6313 517.8977000000001 370.2832 517.6633 369.8875 517.6137000000001 C 369.4915 517.5669000000001 369.0791 517.6976000000001 368.6491 518.0031000000001 C 368.2054 518.3186000000002 367.9362 518.7053000000001 367.84259999999995 519.1645000000001 C 367.74789999999996 519.6220000000001 367.8579 520.0739000000001 368.17259999999993 520.5163000000001 C 368.22529999999995 520.0058000000001 368.45489999999995 519.6059000000001 368.85909999999996 519.3187000000001 C 369.26929999999993 519.0270000000002 369.6749 518.9131000000001 370.0746 518.9777000000001 C 370.474 519.0452000000001 370.81669999999997 519.2787000000002 371.1019 519.6798000000001 C 371.4109 520.1144000000002 371.5109 520.5555000000002 371.4058 521.0045000000001 C 371.3003 521.4535000000001 371.0293 521.8345000000002 370.5931 522.1446000000001 C 370.0335 522.5426000000001 369.4513 522.6052000000001 368.8435 522.3348000000001 C 368.3523 522.1057000000001 367.8922 521.6913000000001 367.4639 521.0889000000001 C 367.0226 520.4684000000001 366.86240000000004 519.8134000000001 366.9789 519.1220000000001 C 367.09680000000003 518.432 367.4707 517.8631 368.1003 517.4152 C 368.4662 517.155 368.77750000000003 516.9821000000001 369.0357 516.8971 C 369.3895 516.7811 369.7472 516.7837000000001 370.1137 516.9021 L 369.75169999999997 516.393 L 373.12159999999994 513.9966000000001 z M 370.4814 520.2955000000001 C 370.33480000000003 520.0897000000001 370.1407 519.9681 369.8952 519.9296 C 369.6494 519.8907 369.42859999999996 519.942 369.229 520.0841 C 369.0309 520.2249 368.9138 520.416 368.8829 520.6561 C 368.85 520.8976 368.9045 521.1162 369.0465 521.3157 C 369.18309999999997 521.5079 369.3705 521.6298 369.6094 521.678 C 369.8453 521.7259 370.0653 521.68 370.2634 521.5388 C 370.46299999999997 521.3968 370.582 521.202 370.6248 520.9557000000001 C 370.66679999999997 520.7080000000001 370.6178 520.4877000000001 370.4814 520.2955000000001 z M 384.89300000000003 510.4845000000001 L 383.0445 512.0858000000001 C 383.0475 512.4373 383.11400000000003 512.6890000000001 383.24240000000003 512.8373 C 383.4017 513.0213 383.5772 513.1293000000001 383.76450000000006 513.1602 C 383.95220000000006 513.1908000000001 384.13870000000003 513.2174 384.3278000000001 513.2415000000001 L 384.1152000000001 514.099 C 384.09960000000007 514.0930000000001 384.07720000000006 514.09 384.04910000000007 514.094 C 383.6869000000001 514.0733 383.42210000000006 514.0356 383.2517000000001 513.9851000000001 C 383.0187000000001 513.9072000000001 382.8027000000001 513.7549000000001 382.6069000000001 513.5287000000001 C 382.3580000000001 513.2416000000001 382.2449000000001 512.9853 382.2681000000001 512.7577000000001 L 379.98110000000014 514.7386000000001 L 379.40030000000013 514.0682000000002 C 379.43630000000013 514.0495000000002 379.48250000000013 514.0143000000002 379.54200000000014 513.9627000000002 C 379.8403000000001 513.7045000000002 379.93970000000013 513.3734000000002 379.84000000000015 512.9695000000002 C 379.76710000000014 512.6565000000002 379.58970000000016 512.3373000000001 379.30560000000014 512.0094000000001 C 378.8827000000001 511.52120000000014 378.42150000000015 511.25730000000016 377.92540000000014 511.21930000000015 C 377.4280000000001 511.18220000000014 376.93530000000015 511.37380000000013 376.44750000000016 511.79620000000017 C 376.0543000000002 512.1369000000002 375.79720000000015 512.5576000000002 375.67810000000014 513.0570000000001 C 375.53840000000014 513.6160000000001 375.62710000000015 514.0812000000001 375.94690000000014 514.4503000000001 C 375.98200000000014 514.0336000000001 376.14270000000016 513.7019000000001 376.4282000000001 513.4545 C 376.79160000000013 513.1395 377.1782000000001 513.0029000000001 377.58780000000013 513.0415 C 377.9977000000001 513.0803000000001 378.36110000000014 513.2852 378.67970000000014 513.6529 C 379.00910000000016 514.0333 379.15910000000014 514.4381000000001 379.13100000000014 514.8684000000001 C 379.10150000000016 515.2975 378.89660000000015 515.6780000000001 378.51590000000016 516.0076 C 378.04510000000016 516.4155000000001 377.5294000000002 516.5403 376.9651000000002 516.3829000000001 C 376.48370000000017 516.2477 376.02880000000016 515.9339000000001 375.60130000000015 515.4404000000001 C 374.96810000000016 514.7091 374.69340000000017 513.9667000000001 374.7821000000001 513.2141 C 374.87400000000014 512.4887 375.2889000000001 511.8075 376.02710000000013 511.168 C 376.67650000000015 510.6059 377.33390000000014 510.33320000000003 378.0011000000001 510.3494 C 378.66840000000013 510.3681 379.27640000000014 510.6955 379.82890000000015 511.3333 C 380.37150000000014 511.95980000000003 380.62400000000014 512.5284 380.58860000000016 513.0389 L 382.37470000000013 511.492 C 381.2876000000001 511.42850000000004 380.47410000000013 511.0838 379.93010000000015 510.45570000000004 C 379.52110000000016 509.9834 379.3317000000001 509.49620000000004 379.3643000000001 508.99070000000006 C 379.3961000000001 508.48760000000004 379.64780000000013 508.03210000000007 380.1189000000001 507.6242000000001 C 380.4341000000001 507.3509000000001 380.8449000000001 507.2823000000001 381.3494000000001 507.4218000000001 C 381.8018000000001 507.53260000000006 382.1706000000001 507.75540000000007 382.4609000000001 508.0905000000001 C 383.0769000000001 508.8020000000001 383.2926000000001 509.6821000000001 383.1083000000001 510.7326000000001 C 383.0993000000001 510.7703000000001 383.0845000000001 510.8253000000001 383.0621000000001 510.8968000000001 L 384.3122000000001 509.8136000000001 z M 378.16330000000005 514.2665000000001 C 378.00280000000004 514.0814 377.8072 513.9780000000001 377.5742000000001 513.955 C 377.3409000000001 513.9315 377.1346000000001 513.9989 376.95630000000006 514.1534 C 376.77830000000006 514.3076 376.68190000000004 514.5024000000001 376.6720000000001 514.7365 C 376.6615000000001 514.9703999999999 376.7343000000001 515.1798 376.8948000000001 515.3652 C 377.0444000000001 515.5378999999999 377.23660000000007 515.6311 377.4688000000001 515.6476 C 377.7021000000001 515.666 377.9059000000001 515.5982 378.0785000000001 515.4489 C 378.25110000000006 515.2991999999999 378.34580000000005 515.1084 378.36230000000006 514.8734 C 378.37930000000006 514.6415 378.31270000000006 514.4390999999999 378.16330000000005 514.2665 z M 381.93590000000006 508.7313000000001 C 381.40920000000006 508.1233000000001 380.9449000000001 507.9957000000001 380.54040000000003 508.3458000000001 C 380.29580000000004 508.5578000000001 380.18350000000004 508.8112000000001 380.2008 509.1080000000001 C 380.2178 509.4051000000001 380.3346 509.6803000000001 380.55150000000003 509.93060000000014 C 380.76210000000003 510.17360000000014 381.0484 510.3641000000001 381.40720000000005 510.50100000000015 C 381.58160000000004 510.57070000000016 381.91460000000006 510.66090000000014 382.40900000000005 510.77450000000016 C 382.49090000000007 510.42360000000014 382.48810000000003 510.0602000000002 382.40400000000005 509.6854000000002 C 382.31950000000006 509.3104000000002 382.16310000000004 508.9929000000002 381.9363000000001 508.7313000000002 z M 389.16620000000006 503.9450000000001 C 389.74170000000004 504.4938000000001 390.01240000000007 505.1319000000001 389.98060000000004 505.8567000000001 C 389.946 506.5812000000001 389.52570000000003 507.3746000000001 388.71670000000006 508.2344000000001 L 388.3731000000001 508.5947000000001 C 387.7211000000001 509.2784000000001 387.4037000000001 509.8473000000001 387.4209000000001 510.2980000000001 C 387.42590000000007 510.5426000000001 387.52330000000006 510.7547000000001 387.71290000000005 510.9355000000001 L 387.87530000000004 511.0906000000001 L 387.3124 511.6808000000001 L 387.1066 511.4846000000001 C 386.6556 511.0549000000001 386.4946 510.5211000000001 386.6238 509.8813000000001 C 386.73920000000004 509.3374000000001 387.02750000000003 508.8291000000001 387.4912 508.35630000000015 L 388.4292 507.3888000000002 C 388.6563 507.1507000000002 388.8377 506.83270000000016 388.9701 506.43640000000016 C 389.1022 506.04010000000017 389.1402 505.68350000000015 389.082 505.36710000000016 C 389.0305 505.08000000000015 388.86629999999997 504.8016000000002 388.5863 504.5346000000002 C 388.3694 504.3280000000002 388.1242 504.1976000000002 387.8504 504.1431000000002 C 387.53659999999996 504.08450000000016 387.2815 504.15680000000015 387.085 504.36260000000016 L 386.5958 504.8759000000002 C 386.6525 504.9300000000002 386.7486 505.0137000000002 386.8784 505.12710000000015 C 387.0082 505.24330000000015 387.1018 505.33230000000015 387.1616 505.39690000000013 C 387.6463 505.85920000000016 387.8623 506.3105000000001 387.8104 506.7527000000001 C 387.7432 507.2108000000001 387.5553 507.6031000000001 387.2455 507.9280000000001 C 386.822 508.37220000000013 386.382 508.6219000000001 385.9265 508.6766000000001 C 385.4373 508.73470000000015 384.9735 508.5539000000001 384.5336 508.1343000000001 C 384.1174 507.7378000000001 383.98339999999996 507.2063000000001 384.12879999999996 506.53840000000014 L 382.7098 505.18540000000013 L 385.68589999999995 502.06420000000014 L 386.29249999999996 502.64250000000015 L 385.3216 503.6610000000002 L 386.0229 504.3297000000002 L 386.64279999999997 503.6797000000002 C 386.98639999999995 503.3194000000002 387.41729999999995 503.1873000000002 387.938 503.2809000000002 C 388.38079999999997 503.3642000000002 388.7898 503.5861000000002 389.1662 503.9450000000002 z M 386.5912000000001 506.0786000000001 L 385.9929000000001 505.5080000000001 L 385.2428000000001 506.2949000000001 C 385.0580000000001 506.4885000000001 384.9599000000001 506.7051000000001 384.9500000000001 506.9463000000001 C 384.9384000000001 507.1864000000001 385.0268000000001 507.3945000000001 385.2150000000001 507.5739000000001 C 385.4154000000001 507.7650000000001 385.66460000000006 507.8344000000001 385.9648000000001 507.7826000000001 C 386.22980000000007 507.7324000000001 386.4637000000001 507.6011000000001 386.6649000000001 507.3900000000001 C 387.0782000000001 506.9565000000001 387.0530000000001 506.5191000000001 386.59120000000013 506.0786000000001 z M 385.4200000000001 504.96210000000013 L 384.71870000000007 504.29310000000015 L 383.87030000000004 505.18290000000013 L 384.57180000000005 505.8519000000001 z M 394.20400000000006 496.25550000000015 C 394.7981000000001 496.77000000000015 395.1156000000001 497.36950000000013 395.15670000000006 498.05600000000015 C 395.19550000000004 498.74310000000014 394.95740000000006 499.3838000000002 394.44180000000006 499.97910000000013 L 391.32430000000005 503.57820000000015 L 387.42070000000007 500.19730000000015 L 388.0318000000001 499.4918000000002 L 391.2919000000001 502.3154000000002 L 392.8929000000001 500.4669000000002 L 389.6331000000001 497.6433000000002 L 390.86420000000015 496.22170000000017 C 391.32850000000013 495.68570000000017 391.87980000000016 495.44050000000016 392.51930000000016 495.4825000000002 C 393.09000000000015 495.5182000000002 393.65090000000015 495.7767000000002 394.2040000000002 496.2555000000002 z M 393.63590000000005 496.9196000000002 C 393.2796000000001 496.6109000000002 392.92300000000006 496.42580000000015 392.5658 496.3691000000002 C 392.1372 496.3099000000002 391.77840000000003 496.4465000000002 391.48920000000004 496.78040000000016 L 390.88630000000006 497.47630000000015 L 393.51290000000006 499.75140000000016 L 393.87690000000003 499.33110000000016 C 394.2162 498.93960000000015 394.3616 498.52570000000014 394.31030000000004 498.0903000000002 C 394.26070000000004 497.6561000000002 394.035 497.26520000000016 393.63590000000005 496.9196000000002 z M 389.03470000000004 495.6075000000002 C 389.17190000000005 495.7262000000002 389.24620000000004 495.8722000000002 389.25840000000005 496.0437000000002 C 389.27230000000003 496.2166000000002 389.2207000000001 496.3677000000002 389.10670000000005 496.49920000000014 C 388.9879 496.63640000000015 388.84200000000004 496.71040000000016 388.6659 496.71920000000017 C 388.4916 496.72920000000016 388.33680000000004 496.6761000000002 388.2067 496.5636000000002 C 388.0752 496.4496000000002 388.0052 496.30510000000015 387.9938 496.12930000000017 C 387.9848 495.95360000000016 388.03630000000004 495.79990000000015 388.1492 495.6698000000002 C 388.2631 495.53830000000016 388.4054 495.4657000000002 388.5738 495.4510000000002 C 388.7427 495.4363000000002 388.8961 495.4876000000002 389.0347 495.6075000000002 z" stroke-linecap="round" />
</g>
		<g transform="matrix(1 0 0 1 0 -0.57)" id="path21"  >
<path style="stroke: none; stroke-width: 1; stroke-dasharray: none; stroke-linecap: butt; stroke-dashoffset: 0; stroke-linejoin: miter; stroke-miterlimit: 4; fill: none; fill-rule: nonzero; opacity: 1;" vector-effect="non-scaling-stroke"  transform=" translate(-297.64, -419.87)" d="M 297.6378 294.2195 C 367.0339 294.2195 423.29080000000005 350.4764 423.29080000000005 419.8725 C 423.29080000000005 489.2686 367.0339 545.5255999999999 297.6378 545.5255999999999 C 228.24170000000004 545.5255999999999 171.9848 489.26859999999994 171.9848 419.87249999999995 C 171.9848 350.47639999999996 228.2417 294.2194999999999 297.6378 294.2194999999999 z" stroke-linecap="round" />
</g>
		<g transform="matrix(1 0 0 1 0 -31.99)" id="path23"  >
<path style="stroke: rgb(95,194,187); stroke-width: 2.0001; stroke-dasharray: none; stroke-linecap: butt; stroke-dashoffset: 0; stroke-linejoin: miter; stroke-miterlimit: 4; fill: none; fill-rule: nonzero; opacity: 1;" vector-effect="non-scaling-stroke"  transform=" translate(-297.64, -388.46)" d="M 188.8191 482.6993 C 177.7907 463.5972 171.9848 441.9292 171.9848 419.8725 C 171.9848 350.4764 228.2417 294.2195 297.6378 294.2195 C 367.0339 294.2195 423.29080000000005 350.4764 423.29080000000005 419.8725 C 423.29080000000005 441.9292 417.48490000000004 463.5972 406.45640000000003 482.6993" stroke-linecap="round" />
</g>
</g>
</g>
</svg>