<svg version="1.1" id="svg26" sodipodi:docname="Logo_SN_Final logo_Cor.cdr" xmlns:inkscape="http://www.inkscape.org/namespaces/inkscape" xmlns:sodipodi="http://sodipodi.sourceforge.net/DTD/sodipodi-0.dtd" xmlns="http://www.w3.org/2000/svg" xmlns:svg="http://www.w3.org/2000/svg" viewBox="170.98 293.22 253.31 254.45">
	<defs id="defs30"></defs>
	<sodipodi:namedview id="namedview28" pagecolor="#ffffff" bordercolor="#000000" borderopacity="0.25" inkscape:showpageshadow="2" inkscape:pageopacity="0.0" inkscape:pagecheckerboard="0" inkscape:deskcolor="#d1d1d1" inkscape:document-units="pt"></sodipodi:namedview>
	<path d="M -3e-4,-3e-4 V 841.89 H 595.2759 V -3e-4 Z" style="fill:none" id="path2"></path>
	<g id="Layer1000">
		<g id="Layer1001">
			<path d="m 297.7273,313.1814 c -22.4404,49.1143 -61.3067,85.6757 -9.6202,135.9943 -36.5604,-50.9373 -0.3664,-86.8063 9.6202,-114.9164 9.9866,28.1101 46.1807,63.9791 9.6202,114.9164 51.2315,-49.8758 13.3504,-85.7198 -9.6202,-135.9943 z" style="fill:#5fc2bb;fill-rule:evenodd" id="path4"></path>
			<path d="m 307.3475,449.1757 h -19.2404 c -36.5604,-50.9373 -0.3664,-86.8063 9.6202,-114.9164 9.9866,28.1101 46.1807,63.9791 9.6202,114.9164 z" style="fill:none" id="path6"></path>
			<path d="m 398.9264,457.8635 v 4e-4 c -34.2241,15.633 -58.4012,43.3457 -93.8152,6.9684 35.7286,25.6442 60.7108,-0.601 80.2467,-6.9684 -19.5359,-6.3674 -44.5181,-32.613 -80.2467,-6.9688 35.4144,-36.3777 59.5906,-8.6646 93.8152,6.9684 z" style="fill:#5fc2bb;fill-rule:evenodd" id="path8"></path>
			<path d="m 292.9247,403.593 h 8.173 l -4.0865,107.5361 z" style="fill:#5fc2bb;fill-rule:evenodd" id="path10"></path>
			<path d="m 297.0111,388.1869 c 2.9846,0 5.4039,2.4196 5.4039,5.4039 0,2.9843 -2.4193,5.404 -5.4039,5.404 -2.9844,0 -5.4037,-2.4197 -5.4037,-5.404 0,-2.9843 2.4193,-5.4039 5.4037,-5.4039 z" style="fill:#5fc2bb;fill-rule:evenodd" id="path12"></path>
			<path d="m 295.7182,478.6936 0.3824,9.8966 c 0,0 -2.0812,4.5875 0.1698,11.511 2.2511,6.9236 3.1009,8.5389 2.5911,13.8057 -0.5099,5.2668 -1.6144,12.6568 -1.6144,12.6568 0,0 1.2744,-15.0359 -0.8495,-20.5577 -2.1239,-5.5217 -4.7762,-13.8368 -3.8227,-18.8169 0.9536,-4.9801 3.1433,-8.4955 3.1433,-8.4955 z M 285.2109,412.771 c 0,0 7.3628,-5.6916 13.0543,-1.9537 5.6916,3.7379 10.194,11.9778 7.3907,18.6041 -2.8032,6.6262 -5.9465,8.41 -5.9465,8.41 l 0.1699,-14.6115 c 0,0 -0.255,-2.6334 -3.3132,-2.0388 -3.0581,0.5946 -8.0129,-0.2549 -9.684,-2.8883 -1.6712,-2.6334 -1.6712,-5.5218 -1.6712,-5.5218 z m 8.002,-0.3801 c 0.6335,0 1.1469,0.5134 1.1469,1.1468 0,0.6335 -0.5134,1.1469 -1.1469,1.1469 -0.6335,0 -1.1469,-0.5134 -1.1469,-1.1469 0,-0.6334 0.5134,-1.1468 1.1469,-1.1468 z m 1.3995,22.0424 0.3401,12.9975 c 0,0 9.2593,8.0701 8.6646,16.0554 -0.5946,7.9853 -5.0969,16.2258 -5.0969,16.2258 l 0.0847,-17.3297 c 0,0 -1.3587,-3.0578 -4.3318,-7.2205 -2.9731,-4.1627 -6.2435,-7.2635 -4.8421,-13.125 1.4015,-5.8614 5.1814,-7.6035 5.1814,-7.6035 z" style="fill:#565757;fill-rule:evenodd" id="path14"></path>
			<path d="m 196.3491,457.8639 c 34.2242,15.633 58.4013,43.3457 93.8152,6.9684 -35.7285,25.6442 -60.7108,-0.601 -80.2467,-6.9684 19.5359,-6.3674 44.5182,-32.613 80.2467,-6.9688 -35.0875,-36.0422 -58.69,-9.0756 -93.8152,6.9688 z" style="fill:#5fc2bb;fill-rule:evenodd" id="path16"></path>
		</g>
		<path d="m 202.682,502.3675 -3.1402,-3.9957 0.2973,-0.2336 c -0.4963,-0.1499 -0.8852,-0.4059 -1.1673,-0.7648 -0.1851,-0.2352 -0.2565,-0.4954 -0.2146,-0.7783 0.0434,-0.2841 0.1806,-0.5179 0.4162,-0.7033 l 3.2777,-2.5759 0.5986,0.7623 -3.0291,2.3805 c -0.2043,0.1604 -0.2401,0.3243 -0.1094,0.4904 0.4487,0.5709 1.0897,0.5264 1.9253,-0.1304 l 2.0815,-1.6359 0.5771,0.7342 -3.3911,2.6649 1.9574,2.4908 3.391,-2.6652 0.599,0.762 z m 7.8772,1.9956 -0.8161,-0.8558 -3.1133,2.9685 -0.644,-0.6755 3.1133,-2.9685 -1.2396,-1.3002 -3.1133,2.9684 -0.652,-0.6837 3.7457,-3.5714 3.3517,3.5153 z m 4.0087,9.8708 -3.1892,-3.0407 0.5876,-0.616 c 0.2965,0.2829 0.652,0.3657 1.0672,0.2498 0.3484,-0.0916 0.6719,-0.2951 0.9703,-0.6081 0.936,-0.9816 0.9159,-1.9366 -0.0592,-2.8664 -1.1049,-1.0536 -2.0563,-1.1644 -2.8505,-0.3316 0.4189,-0.0275 0.8268,0.1497 1.2262,0.5303 0.3697,0.3527 0.5381,0.7535 0.5052,1.2002 -0.0301,0.4057 -0.2234,0.7983 -0.5808,1.1733 -0.332,0.3481 -0.7291,0.5046 -1.192,0.4717 -0.4623,-0.0352 -0.8705,-0.22 -1.224,-0.557 -0.508,-0.4842 -0.7092,-1.0432 -0.6052,-1.6781 0.0986,-0.5372 0.4031,-1.0741 0.9145,-1.6101 0.6908,-0.7246 1.4442,-1.0457 2.2586,-0.9641 0.726,0.0817 1.4632,0.4796 2.211,1.1926 0.5755,0.5487 0.9377,1.1582 1.0874,1.828 0.1511,0.6715 -0.1752,1.4256 -0.9731,2.2623 -0.5063,0.531 -1.0287,0.811 -1.5682,0.8397 l 1.3434,1.2807 2.984,-3.1295 0.6582,0.6276 z m -2.9585,-4.9093 c 0.159,-0.1667 0.2322,-0.3736 0.2248,-0.6208 -0.01,-0.2475 -0.1006,-0.453 -0.2713,-0.6157 -0.1706,-0.1627 -0.379,-0.2449 -0.6239,-0.2457 -0.2449,0.002 -0.4493,0.0859 -0.6134,0.2579 -0.1624,0.1707 -0.2344,0.379 -0.2177,0.6248 0.0164,0.2432 0.1086,0.4444 0.2735,0.602 0.171,0.1628 0.3776,0.2464 0.62,0.2501 0.2423,8e-4 0.4456,-0.0822 0.608,-0.2526 z m 10.9616,5.8708 -0.9298,-0.7307 -2.658,3.3823 -0.7339,-0.5769 2.658,-3.3823 -1.4125,-1.1098 -2.658,3.3821 -0.7427,-0.584 3.1981,-4.0691 3.8188,3.0013 z m 0.1956,-3.2133 c -0.1075,0.1366 -0.2489,0.2109 -0.4235,0.2236 -0.1758,0.0119 -0.3317,-0.0346 -0.4672,-0.1411 -0.1366,-0.1075 -0.2174,-0.2469 -0.2432,-0.4173 -0.0272,-0.1712 0.0145,-0.324 0.1219,-0.4606 0.1077,-0.1369 0.2472,-0.2177 0.4212,-0.2427 0.1747,-0.0221 0.3331,0.0213 0.4757,0.1335 0.1414,0.1109 0.2239,0.2543 0.2489,0.4286 0.0221,0.1747 -0.0213,0.3331 -0.1338,0.476 z m 4.2996,9.6534 c -0.3101,0.4362 -0.7101,0.6848 -1.1977,0.7443 -0.4861,0.0604 -0.9504,-0.0677 -1.394,-0.3832 l -0.6268,-0.4456 0.3969,-0.5581 c -0.5848,0.1148 -1.1651,-0.0315 -1.7428,-0.4423 -0.4178,-0.2973 -0.6888,-0.6715 -0.8118,-1.1216 -0.1245,-0.4513 -0.0437,-0.8782 0.2438,-1.2824 0.3611,-0.5077 0.9076,-0.7662 1.6412,-0.7773 l 1.1157,-1.5692 3.5907,2.5534 -0.4314,0.6069 -1.2031,-0.8555 -0.5952,0.8371 0.6267,0.4456 c 0.3841,0.2733 0.6134,0.6222 0.6851,1.0451 0.0712,0.4227 -0.0286,0.8246 -0.2973,1.2028 z m -0.7427,-0.5281 c 0.1505,-0.2121 0.2004,-0.4337 0.1465,-0.6648 -0.0524,-0.2301 -0.191,-0.4254 -0.4166,-0.5859 l -0.4332,-0.3078 c -0.4068,0.572 -0.5794,0.8209 -0.5179,0.7475 -0.3067,0.3929 -0.5541,0.5887 -0.7401,0.5919 0.068,0.1241 0.2035,0.2596 0.4093,0.4059 0.25,0.1777 0.5284,0.2517 0.8334,0.2228 0.305,-0.0284 0.5451,-0.1659 0.7186,-0.4096 z m -1.9304,-1.4023 0.4859,-0.6832 -0.9346,-0.6647 c -0.1982,-0.1409 -0.4113,-0.1868 -0.637,-0.1338 -0.225,0.0513 -0.4087,0.1777 -0.551,0.3776 -0.1593,0.2239 -0.2038,0.477 -0.1335,0.7591 0.0705,0.2818 0.2239,0.5082 0.4603,0.6761 0.2257,0.1607 0.4643,0.1995 0.716,0.1167 0.2316,-0.0671 0.4292,-0.216 0.5939,-0.4478 z m 0.9176,-1.2901 0.595,-0.837 -0.9346,-0.6648 -0.5953,0.8371 z m 2.988,-2.226 c -0.1052,0.1479 -0.2407,0.2353 -0.4099,0.2596 -0.1673,0.0258 -0.3285,-0.0156 -0.4825,-0.125 -0.1479,-0.1051 -0.2384,-0.2429 -0.2721,-0.4116 -0.0354,-0.1698 9e-4,-0.3277 0.106,-0.4753 0.1052,-0.148 0.2444,-0.2373 0.4221,-0.2671 0.1746,-0.0294 0.3365,0.007 0.4847,0.1126 0.1477,0.1051 0.2359,0.246 0.2653,0.4206 0.0298,0.1778 -0.008,0.3385 -0.1136,0.4862 z m 6.4851,11.2314 c -0.4544,0.709 -1.2546,1.0939 -2.399,1.156 -0.7948,0.0436 -1.6634,-0.2373 -2.6039,-0.8402 -0.9955,-0.6384 -1.6549,-1.3989 -1.9789,-2.2802 -0.3608,-0.9692 -0.2324,-1.9358 0.3836,-2.8967 0.5615,-0.8756 1.3966,-1.3847 2.5064,-1.5245 l 0.1142,0.8308 c -0.4847,0.1007 -0.8476,0.2194 -1.0851,0.3581 -0.3059,0.1683 -0.5751,0.4359 -0.8093,0.8013 -0.9734,1.5185 -0.4853,2.9027 1.4647,4.1528 0.6837,0.4382 1.3379,0.6553 1.9666,0.6559 0.7376,-0.0136 1.3153,-0.3458 1.7315,-0.995 0.2038,-0.318 0.2936,-0.638 0.2639,-0.9595 -0.027,-0.3217 -0.1968,-0.5839 -0.5072,-0.7832 l -0.4189,-0.2684 -0.5426,0.8458 c -0.2724,0.4252 -0.6446,0.6625 -1.118,0.7146 -0.4294,0.0426 -0.8628,-0.0754 -1.3008,-0.356 -0.4646,-0.2979 -0.7721,-0.6642 -0.9252,-1.0976 -0.1602,-0.4785 -0.0964,-0.9419 0.1925,-1.3926 0.3109,-0.485 0.8314,-0.7492 1.5619,-0.7966 l 1.0581,-1.6509 3.6811,2.3602 -0.4391,0.6851 -1.224,-0.7846 -0.5363,0.8362 0.6667,0.4274 c 0.504,0.3229 0.7656,0.7575 0.7815,1.3009 0.0131,0.4753 -0.1482,0.9765 -0.4844,1.5009 z m -2.6119,-2.3635 0.4655,-0.7263 -0.7971,-0.5108 c -0.2441,-0.1564 -0.4938,-0.2211 -0.7472,-0.1899 -0.2523,0.0292 -0.4558,0.1633 -0.6095,0.4028 -0.1525,0.2379 -0.1672,0.4859 -0.0414,0.7444 0.0998,0.222 0.2761,0.415 0.5281,0.5766 0.2129,0.1363 0.4298,0.1754 0.6543,0.117 0.2248,-0.0561 0.4067,-0.1947 0.5473,-0.4138 z m 0.8734,-1.3623 0.536,-0.8366 -0.9448,-0.6057 -0.5363,0.8365 z m 10.4196,6.6546 c -0.3583,0.6993 -0.8649,1.1505 -1.5219,1.3541 -0.658,0.2012 -1.3369,0.1227 -2.0381,-0.2364 l -4.2381,-2.1705 2.3541,-4.5964 0.8309,0.4255 -1.9661,3.8387 2.1767,1.1148 1.9661,-3.8389 1.6736,0.8572 c 0.6313,0.3234 1.0006,0.8005 1.1126,1.4317 0.1009,0.5624 -0.0165,1.169 -0.3498,1.8202 z m -0.7804,-0.3935 c 0.2149,-0.4198 0.3098,-0.8101 0.2801,-1.1704 -0.0445,-0.4306 -0.2631,-0.7464 -0.6563,-0.9479 l -0.8194,-0.4195 -1.5838,3.0926 0.4947,0.2534 c 0.4612,0.2361 0.8977,0.2789 1.3085,0.1255 0.4096,-0.1516 0.7355,-0.464 0.9762,-0.9337 z m 7.3695,1.5866 -1.0777,-0.4873 -1.772,3.9197 -0.8506,-0.3846 1.7722,-3.9195 -1.637,-0.7401 -1.772,3.9197 -0.8608,-0.3894 2.1319,-4.7158 4.426,2.001 z m 7.6091,4.818 c -0.2883,0.7311 -0.7484,1.2294 -1.3825,1.4961 -0.635,0.2645 -1.3184,0.2526 -2.0512,-0.0362 l -4.4297,-1.7468 1.8942,-4.8041 0.8682,0.3424 -1.582,4.0125 2.2751,0.8968 1.582,-4.0124 1.7495,0.69 c 0.6597,0.2602 1.0738,0.6987 1.2467,1.3161 0.1556,0.5499 0.0981,1.165 -0.1703,1.8456 z m -0.815,-0.3155 c 0.1729,-0.4385 0.2293,-0.8365 0.1644,-1.1919 -0.0865,-0.4241 -0.3345,-0.7175 -0.7455,-0.8794 l -0.8564,-0.3378 -1.2747,3.2326 0.5173,0.2038 c 0.4819,0.1902 0.9204,0.1899 1.3145,-0.003 0.3928,-0.191 0.6868,-0.5337 0.8804,-1.0247 z m -0.2889,-4.7758 c -0.0666,0.1687 -0.1797,0.2872 -0.3373,0.3558 -0.1584,0.0703 -0.3183,0.0717 -0.4802,0.008 -0.1686,-0.0666 -0.2871,-0.1797 -0.3534,-0.3427 -0.0672,-0.1613 -0.0689,-0.3249 -0.006,-0.485 0.0638,-0.1619 0.1771,-0.2761 0.339,-0.345 0.163,-0.0663 0.3249,-0.0692 0.485,-0.006 0.1619,0.0638 0.2775,0.1741 0.3473,0.328 0.07,0.1545 0.0725,0.3164 0.005,0.487 z m 18.0329,12.2292 -9.3617,-2.1605 c -0.8824,-0.2038 -1.2458,-0.6429 -1.0896,-1.3193 0.0675,-0.2917 0.2398,-0.4977 0.5193,-0.6193 0.3504,-0.1537 0.8592,-0.1531 1.5282,10e-4 0.0674,0.0153 0.1697,0.0391 0.3044,0.07 0.1352,0.0312 0.2316,0.0536 0.2937,0.0677 0.5524,0.1276 0.9646,0.146 1.2373,0.0553 0.3815,-0.1463 0.6423,-0.5278 0.784,-1.1421 0.0973,-0.4212 0.0219,-0.7937 -0.2276,-1.1182 -0.2384,-0.2991 -0.5712,-0.4969 -1.0015,-0.5962 -0.4612,-0.1065 -0.8339,-0.0464 -1.1199,0.1775 0.129,-9e-4 0.2511,0.0102 0.3659,0.0366 0.2846,0.0657 0.4969,0.2106 0.6356,0.4325 0.1389,0.2225 0.1749,0.4745 0.1091,0.7591 -0.0884,0.3827 -0.2781,0.648 -0.5715,0.7954 -0.2925,0.1455 -0.6355,0.1738 -1.0255,0.0839 -0.4233,-0.0977 -0.7144,-0.2993 -0.8734,-0.6086 -0.1593,-0.3075 -0.1905,-0.672 -0.093,-1.095 0.1386,-0.5998 0.4964,-1.0105 1.0735,-1.2325 0.5091,-0.2072 1.0729,-0.2384 1.6948,-0.0947 0.669,0.1542 1.1849,0.4559 1.5503,0.9032 0.4034,0.498 0.5292,1.0689 0.3804,1.7141 -0.1652,0.7149 -0.5054,1.224 -1.0244,1.5244 -0.5185,0.3011 -1.1333,0.3683 -1.8479,0.2033 l -1.2198,-0.2815 c -0.2698,-0.0624 -0.4252,-0.004 -0.466,0.1729 -0.0298,0.1293 0.0899,0.2262 0.3597,0.2883 l 9.2795,2.1419 z m -7.8928,-5.472 c 0.0304,-0.1312 0.01,-0.2511 -0.0572,-0.3588 -0.0669,-0.1094 -0.1661,-0.1786 -0.2977,-0.2089 -0.1312,-0.0304 -0.2505,-0.0117 -0.3588,0.0572 -0.1077,0.0675 -0.1786,0.1664 -0.2089,0.2977 -0.0281,0.1218 -0.005,0.2386 0.0654,0.3492 0.0729,0.1088 0.1704,0.1774 0.2923,0.2058 0.1225,0.028 0.2401,0.009 0.3532,-0.0567 0.112,-0.0686 0.1834,-0.1636 0.2117,-0.2855 z m 15.3091,6.497 -5.7798,-0.7344 0.6525,-5.1341 0.9726,0.1236 -0.5346,4.2077 4.8072,0.6109 z m 9.4915,-1.8136 c -0.0646,0.8487 -0.3401,1.5072 -0.826,1.9769 -0.5045,0.4927 -1.1721,0.7061 -2.0061,0.6429 -0.4064,-0.0312 -0.7384,-0.182 -0.9898,-0.4544 -0.2514,-0.2724 -0.3637,-0.5978 -0.3351,-0.9748 l 0.1814,-2.3825 c 0.0222,-0.2911 -0.0714,-0.5423 -0.2803,-0.7569 -0.2089,-0.2129 -0.4626,-0.3316 -0.7614,-0.3543 -0.5482,-0.0417 -1.0054,0.0961 -1.3691,0.4119 -0.3637,0.3157 -0.5709,0.7483 -0.6202,1.2982 0.356,-0.3126 0.7642,-0.4524 1.2288,-0.4169 0.5091,0.0385 0.8977,0.2389 1.1628,0.5989 0.2434,0.328 0.3461,0.7543 0.3061,1.2804 -0.0383,0.5035 -0.2307,0.8887 -0.5737,1.1554 -0.345,0.2665 -0.7722,0.3802 -1.2836,0.3413 -0.6752,-0.0513 -1.1622,-0.3566 -1.4592,-0.9178 -0.2478,-0.4692 -0.3453,-1.0619 -0.2912,-1.7765 0.072,-0.944 0.3739,-1.6546 0.9037,-2.1325 0.5298,-0.4777 1.2657,-0.6806 2.2079,-0.6089 0.7464,0.0567 1.2521,0.3129 1.518,0.7668 0.1961,0.3319 0.2696,0.8234 0.22,1.4765 -0.012,0.1565 -0.0375,0.3895 -0.0757,0.6976 -0.0406,0.3107 -0.0647,0.5321 -0.0749,0.6645 -0.03,0.3934 -0.002,0.6885 0.0865,0.8847 0.1003,0.2367 0.3078,0.3668 0.6213,0.3909 0.472,0.0357 0.8584,-0.1562 1.1586,-0.5763 0.2483,-0.3529 0.3906,-0.7716 0.4277,-1.2586 0.0366,-0.4796 -0.0377,-0.911 -0.2219,-1.2966 -0.2274,-0.4453 -0.5636,-0.6828 -1.0117,-0.7168 -0.2441,-0.0187 -0.4686,0.047 -0.6789,0.1961 l 0.0754,-0.9927 c 0.1905,-0.01 0.3999,-0.005 0.6276,0.0122 0.7704,0.0587 1.3391,0.3552 1.7093,0.8901 0.3435,0.4912 0.4841,1.1364 0.4237,1.9312 z m -5.1474,0.817 c 0.0187,-0.2446 -0.0496,-0.4561 -0.2066,-0.6389 -0.1551,-0.1806 -0.3558,-0.2821 -0.5984,-0.3005 -0.2441,-0.0187 -0.4561,0.0496 -0.6381,0.2007 -0.1803,0.1516 -0.2821,0.354 -0.3013,0.606 -0.0179,0.2347 0.0544,0.4451 0.2134,0.6259 0.1602,0.1831 0.3575,0.2826 0.5942,0.3005 0.2352,0.0178 0.447,-0.0525 0.6318,-0.2129 0.1868,-0.1604 0.2877,-0.3535 0.305,-0.5808 z m 2.3944,-5.3068 c -0.013,0.1738 -0.0839,0.3144 -0.216,0.4227 -0.1301,0.1083 -0.286,0.1565 -0.4668,0.1429 -0.1642,-0.0128 -0.3053,-0.0834 -0.423,-0.2107 -0.1162,-0.127 -0.1686,-0.2772 -0.1553,-0.4507 0.0133,-0.1734 0.0862,-0.318 0.2171,-0.4357 0.1324,-0.1156 0.2849,-0.168 0.4564,-0.155 0.1809,0.0139 0.3274,0.087 0.4394,0.2174 0.1139,0.1327 0.1621,0.288 0.1482,0.4691 z m 21.0283,6.7108 -9.58,0.7288 c -0.9031,0.0686 -1.3807,-0.2424 -1.4335,-0.9346 -0.0226,-0.2982 0.0805,-0.5465 0.3113,-0.7458 0.2883,-0.2512 0.7741,-0.4025 1.459,-0.4544 0.0689,-0.005 0.1734,-0.0133 0.3115,-0.0238 0.138,-0.0105 0.2367,-0.0179 0.3005,-0.0227 0.5652,-0.0431 0.9643,-0.1485 1.1973,-0.3163 0.3206,-0.2535 0.4558,-0.6954 0.4079,-1.3241 -0.0326,-0.4309 -0.2157,-0.7642 -0.5507,-0.9992 -0.3164,-0.2146 -0.6931,-0.3042 -1.1336,-0.2707 -0.472,0.036 -0.8099,0.2044 -1.016,0.5034 0.1225,-0.0394 0.2427,-0.0655 0.36,-0.0743 0.2914,-0.0221 0.5372,0.0531 0.7359,0.2234 0.1984,0.1709 0.3081,0.4008 0.3303,0.692 0.0297,0.3917 -0.0723,0.7015 -0.3082,0.9297 -0.2361,0.2259 -0.555,0.3555 -0.9541,0.3858 -0.4329,0.0329 -0.771,-0.0726 -1.0151,-0.3206 -0.2438,-0.246 -0.3821,-0.5845 -0.415,-1.0173 -0.0468,-0.614 0.1724,-1.1126 0.6571,-1.4967 0.424,-0.3495 0.953,-0.5471 1.5894,-0.5956 0.6845,-0.0522 1.2671,0.0819 1.7492,0.4 0.5335,0.3552 0.8238,0.8623 0.8739,1.5227 0.0556,0.7314 -0.1173,1.3187 -0.5229,1.7604 -0.4054,0.4419 -0.9723,0.6896 -1.7034,0.7452 l -1.2484,0.095 c -0.2761,0.0209 -0.407,0.123 -0.3931,0.3038 0.01,0.1324 0.153,0.1891 0.4291,0.1681 l 9.4961,-0.7222 z m -9.1653,-2.8701 c -0.0102,-0.1344 -0.0655,-0.2426 -0.1616,-0.3254 -0.0963,-0.0845 -0.2117,-0.1211 -0.3463,-0.1108 -0.1341,0.0102 -0.2427,0.0637 -0.3255,0.1618 -0.0827,0.0964 -0.1207,0.212 -0.1105,0.3461 0.009,0.125 0.0663,0.2296 0.1664,0.3141 0.102,0.0819 0.2154,0.1185 0.3404,0.1091 0.1253,-0.01 0.2319,-0.0629 0.3203,-0.1593 0.0862,-0.0986 0.1265,-0.2106 0.1168,-0.3356 z m 16.7403,-0.2537 c 0.2903,2.285 -0.6959,3.5926 -2.9571,3.9198 -0.1706,0.0218 -0.5031,0.064 -0.995,0.1264 -0.4623,0.0589 -0.8518,0.1837 -1.169,0.375 -0.4203,0.2534 -0.6057,0.5749 -0.5558,0.9683 l 0.0462,0.364 -0.8666,0.11 -0.0524,-0.4122 c -0.0627,-0.4938 0.1066,-0.9414 0.5077,-1.347 0.4011,-0.4054 1.0936,-0.671 2.0792,-0.7963 0.1168,-0.0147 0.2843,-0.032 0.5045,-0.0524 0.2118,-0.0269 0.3637,-0.0465 0.4584,-0.0584 1.6648,-0.2115 2.3822,-1.2158 2.154,-3.0124 -0.1896,-1.4921 -0.7616,-2.1795 -1.7158,-2.0585 -0.3268,0.0417 -0.5737,0.1766 -0.7407,0.4054 -0.1655,0.2264 -0.2259,0.5079 -0.1834,0.8435 l 0.4085,3.2131 -0.9615,0.1222 -0.4708,-3.7049 c -0.0437,-0.3433 -0.2345,-0.4944 -0.5704,-0.4518 -0.3191,0.0405 -0.4552,0.2616 -0.4048,0.6587 l 0.4604,3.6233 -0.8909,0.1134 -0.4856,-3.822 c -0.0536,-0.4212 0.0499,-0.7645 0.3107,-1.0278 0.2375,-0.2526 0.5709,-0.4062 1.0014,-0.4609 0.4768,-0.0607 0.8921,0.045 1.2439,0.3189 0.4204,-0.3719 0.8164,-0.5809 1.182,-0.6273 1.5239,-0.1937 2.4123,0.697 2.6629,2.6699 z m -3.4577,-4.4266 c 0.0249,0.1948 -0.0142,0.362 -0.1208,0.5037 -0.1048,0.1395 -0.2508,0.2226 -0.4382,0.2464 -0.2041,0.0258 -0.3739,-0.0168 -0.5102,-0.1259 -0.1367,-0.1108 -0.218,-0.2625 -0.243,-0.4575 -0.0238,-0.1874 0.0216,-0.3498 0.1344,-0.4867 0.1145,-0.1372 0.2645,-0.2186 0.4521,-0.2424 0.18,-0.0229 0.3402,0.0207 0.4805,0.1296 0.1417,0.1083 0.2222,0.2525 0.2452,0.4328 z m 11.2581,2.9872 c 0.4051,2.2674 -0.5142,3.6232 -2.7561,4.0634 -0.1696,0.0304 -0.4992,0.0893 -0.9874,0.1763 -0.4586,0.082 -0.8416,0.2265 -1.1485,0.4332 -0.4074,0.2744 -0.5763,0.6049 -0.5066,0.9952 l 0.0643,0.3612 -0.86,0.1536 -0.0728,-0.409 c -0.0876,-0.4902 0.0592,-0.9457 0.4393,-1.3709 0.3802,-0.4252 1.0582,-0.7251 2.0364,-0.9 0.116,-0.0207 0.2824,-0.0462 0.5012,-0.0779 0.2101,-0.0374 0.3611,-0.0644 0.4547,-0.0811 1.6523,-0.2951 2.3182,-1.334 1.9998,-3.117 -0.2644,-1.4808 -0.8702,-2.1384 -1.817,-1.9695 -0.3243,0.0578 -0.5641,0.2052 -0.7191,0.4419 -0.1539,0.2347 -0.2004,0.5188 -0.1409,0.8518 l 0.5695,3.1887 -0.9542,0.1704 -0.6565,-3.6765 c -0.0609,-0.3408 -0.2588,-0.4822 -0.5924,-0.4227 -0.3166,0.0564 -0.4417,0.2841 -0.3711,0.6781 l 0.6421,3.5957 -0.8842,0.1579 -0.6771,-3.7928 c -0.0749,-0.4178 0.0113,-0.7659 0.2588,-1.042 0.2242,-0.2642 0.5493,-0.4345 0.9768,-0.5108 0.4731,-0.0844 0.8932,3e-4 1.2583,0.256 0.4011,-0.3926 0.786,-0.6211 1.1489,-0.686 1.5122,-0.2698 2.4443,0.5749 2.7938,2.5328 z m 7.6289,-1.9233 c 0.2069,0.729 0.0371,1.3702 -0.5094,1.9261 -0.4445,0.455 -1.0568,0.7923 -1.8377,1.014 -1.0908,0.3098 -2.0373,0.1896 -2.8406,-0.3586 -0.7444,-0.5179 -1.2739,-1.3283 -1.5877,-2.4336 -0.7112,-2.5055 0.1803,-4.1125 2.6731,-4.8203 0.6658,-0.1891 1.2631,-0.2106 1.7861,-0.0657 0.6324,0.1785 1.0377,0.5788 1.2138,1.1982 0.1287,0.4532 0.0768,0.8532 -0.1568,1.2016 -0.2336,0.3483 -0.5797,0.5884 -1.0423,0.72 -0.4391,0.1247 -0.8422,0.0893 -1.209,-0.1063 -0.3665,-0.1951 -0.6122,-0.5125 -0.737,-0.9516 -0.1204,-0.4249 -0.0757,-0.8422 0.1344,-1.2541 l -0.0794,0.0227 c -1.7251,0.4725 -2.2753,1.8094 -1.6512,4.0071 0.256,0.9017 0.6923,1.5344 1.3077,1.9003 0.6156,0.366 1.3742,0.421 2.2756,0.165 l 0.0811,-0.0233 c -0.5769,-0.2446 -0.9323,-0.5986 -1.0636,-1.0613 -0.1462,-0.5147 -0.1102,-0.9703 0.1106,-1.364 0.2185,-0.3943 0.591,-0.6653 1.1129,-0.8135 0.479,-0.1361 0.8997,-0.1058 1.2665,0.0895 0.3659,0.1937 0.6174,0.531 0.7529,1.0078 z m -0.7997,0.2525 c -0.0649,-0.2287 -0.1981,-0.3971 -0.4025,-0.5062 -0.203,-0.1117 -0.419,-0.1341 -0.646,-0.0695 -0.2194,0.0624 -0.3847,0.1928 -0.4969,0.3937 -0.1109,0.199 -0.1341,0.4116 -0.0692,0.6404 0.0601,0.212 0.1922,0.375 0.3971,0.4881 0.2041,0.1154 0.4119,0.1418 0.6245,0.0814 0.2268,-0.0644 0.3988,-0.197 0.5131,-0.3986 0.1162,-0.2004 0.1423,-0.4099 0.0799,-0.6293 z m -1.078,-3.6249 c -0.0581,-0.2052 -0.1885,-0.3628 -0.3872,-0.4737 -0.1993,-0.1125 -0.4048,-0.138 -0.6174,-0.0777 -0.2123,0.0604 -0.3745,0.188 -0.4878,0.3839 -0.1117,0.197 -0.1375,0.4008 -0.0771,0.6131 0.0623,0.2197 0.193,0.3847 0.3917,0.4955 0.2004,0.1105 0.4065,0.1375 0.6188,0.0771 0.2126,-0.0604 0.373,-0.1933 0.483,-0.3957 0.11,-0.2024 0.1358,-0.4119 0.076,-0.6225 z m 8.9651,3.1592 -4.8475,1.6401 -1.6588,-4.9022 0.9289,-0.3144 1.3745,4.0621 3.0447,-1.0301 -1.3742,-4.0621 0.8736,-0.2956 z m 4.8464,-6.4684 -1.1004,0.434 1.5781,4.0017 -0.8686,0.3424 -1.5777,-4.0017 -1.6711,0.6588 1.5778,4.0017 -0.879,0.3466 -1.8984,-4.8149 4.5187,-1.7816 z m 10.3856,1.008 -1.9383,0.8762 c -0.2974,1.1775 -1.1637,2.0908 -2.6011,2.7408 -0.5097,0.2305 -0.9814,0.341 -1.4187,0.3314 -0.5664,-0.0128 -0.9505,-0.2395 -1.1515,-0.6846 -0.2236,-0.4943 0.0618,-0.9215 0.8598,-1.2821 l 3.5203,-1.565 c 0.0309,-0.445 -0.057,-0.898 -0.265,-1.3583 -0.1497,-0.3309 -0.3824,-0.5644 -0.6993,-0.7025 -0.3172,-0.1377 -0.6373,-0.1329 -0.961,0.0136 l -0.4195,0.1897 0.3946,0.8728 c 0.1944,0.4297 0.174,0.8617 -0.0624,1.2971 -0.2188,0.3926 -0.5553,0.6928 -1.0071,0.8972 -0.5029,0.2273 -0.9712,0.2908 -1.4054,0.1936 -0.4746,-0.114 -0.8207,-0.4113 -1.0381,-0.8921 -0.2982,-0.6596 -0.1749,-1.2864 0.3708,-1.878 l -0.8133,-1.7988 3.9949,-1.806 0.326,0.7212 -1.5293,0.6913 0.4578,1.0129 0.7007,-0.317 c 0.4944,-0.2233 0.9839,-0.2126 1.4681,0.0366 0.4416,0.2316 0.7781,0.6032 1.0085,1.1129 0.1919,0.4243 0.3013,0.8575 0.33,1.3025 l 0.7534,-0.3138 -2.1906,-4.8455 0.8184,-0.37 z m -2.9937,1.3536 -2.8216,1.2756 c -0.1859,0.0841 -0.2883,0.1346 -0.3075,0.1513 -0.1126,0.0777 -0.1429,0.1695 -0.0944,0.2767 0.0677,0.1502 0.3248,0.1735 0.7696,0.0672 0.2834,-0.0769 0.5661,-0.178 0.8475,-0.3053 0.7382,-0.3337 1.2731,-0.8263 1.6019,-1.4757 z m -2.6277,-1.6784 -0.326,-0.7214 -0.9034,0.4084 c -0.2591,0.1174 -0.4357,0.2812 -0.5292,0.4921 -0.0955,0.2115 -0.085,0.4428 0.0281,0.6934 0.1111,0.2455 0.2967,0.3977 0.5581,0.4623 0.237,0.0655 0.4808,0.0414 0.733,-0.0726 0.5593,-0.2528 0.7053,-0.6743 0.4394,-1.2622 z m -0.6375,-1.4103 -0.4578,-1.0128 -0.796,0.36 0.4578,1.0128 z m 17.5997,-8.9725 c 0.3062,0.4774 0.4423,0.9882 0.408,1.5344 -0.0292,0.61 -0.2739,1.0605 -0.7322,1.3541 -0.1386,0.0888 -0.3229,0.1381 -0.5519,0.1449 l 0.0121,0.0187 c 0.1072,0.167 0.3221,0.2492 0.6492,0.2463 0.292,-0.009 0.5323,-0.0745 0.718,-0.1939 l 0.5434,-0.3347 0.5111,0.7971 c -0.438,0.2806 -0.6988,0.481 -0.7829,0.5995 -0.0814,0.1188 -0.296,0.5431 -0.6435,1.2702 -0.2324,0.4867 -0.54,0.8532 -0.9244,1.0993 -0.4711,0.3021 -0.9833,0.4283 -1.5378,0.3815 -0.6123,-0.0499 -1.0627,-0.2988 -1.3527,-0.7512 l 0.8221,-0.5133 c 0.1576,0.2457 0.3934,0.3923 0.712,0.4416 0.3167,0.0502 0.601,-0.005 0.853,-0.1669 0.2993,-0.1919 0.5383,-0.4919 0.7174,-0.8955 0.2308,-0.5034 0.4045,-0.8215 0.5259,-0.9547 -0.3952,0.0842 -0.779,0.0258 -1.1509,-0.176 -0.3416,-0.1832 -0.6302,-0.4561 -0.8643,-0.8215 -0.4464,-0.6962 -0.5924,-1.3918 -0.4411,-2.0889 l 0.9066,0.1213 c -0.1021,0.3365 -0.0814,0.6188 0.0632,0.8442 0.0847,0.1321 0.197,0.2203 0.3367,0.2616 0.1389,0.04 0.2747,0.0196 0.4071,-0.0652 0.2724,-0.1746 0.3773,-0.4617 0.3177,-0.8637 -0.0456,-0.3175 -0.1649,-0.6278 -0.3608,-0.9334 -0.413,-0.6443 -0.9714,-1.006 -1.6787,-1.0865 -0.6568,-0.0746 -1.3121,0.0992 -1.9692,0.5204 -0.6299,0.4037 -1.0528,0.9125 -1.2657,1.5267 -0.2333,0.6452 -0.1899,1.2952 0.127,1.9523 0.0967,-0.4173 0.3186,-0.7373 0.6633,-0.9584 0.4317,-0.2767 0.8484,-0.3685 1.2538,-0.2773 0.4053,0.0916 0.7463,0.353 1.023,0.7844 0.2716,0.4238 0.3319,0.8475 0.1837,1.2716 -0.1301,0.3832 -0.4133,0.7138 -0.8513,0.9944 -0.5371,0.3444 -1.0825,0.3852 -1.6341,0.121 -0.4595,-0.2213 -0.872,-0.6148 -1.2385,-1.1865 -0.5564,-0.868 -0.7154,-1.7507 -0.4739,-2.6431 0.2384,-0.8552 0.7956,-1.5636 1.6716,-2.1251 0.8158,-0.523 1.6973,-0.777 2.6464,-0.7631 0.949,0.0139 1.7436,0.5179 2.3816,1.5134 z m -3.4117,3.2828 c -0.1231,-0.1919 -0.2968,-0.3138 -0.5208,-0.3617 -0.2222,-0.0484 -0.4297,-0.011 -0.6219,0.1123 -0.1919,0.123 -0.3109,0.2948 -0.358,0.5159 -0.0453,0.2202 -0.006,0.4283 0.1176,0.6202 0.1191,0.186 0.2889,0.3019 0.5091,0.347 0.222,0.0448 0.425,0.008 0.6109,-0.1114 0.1922,-0.1231 0.3147,-0.2929 0.3674,-0.5089 0.0541,-0.2168 0.019,-0.4209 -0.1043,-0.6134 z m 10.5176,-10.7532 -0.8282,0.5888 2.5752,3.6215 -0.7319,0.5204 -2.5753,-3.6215 -1.1848,0.8425 2.5752,3.6218 -0.7517,0.5343 -1.6914,-2.3785 c -0.3014,-0.4241 -0.6495,-0.6585 -1.0452,-0.7081 -0.396,-0.0468 -0.8084,0.0839 -1.2384,0.3894 -0.4437,0.3155 -0.7129,0.7022 -0.8065,1.1614 -0.0947,0.4575 0.0153,0.9094 0.33,1.3518 0.0527,-0.5105 0.2823,-0.9104 0.6865,-1.1976 0.4102,-0.2917 0.8158,-0.4056 1.2155,-0.341 0.3994,0.0675 0.7421,0.301 1.0273,0.7021 0.309,0.4346 0.409,0.8757 0.3039,1.3247 -0.1055,0.449 -0.3765,0.83 -0.8127,1.1401 -0.5596,0.398 -1.1418,0.4606 -1.7496,0.1902 -0.4912,-0.2291 -0.9513,-0.6435 -1.3796,-1.2459 -0.4413,-0.6205 -0.6015,-1.2755 -0.485,-1.9669 0.1179,-0.69 0.4918,-1.2589 1.1214,-1.7068 0.3659,-0.2602 0.6772,-0.4331 0.9354,-0.5181 0.3538,-0.116 0.7115,-0.1134 1.078,0.005 l -0.362,-0.5091 3.3699,-2.3964 z m -3.0642,5.703 c -0.1466,-0.2058 -0.3407,-0.3274 -0.5862,-0.3659 -0.2458,-0.0389 -0.4666,0.0124 -0.6662,0.1545 -0.1981,0.1408 -0.3152,0.3319 -0.3461,0.572 -0.0329,0.2415 0.0216,0.4601 0.1636,0.6596 0.1366,0.1922 0.324,0.3141 0.5629,0.3623 0.2359,0.0479 0.4559,0.002 0.654,-0.1392 0.1996,-0.142 0.3186,-0.3368 0.3614,-0.5831 0.042,-0.2477 -0.007,-0.468 -0.1434,-0.6602 z m 14.4116,-9.811 -1.8485,1.6013 c 0.003,0.3515 0.0695,0.6032 0.1979,0.7515 0.1593,0.184 0.3348,0.292 0.5221,0.3229 0.1877,0.0306 0.3742,0.0572 0.5633,0.0813 l -0.2126,0.8575 c -0.0156,-0.006 -0.038,-0.009 -0.0661,-0.005 -0.3622,-0.0207 -0.627,-0.0584 -0.7974,-0.1089 -0.233,-0.0779 -0.449,-0.2302 -0.6448,-0.4564 -0.2489,-0.2871 -0.362,-0.5434 -0.3388,-0.771 l -2.287,1.9809 -0.5808,-0.6704 c 0.036,-0.0187 0.0822,-0.0539 0.1417,-0.1055 0.2983,-0.2582 0.3977,-0.5893 0.298,-0.9932 -0.0729,-0.313 -0.2503,-0.6322 -0.5344,-0.9601 -0.4229,-0.4882 -0.8841,-0.7521 -1.3802,-0.7901 -0.4974,-0.0371 -0.9901,0.1545 -1.4779,0.5769 -0.3932,0.3407 -0.6503,0.7614 -0.7694,1.2608 -0.1397,0.559 -0.051,1.0242 0.2688,1.3933 0.0351,-0.4167 0.1958,-0.7484 0.4813,-0.9958 0.3634,-0.315 0.75,-0.4516 1.1596,-0.413 0.4099,0.0388 0.7733,0.2437 1.0919,0.6114 0.3294,0.3804 0.4794,0.7852 0.4513,1.2155 -0.0295,0.4291 -0.2344,0.8096 -0.6151,1.1392 -0.4708,0.4079 -0.9865,0.5327 -1.5508,0.3753 -0.4814,-0.1352 -0.9363,-0.449 -1.3638,-0.9425 -0.6332,-0.7313 -0.9079,-1.4737 -0.8192,-2.2263 0.0919,-0.7254 0.5068,-1.4066 1.245,-2.0461 0.6494,-0.5621 1.3068,-0.8348 1.974,-0.8186 0.6673,0.0187 1.2753,0.3461 1.8278,0.9839 0.5426,0.6265 0.7951,1.1951 0.7597,1.7056 l 1.7861,-1.5469 c -1.0871,-0.0635 -1.9006,-0.4082 -2.4446,-1.0363 -0.409,-0.4723 -0.5984,-0.9595 -0.5658,-1.465 0.0318,-0.5031 0.2835,-0.9586 0.7546,-1.3665 0.3152,-0.2733 0.726,-0.3419 1.2305,-0.2024 0.4524,0.1108 0.8212,0.3336 1.1115,0.6687 0.616,0.7115 0.8317,1.5916 0.6474,2.6421 -0.009,0.0377 -0.0238,0.0927 -0.0462,0.1642 l 1.2501,-1.0832 z m -6.7297,3.782 c -0.1605,-0.1851 -0.3561,-0.2885 -0.5891,-0.3115 -0.2333,-0.0235 -0.4396,0.0439 -0.6179,0.1984 -0.178,0.1542 -0.2744,0.349 -0.2843,0.5831 -0.0105,0.2339 0.0623,0.4433 0.2228,0.6287 0.1496,0.1727 0.3418,0.2659 0.574,0.2824 0.2333,0.0184 0.4371,-0.0494 0.6097,-0.1987 0.1726,-0.1497 0.2673,-0.3405 0.2838,-0.5755 0.017,-0.2319 -0.0496,-0.4343 -0.199,-0.6069 z m 3.7726,-5.5352 c -0.5267,-0.608 -0.991,-0.7356 -1.3955,-0.3855 -0.2446,0.212 -0.3569,0.4654 -0.3396,0.7622 0.017,0.2971 0.1338,0.5723 0.3507,0.8226 0.2106,0.243 0.4969,0.4335 0.8557,0.5704 0.1744,0.0697 0.5074,0.1599 1.0018,0.2735 0.0819,-0.3509 0.0791,-0.7143 -0.005,-1.0891 -0.0845,-0.375 -0.2409,-0.6925 -0.4677,-0.9541 z m 7.2303,-4.7863 c 0.5755,0.5488 0.8462,1.1869 0.8144,1.9117 -0.0346,0.7245 -0.4549,1.5179 -1.2639,2.3777 l -0.3436,0.3603 c -0.652,0.6837 -0.9694,1.2526 -0.9522,1.7033 0.005,0.2446 0.1024,0.4567 0.292,0.6375 l 0.1624,0.1551 -0.5629,0.5902 -0.2058,-0.1962 c -0.451,-0.4297 -0.612,-0.9635 -0.4828,-1.6033 0.1154,-0.5439 0.4037,-1.0522 0.8674,-1.525 l 0.938,-0.9675 c 0.2271,-0.2381 0.4085,-0.5561 0.5409,-0.9524 0.1321,-0.3963 0.1701,-0.7529 0.1119,-1.0693 -0.0515,-0.2871 -0.2157,-0.5655 -0.4957,-0.8325 -0.2169,-0.2066 -0.4621,-0.337 -0.7359,-0.3915 -0.3138,-0.0586 -0.5689,0.0137 -0.7654,0.2195 l -0.4892,0.5133 c 0.0567,0.0541 0.1528,0.1378 0.2826,0.2512 0.1298,0.1162 0.2234,0.2052 0.2832,0.2698 0.4847,0.4623 0.7007,0.9136 0.6488,1.3558 -0.0672,0.4581 -0.2551,0.8504 -0.5649,1.1753 -0.4235,0.4442 -0.8635,0.6939 -1.319,0.7486 -0.4892,0.0581 -0.953,-0.1227 -1.3929,-0.5423 -0.4162,-0.3965 -0.5502,-0.928 -0.4048,-1.5959 l -1.419,-1.353 2.9761,-3.1212 0.6066,0.5783 -0.9709,1.0185 0.7013,0.6687 0.6199,-0.65 c 0.3436,-0.3603 0.7745,-0.4924 1.2952,-0.3988 0.4428,0.0833 0.8518,0.3052 1.2282,0.6641 z m -2.575,2.1336 -0.5983,-0.5706 -0.7501,0.7869 c -0.1848,0.1936 -0.2829,0.4102 -0.2928,0.6514 -0.0116,0.2401 0.0768,0.4482 0.265,0.6276 0.2004,0.1911 0.4496,0.2605 0.7498,0.2087 0.265,-0.0502 0.4989,-0.1815 0.7001,-0.3926 0.4133,-0.4335 0.3881,-0.8709 -0.0737,-1.3114 z m -1.1712,-1.1165 -0.7013,-0.669 -0.8484,0.8898 0.7015,0.669 z m 8.784,-8.7066 c 0.5941,0.5145 0.9116,1.114 0.9527,1.8005 0.0388,0.6871 -0.1993,1.3278 -0.7149,1.9231 l -3.1175,3.5991 -3.9036,-3.3809 0.6111,-0.7055 3.2601,2.8236 1.601,-1.8485 -3.2598,-2.8236 1.2311,-1.4216 c 0.4643,-0.536 1.0156,-0.7812 1.6551,-0.7392 0.5707,0.0357 1.1316,0.2942 1.6847,0.773 z m -0.5681,0.6641 c -0.3563,-0.3087 -0.7129,-0.4938 -1.0701,-0.5505 -0.4286,-0.0592 -0.7874,0.0774 -1.0766,0.4113 l -0.6029,0.6959 2.6266,2.2751 0.364,-0.4203 c 0.3393,-0.3915 0.4847,-0.8054 0.4334,-1.2408 -0.0496,-0.4342 -0.2753,-0.8251 -0.6744,-1.1707 z m -4.6012,-1.3121 c 0.1372,0.1187 0.2115,0.2647 0.2237,0.4362 0.0139,0.1729 -0.0377,0.324 -0.1517,0.4555 -0.1188,0.1372 -0.2647,0.2112 -0.4408,0.22 -0.1743,0.01 -0.3291,-0.0431 -0.4592,-0.1556 -0.1315,-0.114 -0.2015,-0.2585 -0.2129,-0.4343 -0.009,-0.1757 0.0425,-0.3294 0.1554,-0.4595 0.1139,-0.1315 0.2562,-0.2041 0.4246,-0.2188 0.1689,-0.0147 0.3223,0.0366 0.4609,0.1565 z" style="fill:#565757;fill-rule:evenodd" id="path19"></path>
		<path d="m 297.6378,294.2195 c 69.3961,0 125.653,56.2569 125.653,125.653 0,69.3961 -56.2569,125.6531 -125.653,125.6531 -69.3961,0 -125.653,-56.257 -125.653,-125.6531 0,-69.3961 56.2569,-125.653 125.653,-125.653 z" style="fill:none" id="path21"></path>
		<path d="m 188.8191,482.6993 c -11.0284,-19.1021 -16.8343,-40.7701 -16.8343,-62.8268 0,-69.3961 56.2569,-125.653 125.653,-125.653 69.3961,0 125.653,56.2569 125.653,125.653 0,22.0567 -5.8059,43.7247 -16.8344,62.8268" style="fill:none;stroke:#5fc2bb;stroke-width:2.0001;stroke-linecap:butt;stroke-linejoin:miter;stroke-dasharray:none" id="path23"></path>
	</g>
</svg>