<svg version="1.1" id="svg20" sodipodi:docname="Logo_SN_Final_Crv.cdr" xmlns:inkscape="http://www.inkscape.org/namespaces/inkscape" xmlns:sodipodi="http://sodipodi.sourceforge.net/DTD/sodipodi-0.dtd" xmlns="http://www.w3.org/2000/svg" xmlns:svg="http://www.w3.org/2000/svg" viewBox="183.58 278.99 228.11 283.91">   <defs id="defs24"></defs>   <sodipodi:namedview id="namedview22" pagecolor="#ffffff" bordercolor="#000000" borderopacity="0.25" inkscape:showpageshadow="2" inkscape:pageopacity="0.0" inkscape:pagecheckerboard="0" inkscape:deskcolor="#d1d1d1" inkscape:document-units="pt"></sodipodi:namedview>   <path d="m 298.1188,278.9919 c -22.4405,49.1143 -61.3068,85.6757 -9.6202,135.9943 -36.5605,-50.9374 -0.3664,-86.8064 9.6202,-114.9164 9.9866,28.11 46.1806,63.979 9.6202,114.9164 51.2315,-49.8758 13.3503,-85.7198 -9.6202,-135.9943 z" style="fill:#5fc2bb;fill-rule:evenodd" id="path2"></path>   <path d="m 307.739,414.9862 h -19.2404 c -36.5605,-50.9374 -0.3664,-86.8064 9.6202,-114.9164 9.9866,28.11 46.1806,63.979 9.6202,114.9164 z" style="fill:none" id="path4"></path>   <path d="m 399.3179,423.674 v 4e-4 c -34.2242,15.633 -58.4013,43.3457 -93.8152,6.9684 35.7285,25.6442 60.7108,-0.601 80.2466,-6.9684 -19.5358,-6.3674 -44.5181,-32.613 -80.2466,-6.9688 35.4144,-36.3778 59.5906,-8.6646 93.8152,6.9684 z" style="fill:#5fc2bb;fill-rule:evenodd" id="path6"></path>   <path d="m 293.3161,369.4035 h 8.173 l -4.0865,107.5361 z" style="fill:#5fc2bb;fill-rule:evenodd" id="path8"></path>   <path d="m 297.4025,353.9974 c 2.9846,0 5.404,2.4196 5.404,5.4039 0,2.9843 -2.4194,5.404 -5.404,5.404 -2.9843,0 -5.4037,-2.4197 -5.4037,-5.404 0,-2.9843 2.4194,-5.4039 5.4037,-5.4039 z" style="fill:#5fc2bb;fill-rule:evenodd" id="path10"></path>   <path d="m 296.1097,444.5041 0.3824,9.8966 c 0,0 -2.0812,4.5875 0.1698,11.511 2.251,6.9235 3.1009,8.5388 2.591,13.8057 -0.5098,5.2668 -1.6143,12.6568 -1.6143,12.6568 0,0 1.2743,-15.036 -0.8495,-20.5577 -2.1239,-5.5218 -4.7763,-13.8368 -3.8227,-18.8169 0.9536,-4.9801 3.1433,-8.4955 3.1433,-8.4955 z m -10.5073,-65.9226 c 0,0 7.3627,-5.6916 13.0543,-1.9537 5.6916,3.7379 10.194,11.9778 7.3907,18.604 -2.8033,6.6263 -5.9465,8.4101 -5.9465,8.4101 l 0.1698,-14.6115 c 0,0 -0.2549,-2.6334 -3.3131,-2.0388 -3.0582,0.5946 -8.0129,-0.2549 -9.6841,-2.8883 -1.6711,-2.6334 -1.6711,-5.5218 -1.6711,-5.5218 z m 8.002,-0.3801 c 0.6334,0 1.1468,0.5134 1.1468,1.1468 0,0.6335 -0.5134,1.1469 -1.1468,1.1469 -0.6335,0 -1.1469,-0.5134 -1.1469,-1.1469 0,-0.6334 0.5134,-1.1468 1.1469,-1.1468 z m 1.3995,22.0423 0.34,12.9976 c 0,0 9.2593,8.07 8.6647,16.0554 -0.5946,7.9853 -5.097,16.2258 -5.097,16.2258 l 0.0848,-17.3297 c 0,0 -1.3588,-3.0578 -4.3319,-7.2205 -2.9731,-4.1627 -6.2435,-7.2636 -4.842,-13.125 1.4015,-5.8614 5.1814,-7.6036 5.1814,-7.6036 z" style="fill:#565757;fill-rule:evenodd" id="path12"></path>   <path d="m 191.4333,543.2253 c 2.1736,0 4.4705,-0.3694 6.5211,-1.6816 2.9528,-1.9278 3.8551,-4.7576 3.8551,-7.1365 0,-3.8962 -1.7635,-6.726 -6.7261,-10.4584 l -1.1483,-0.8611 c -3.4041,-2.5838 -4.3475,-4.0193 -4.3475,-5.906 0,-2.4608 1.8457,-4.2245 4.8807,-4.2245 2.6657,0 3.8551,1.2305 4.4703,2.0098 0.8614,1.0664 1.0663,2.3377 1.0663,2.7068 0,0.4923 0.1231,0.7384 0.4102,0.7384 0.3283,0 0.4513,-0.3283 0.4513,-1.2305 0,-3.1989 0.1638,-4.3883 0.1638,-4.9215 0,-0.2872 -0.2049,-0.4102 -0.574,-0.4924 -1.0664,-0.2869 -2.789,-0.6971 -5.4547,-0.6971 -5.701,0 -9.4742,3.24 -9.4742,7.7514 0,3.3222 1.5585,6.1931 6.0701,9.7203 l 1.8864,1.4765 c 3.4042,2.6657 4.0193,4.5525 4.0193,6.5622 0,2.1736 -1.8045,4.6755 -5.4955,4.6755 -2.543,0 -4.9627,-1.1075 -5.8652,-4.1426 -0.205,-0.697 -0.3691,-1.5584 -0.3691,-2.0916 0,-0.328 -0.0408,-0.6971 -0.4102,-0.6971 -0.3279,0 -0.4509,0.451 -0.492,1.0664 -0.0411,0.6562 -0.205,3.117 -0.205,5.3728 0,0.9023 0.123,1.1072 0.7793,1.3944 1.7634,0.7792 3.609,1.0664 5.9879,1.0664 z m 26.5765,-2.5019 c 0.7792,1.9276 1.0253,2.5019 1.5585,2.5019 0.5743,0 0.8203,-0.6563 1.8867,-3.0351 0.9023,-2.0506 2.8298,-6.5211 5.4547,-12.509 2.2147,-5.0448 3.3222,-7.2595 4.9215,-11.1146 1.1075,-2.6249 1.7226,-3.3223 2.2558,-3.6913 0.7384,-0.4921 1.5996,-0.4921 2.0098,-0.4921 0.4102,0 0.6562,-0.0822 0.6562,-0.3691 0,-0.2871 -0.3282,-0.3693 -0.8614,-0.3693 -1.2303,0 -3.1578,0.123 -3.8552,0.123 -0.5332,0 -2.2558,-0.123 -4.3064,-0.123 -0.7792,0 -1.1483,0.0822 -1.1483,0.4101 0,0.2872 0.328,0.3283 0.6971,0.3283 0.5332,0 1.1486,0.0408 1.6407,0.2049 0.369,0.123 0.5332,0.4513 0.5332,0.7793 0,0.369 -0.1642,0.9844 -0.3694,1.5176 -0.9842,2.7068 -6.3159,15.9132 -8.0796,20.4245 h -0.1638 l -7.0543,-18.6199 c -0.5743,-1.4766 -0.9434,-2.6249 -0.9434,-3.1581 0,-0.3691 0.123,-0.6562 0.4102,-0.8612 0.3279,-0.2463 0.9431,-0.2871 1.5993,-0.2871 0.3693,0 0.6154,-0.0822 0.6154,-0.3691 0,-0.2871 -0.4513,-0.3693 -0.9434,-0.3693 -2.0506,0 -4.0192,0.123 -5.0445,0.123 -1.4355,0 -3.7735,-0.123 -5.9471,-0.123 -0.6151,0 -1.0664,0.0411 -1.0664,0.3693 0,0.2461 0.123,0.3691 0.4924,0.3691 0.3279,0 0.9842,0 1.5993,0.1641 1.4766,0.4099 2.1739,0.8612 3.117,3.117 z m 50.1185,2.5019 c 2.6249,0 5.7418,-0.2872 7.3825,-0.9434 0.6971,-0.2872 0.8612,-0.4921 1.0661,-1.1894 0.4102,-1.3944 0.9026,-4.9626 0.9026,-5.4547 0,-0.3283 -0.0822,-0.6154 -0.3694,-0.6154 -0.3279,0 -0.4101,0.1641 -0.5332,0.8203 -0.1638,0.7384 -0.697,1.9276 -1.3943,2.7068 -1.6404,1.8868 -3.8551,2.2969 -7.5053,2.2969 -5.4958,0 -12.9195,-4.8396 -12.9195,-14.6007 0,-3.9784 0.7793,-7.8746 3.7735,-10.6225 1.8045,-1.6404 4.1423,-2.543 7.7105,-2.543 3.7732,0 6.9721,1.1075 8.3257,2.543 1.0253,1.0664 1.5585,2.5018 1.5996,3.7732 0,0.5743 0.0819,0.9022 0.4098,0.9022 0.3694,0 0.4513,-0.3279 0.4924,-0.9433 0.0819,-0.8201 0.0408,-3.0759 0.123,-4.4294 0.082,-1.4355 0.205,-1.9276 0.205,-2.2556 0,-0.2463 -0.1641,-0.4512 -0.6151,-0.4923 -1.2305,-0.1231 -2.543,-0.4921 -4.1015,-0.6971 -1.8864,-0.246 -3.4041,-0.4102 -5.9468,-0.4102 -6.1109,0 -10.0074,1.6404 -12.9603,4.3475 -3.9373,3.6091 -4.7985,8.4487 -4.7985,11.2377 0,3.9781 1.0664,8.5717 5.0857,12.0988 3.7321,3.24 8.4486,4.4706 14.0675,4.4706 z m 23.2546,-19.6867 c 0,-6.2339 0,-7.3822 0.0822,-8.6947 0.0819,-1.4354 0.4099,-2.1328 1.5174,-2.3377 0.4921,-0.0822 1.1483,-0.123 1.5995,-0.123 0.4921,0 0.7382,-0.0822 0.7382,-0.3691 0,-0.2871 -0.2872,-0.3693 -0.8612,-0.3693 -1.5996,0 -4.5935,0.123 -5.578,0.123 -1.1072,0 -3.691,-0.123 -5.6188,-0.123 -0.6151,0 -0.9023,0.0822 -0.9023,0.3693 0,0.2869 0.2461,0.3691 0.6973,0.3691 0.5332,0 1.0253,0.0408 1.3536,0.123 1.3532,0.2872 1.6815,0.9434 1.7634,2.3377 0.0822,1.3125 0.0822,2.4608 0.0822,8.6947 v 7.2185 c 0,3.7732 0,7.0132 -0.2052,8.7358 -0.1641,1.1894 -0.3691,2.0917 -1.1894,2.2558 -0.3691,0.0819 -0.8612,0.1641 -1.4766,0.1641 -0.4921,0 -0.6559,0.123 -0.6559,0.328 0,0.2871 0.2868,0.4102 0.82,0.4102 0.8204,0 1.8868,-0.082 2.8301,-0.082 0.9842,-0.0411 1.8865,-0.0411 2.3378,-0.0411 1.6815,0 3.1578,0.0411 5.0034,0.1231 1.8456,0.0411 3.9784,0.123 6.9313,0.123 2.1328,0 2.3377,-0.205 2.584,-1.1072 0.328,-1.1894 0.6152,-4.2656 0.6152,-4.7166 0,-0.4924 -0.0411,-0.6973 -0.3283,-0.6973 -0.328,0 -0.4102,0.246 -0.451,0.6151 -0.0822,0.7792 -0.5743,1.9278 -1.0664,2.4608 -1.0253,1.1075 -2.6249,1.1486 -4.7985,1.1486 -3.1992,0 -4.2655,-0.2872 -4.9626,-0.9023 -0.8614,-0.7384 -0.8614,-3.5683 -0.8614,-8.818 z m 19.6866,7.2185 c 0,3.9784 0,7.2184 -0.2052,8.941 -0.1231,1.1894 -0.3691,1.8865 -1.1895,2.0506 -0.369,0.0819 -0.8611,0.1641 -1.4765,0.1641 -0.4921,0 -0.656,0.123 -0.656,0.328 0,0.2871 0.2869,0.4102 0.8201,0.4102 1.6407,0 4.2245,-0.1231 5.1678,-0.1231 1.1072,0 3.691,0.1231 6.3981,0.1231 0.451,0 0.7793,-0.1231 0.7793,-0.4102 0,-0.205 -0.2053,-0.328 -0.6563,-0.328 -0.6154,0 -1.5176,-0.0822 -2.0916,-0.1641 -1.2306,-0.1641 -1.5177,-0.9023 -1.6407,-2.0098 -0.1639,-1.7634 -0.1639,-5.0034 -0.1639,-8.9818 v -7.2185 c 0,-6.2339 0,-7.3822 0.0819,-8.6947 0.082,-1.4354 0.4102,-2.1328 1.5174,-2.3377 0.4924,-0.0822 0.8204,-0.123 1.2305,-0.123 0.4102,0 0.6563,-0.0822 0.6563,-0.4102 0,-0.246 -0.3283,-0.3282 -0.8615,-0.3282 -1.5585,0 -3.9781,0.123 -5.0034,0.123 -1.1894,0 -3.7732,-0.123 -5.3317,-0.123 -0.6562,0 -0.9845,0.0822 -0.9845,0.3282 0,0.328 0.2461,0.4102 0.6562,0.4102 0.4921,0 1.0253,0.0408 1.4766,0.1641 0.9023,0.205 1.3125,0.9023 1.3944,2.2966 0.0822,1.3125 0.0822,2.4608 0.0822,8.6947 z m 20.3972,-10.7864 h 0.1231 c 0.7381,0.7792 5.2905,5.7827 9.7543,10.2124 4.2653,4.2241 9.515,9.5969 12.092,12.0577 0.4513,0.4513 0.9434,0.9023 1.3944,0.9023 0.3693,0 0.5332,-0.3691 0.5332,-1.2714 l 0.4512,-25.8794 c 0.0411,-2.2967 0.3691,-3.1581 1.5174,-3.4861 0.4921,-0.123 0.8204,-0.123 1.2305,-0.123 0.4921,0 0.7382,-0.123 0.7382,-0.3691 0,-0.3282 -0.4102,-0.3693 -0.9434,-0.3693 -2.0095,0 -3.568,0.123 -4.0192,0.123 -0.8612,0 -2.8299,-0.123 -4.9558,-0.123 -0.6152,0 -1.0664,0.0411 -1.0664,0.3693 0,0.2461 0.1641,0.3691 0.6562,0.3691 0.5743,0 1.5585,0 2.1671,0.246 0.9842,0.4102 1.3532,1.1894 1.3943,3.6913 l 0.4102,18.415 h -0.2052 c -0.6971,-0.6562 -6.2272,-6.5622 -9.0159,-9.3512 -5.9811,-5.9468 -12.2153,-12.509 -12.7074,-13.0422 -0.7042,-0.7382 -1.0732,-1.2714 -1.5242,-1.2714 -0.4102,0 -0.5332,0.5741 -0.5332,1.3944 l -0.3694,24.1569 c -0.0408,3.5682 -0.2049,4.7576 -1.2713,5.0856 -0.574,0.1641 -1.3125,0.2052 -1.8457,0.2052 -0.4101,0 -0.6562,0.0819 -0.6562,0.328 0,0.3691 0.3694,0.4102 0.9023,0.4102 2.1328,0 4.0603,-0.1231 4.4297,-0.1231 0.786,0 2.4265,0.1231 5.0924,0.1231 0.5741,0 0.9431,-0.082 0.9431,-0.4102 0,-0.2461 -0.246,-0.328 -0.697,-0.328 -0.6562,0 -1.4355,-0.0411 -2.1328,-0.2871 -0.8203,-0.2872 -1.3533,-1.3536 -1.4355,-4.5525 z m 36.9805,10.7864 c 0,3.9784 0,7.2184 -0.2052,8.941 -0.123,1.1894 -0.3691,1.8865 -1.1894,2.0506 -0.3691,0.0819 -0.8612,0.1641 -1.4766,0.1641 -0.4921,0 -0.6559,0.123 -0.6559,0.328 0,0.2871 0.2869,0.4102 0.8201,0.4102 1.6407,0 4.2244,-0.1231 5.1678,-0.1231 1.1072,0 3.691,0.1231 6.3981,0.1231 0.451,0 0.7792,-0.1231 0.7792,-0.4102 0,-0.205 -0.2052,-0.328 -0.6562,-0.328 -0.6154,0 -1.5177,-0.0822 -2.0917,-0.1641 -1.2305,-0.1641 -1.5177,-0.9023 -1.6407,-2.0098 -0.1638,-1.7634 -0.1638,-5.0034 -0.1638,-8.9818 v -7.2185 c 0,-6.2339 0,-7.3822 0.0819,-8.6947 0.0819,-1.4354 0.4102,-2.1328 1.5174,-2.3377 0.4924,-0.0822 0.8203,-0.123 1.2305,-0.123 0.4102,0 0.6562,-0.0822 0.6562,-0.4102 0,-0.246 -0.3282,-0.3282 -0.8614,-0.3282 -1.5585,0 -3.9782,0.123 -5.0035,0.123 -1.1894,0 -3.7731,-0.123 -5.3316,-0.123 -0.6563,0 -0.9845,0.0822 -0.9845,0.3282 0,0.328 0.246,0.4102 0.6562,0.4102 0.4921,0 1.0253,0.0408 1.4766,0.1641 0.9022,0.205 1.3124,0.9023 1.3943,2.2966 0.0822,1.3125 0.0822,2.4608 0.0822,8.6947 z m 32.8105,12.4682 c 2.6249,0 5.7419,-0.2872 7.3826,-0.9434 0.697,-0.2872 0.8611,-0.4921 1.0661,-1.1894 0.4101,-1.3944 0.9025,-4.9626 0.9025,-5.4547 0,-0.3283 -0.0822,-0.6154 -0.3693,-0.6154 -0.328,0 -0.4102,0.1641 -0.5332,0.8203 -0.1639,0.7384 -0.6971,1.9276 -1.3944,2.7068 -1.6404,1.8868 -3.8551,2.2969 -7.5053,2.2969 -5.4958,0 -12.9195,-4.8396 -12.9195,-14.6007 0,-3.9784 0.7793,-7.8746 3.7735,-10.6225 1.8046,-1.6404 4.1423,-2.543 7.7105,-2.543 3.7732,0 6.9721,1.1075 8.3257,2.543 1.0253,1.0664 1.5585,2.5018 1.5996,3.7732 0,0.5743 0.0819,0.9022 0.4099,0.9022 0.3693,0 0.4512,-0.3279 0.4923,-0.9433 0.082,-0.8201 0.0409,-3.0759 0.1231,-4.4294 0.0819,-1.4355 0.2049,-1.9276 0.2049,-2.2556 0,-0.2463 -0.1641,-0.4512 -0.6151,-0.4923 -1.2305,-0.1231 -2.543,-0.4921 -4.1015,-0.6971 -1.8864,-0.246 -3.4041,-0.4102 -5.9468,-0.4102 -6.1109,0 -10.0074,1.6404 -12.9602,4.3475 -3.9374,3.6091 -4.7985,8.4487 -4.7985,11.2377 0,3.9781 1.0664,8.5717 5.0856,12.0988 3.7321,3.24 8.4487,4.4706 14.0675,4.4706 z" style="fill:#565757;fill-rule:evenodd" id="path14"></path>   <path d="m 191.0242,560.0914 h -5.0819 v -0.3781 c -0.4247,0.2976 -0.8663,0.4453 -1.3227,0.4453 -0.2993,0 -0.5482,-0.1046 -0.7446,-0.3124 -0.1965,-0.2095 -0.2957,-0.462 -0.2957,-0.7617 v -4.1686 h 0.9692 v 3.8526 c 0,0.2599 0.1066,0.3892 0.318,0.3892 0.726,0 1.0871,-0.5315 1.0871,-1.5942 v -2.6476 h 0.9337 v 4.3129 h 3.1678 v -4.3129 h 0.9691 z m 6.8712,-4.3016 h -1.1826 v 4.3016 h -0.9335 v -4.3016 h -1.7963 v 4.3016 h -0.9448 v -5.1755 h 4.8572 z m 9.9193,4.2903 h -4.4065 v -0.8513 c 0.4099,0 0.7243,-0.1854 0.9448,-0.5559 0.1891,-0.3067 0.2826,-0.6772 0.2826,-1.1094 0,-1.3564 -0.6735,-2.0339 -2.0208,-2.0339 -1.5267,0 -2.2918,0.5763 -2.2918,1.7272 0.2843,-0.309 0.7016,-0.4624 1.2535,-0.4624 0.5108,0 0.9093,0.1741 1.1936,0.5202 0.2583,0.3143 0.3892,0.7316 0.3892,1.2498 0,0.481 -0.1794,0.8682 -0.5368,1.1639 -0.3592,0.2937 -0.7821,0.4416 -1.2705,0.4416 -0.7016,0 -1.2331,-0.2656 -1.5959,-0.7971 -0.2994,-0.4566 -0.4493,-1.0553 -0.4493,-1.7963 0,-1.0009 0.3237,-1.7532 0.9694,-2.2564 0.5817,-0.4416 1.3901,-0.6624 2.4231,-0.6624 0.7951,0 1.478,0.191 2.0486,0.5726 0.5726,0.3818 0.8569,1.1525 0.8569,2.3088 0,0.7336 -0.1851,1.2968 -0.5556,1.6897 h 1.8561 v -4.3239 h 0.9094 z m -5.529,-1.5118 c 0,-0.2301 -0.0899,-0.4303 -0.2659,-0.6043 -0.1777,-0.1723 -0.3852,-0.2582 -0.6211,-0.2582 -0.2358,0 -0.4433,0.0842 -0.621,0.2525 -0.1761,0.1704 -0.2659,0.3722 -0.2659,0.61 0,0.2356 0.0918,0.436 0.2732,0.6024 0.1798,0.1647 0.3856,0.2469 0.6137,0.2469 0.2359,0 0.4434,-0.0822 0.6211,-0.2469 0.176,-0.1664 0.2659,-0.3668 0.2659,-0.6024 z m 12.4132,-2.7785 h -1.1826 v 4.3016 h -0.9335 v -4.3016 h -1.7963 v 4.3016 h -0.9448 v -5.1755 h 4.8572 z m -1.8318,-2.6475 c 0,0.174 -0.0654,0.3197 -0.1947,0.4376 -0.131,0.118 -0.2823,0.1778 -0.4547,0.1778 -0.1737,0 -0.3234,-0.0598 -0.449,-0.1778 -0.1273,-0.1179 -0.1888,-0.2636 -0.1888,-0.4376 0,-0.1741 0.0598,-0.3237 0.1815,-0.451 0.1235,-0.1253 0.2749,-0.1891 0.4563,-0.1891 0.1797,0 0.3331,0.0618 0.4604,0.1834 0.1253,0.1236 0.189,0.275 0.189,0.4567 z m 9.4366,5.1414 c 0,0.5352 -0.1817,0.9695 -0.5446,1.3006 -0.3611,0.3311 -0.8138,0.4958 -1.3583,0.4958 h -0.7691 v -0.6849 c -0.4098,0.4323 -0.9674,0.6494 -1.6764,0.6494 -0.5127,0 -0.9504,-0.1479 -1.3116,-0.4436 -0.3631,-0.2956 -0.5445,-0.6902 -0.5445,-1.1863 0,-0.623 0.2957,-1.1506 0.887,-1.5846 v -1.9252 h 4.4061 v 0.7446 h -1.4762 v 1.027 h 0.769 c 0.4714,0 0.8606,0.1517 1.1639,0.4547 0.303,0.3033 0.4547,0.6885 0.4547,1.1525 z m -0.9114,0 c 0,-0.2599 -0.0878,-0.4694 -0.2656,-0.6267 -0.176,-0.157 -0.4022,-0.2358 -0.6791,-0.2358 h -0.5315 c 0,0.7018 0.004,1.0048 0.0113,0.9093 -0.0224,0.4978 -0.1105,0.8008 -0.2602,0.9114 0.1273,0.0618 0.3163,0.0935 0.5689,0.0935 0.3067,0 0.5763,-0.1012 0.8082,-0.3013 0.2321,-0.2001 0.348,-0.451 0.348,-0.7504 z m -2.3856,-0.024 v -0.8385 h -1.1469 c -0.2432,0 -0.4433,0.0861 -0.5967,0.2602 -0.1536,0.172 -0.2302,0.3815 -0.2302,0.6267 0,0.275 0.1103,0.5071 0.3311,0.6962 0.2209,0.1888 0.4771,0.2843 0.7671,0.2843 0.2769,0 0.4941,-0.1066 0.6511,-0.32 0.1497,-0.1888 0.2245,-0.4246 0.2245,-0.7089 z m 0,-1.5832 v -1.027 h -1.1469 v 1.027 z m 1.1452,-3.5456 c 0,0.1814 -0.0598,0.3311 -0.1834,0.449 -0.1216,0.118 -0.2769,0.1778 -0.4657,0.1778 -0.1817,0 -0.3351,-0.0598 -0.4604,-0.1778 -0.1273,-0.1179 -0.189,-0.2676 -0.189,-0.449 0,-0.1814 0.0617,-0.3347 0.189,-0.462 0.1253,-0.1253 0.2787,-0.1891 0.4604,-0.1891 0.1814,0 0.3347,0.0638 0.46,0.1891 0.1273,0.1273 0.1891,0.2806 0.1891,0.462 z m 11.8593,5.7799 c 0,0.8419 -0.4657,1.5979 -1.3958,2.2677 -0.6454,0.4657 -1.5284,0.6979 -2.6455,0.6979 -1.1827,0 -2.1481,-0.2846 -2.8965,-0.8515 -0.8268,-0.6211 -1.2404,-1.5044 -1.2404,-2.6456 0,-1.0403 0.4283,-1.9196 1.2872,-2.6362 l 0.5445,0.6378 c -0.3537,0.3463 -0.595,0.642 -0.7203,0.8869 -0.1666,0.307 -0.2488,0.6775 -0.2488,1.1115 0,1.8037 1.1582,2.7056 3.4744,2.7056 0.8121,0 1.48,-0.1703 2.0095,-0.5091 0.6137,-0.4096 0.9207,-1.0009 0.9207,-1.7719 0,-0.3779 -0.0973,-0.6959 -0.2957,-0.9505 -0.1964,-0.2562 -0.4808,-0.3855 -0.8495,-0.3855 h -0.4978 v 1.0049 c 0,0.5052 -0.1851,0.9057 -0.5556,1.205 -0.3387,0.2676 -0.767,0.4023 -1.2872,0.4023 -0.5519,0 -1.0086,-0.1423 -1.3714,-0.4247 -0.3932,-0.3163 -0.5896,-0.7409 -0.5896,-1.2761 0,-0.5763 0.2956,-1.0797 0.885,-1.5137 v -1.9607 h 4.3727 v 0.8138 h -1.4539 v 0.9935 h 0.7917 c 0.5987,0 1.0534,0.2245 1.3601,0.6735 0.2676,0.3929 0.4022,0.902 0.4022,1.5251 z m -3.4744,-0.5803 v -0.8626 H 227.59 c -0.29,0 -0.5352,0.0805 -0.7316,0.2435 -0.1964,0.1608 -0.2957,0.3836 -0.2957,0.6679 0,0.2826 0.1216,0.4994 0.3668,0.6491 0.2039,0.133 0.4567,0.2004 0.756,0.2004 0.2526,0 0.4564,-0.0842 0.6137,-0.2545 0.1591,-0.1684 0.2376,-0.3836 0.2376,-0.6438 z m 0,-1.6183 v -0.9935 h -1.1225 v 0.9935 z m 12.647,0.7504 c 0,0.7857 -0.2452,1.4181 -0.7372,1.8989 -0.4938,0.479 -1.1339,0.7186 -1.9217,0.7186 h -4.7616 v -5.1642 h 0.9335 v 4.3129 h 2.4454 v -4.3129 h 1.8805 c 0.7092,0 1.2555,0.2563 1.6427,0.7671 0.3464,0.4546 0.5184,1.0479 0.5184,1.7796 z m -0.8739,0.005 c 0,-0.4714 -0.0935,-0.8623 -0.2843,-1.1693 -0.2358,-0.3628 -0.5743,-0.5445 -1.0159,-0.5445 h -0.9207 v 3.4747 h 0.5559 c 0.5181,0 0.926,-0.161 1.2217,-0.4847 0.2956,-0.3217 0.4433,-0.7484 0.4433,-1.2762 z m 7.4982,-1.6781 h -1.1826 v 4.3016 h -0.9334 v -4.3016 h -1.7964 v 4.3016 h -0.9447 v -5.1755 h 4.8571 z m 9.0567,1.6728 c 0,0.7857 -0.2452,1.4181 -0.7373,1.8989 -0.4938,0.479 -1.1338,0.7186 -1.9216,0.7186 h -4.7616 v -5.1642 h 0.9334 v 4.3129 h 2.4455 v -4.3129 h 1.8805 c 0.7092,0 1.2554,0.2563 1.6427,0.7671 0.3464,0.4546 0.5184,1.0479 0.5184,1.7796 z m -0.8739,0.005 c 0,-0.4714 -0.0935,-0.8623 -0.2843,-1.1693 -0.2359,-0.3628 -0.5743,-0.5445 -1.016,-0.5445 H 253.77 v 3.4747 h 0.5558 c 0.5182,0 0.9261,-0.161 1.2218,-0.4847 0.2956,-0.3217 0.4433,-0.7484 0.4433,-1.2762 z m -2.0205,-4.337 c 0,0.1814 -0.0618,0.3331 -0.1834,0.4547 -0.1216,0.1236 -0.2696,0.1834 -0.4437,0.1834 -0.1814,0 -0.333,-0.0618 -0.4546,-0.1891 -0.1216,-0.1253 -0.1832,-0.2769 -0.1832,-0.449 0,-0.174 0.0635,-0.3217 0.1888,-0.4453 0.1273,-0.1216 0.277,-0.1834 0.449,-0.1834 0.1741,0 0.3221,0.0601 0.4437,0.1777 0.1216,0.118 0.1834,0.2676 0.1834,0.451 z m 21.3942,6.9492 h -9.6078 c -0.9057,0 -1.3583,-0.3461 -1.3583,-1.0404 0,-0.2993 0.1216,-0.5388 0.3668,-0.7202 0.3067,-0.2285 0.8024,-0.3425 1.4893,-0.3425 0.0691,0 0.174,0 0.3124,0 0.1386,0 0.2375,0 0.3013,0 0.5669,0 0.9728,-0.0748 1.218,-0.2245 0.3388,-0.2284 0.5071,-0.6587 0.5071,-1.2892 0,-0.4322 -0.1573,-0.7784 -0.4733,-1.0383 -0.2994,-0.2378 -0.6682,-0.3557 -1.1098,-0.3557 -0.4734,0 -0.8232,0.1423 -1.0514,0.4249 0.1253,-0.0301 0.2469,-0.0468 0.3648,-0.0468 0.292,0 0.5315,0.0935 0.7166,0.2786 0.1851,0.1854 0.277,0.423 0.277,0.7149 0,0.3929 -0.1253,0.6942 -0.3779,0.9037 -0.2525,0.2075 -0.5802,0.3124 -0.9805,0.3124 -0.4342,0 -0.7633,-0.131 -0.9878,-0.3966 -0.2245,-0.2639 -0.3368,-0.612 -0.3368,-1.0459 0,-0.6157 0.2563,-1.0965 0.7688,-1.4426 0.4492,-0.3163 0.9918,-0.4734 1.6299,-0.4734 0.6865,0 1.2571,0.1778 1.7138,0.5315 0.5051,0.3946 0.756,0.9224 0.756,1.5846 0,0.7336 -0.2171,1.3062 -0.6551,1.7158 -0.4377,0.4099 -1.0216,0.6137 -1.7549,0.6137 h -1.2518 c -0.2769,0 -0.4153,0.0918 -0.4153,0.2733 0,0.1326 0.1384,0.2001 0.4153,0.2001 h 9.5236 z m -8.9212,-3.557 c 0,-0.1346 -0.0468,-0.2468 -0.1364,-0.3367 -0.0898,-0.0916 -0.2021,-0.1366 -0.337,-0.1366 -0.1347,0 -0.2469,0.045 -0.3368,0.1366 -0.0898,0.0899 -0.1366,0.2021 -0.1366,0.3367 0,0.1253 0.0488,0.2339 0.1423,0.3258 0.0955,0.0895 0.2058,0.1346 0.3311,0.1346 0.1256,0 0.2358,-0.0451 0.3314,-0.1346 0.0935,-0.0919 0.142,-0.2005 0.142,-0.3258 z m 16.4041,3.557 h -5.8264 v -5.1752 h 0.9805 v 4.2414 h 4.8459 z m 9.3299,-2.67 c 0,0.8513 -0.2248,1.5287 -0.6738,2.0339 -0.4657,0.5295 -1.1151,0.7931 -1.9513,0.7931 -0.408,0 -0.7504,-0.1253 -1.0217,-0.3779 -0.2712,-0.2525 -0.4079,-0.5686 -0.4079,-0.9467 v -2.3894 c 0,-0.2919 -0.1122,-0.5351 -0.3367,-0.7333 -0.2245,-0.1964 -0.4864,-0.2956 -0.7861,-0.2956 -0.5499,0 -0.9952,0.172 -1.3339,0.5145 -0.3388,0.3424 -0.5126,0.7894 -0.5202,1.3416 0.3314,-0.3387 0.7279,-0.5091 1.1937,-0.5091 0.5108,0 0.9133,0.1704 1.205,0.5091 0.2676,0.3087 0.4022,0.726 0.4022,1.2535 0,0.5051 -0.1627,0.9037 -0.4844,1.1956 -0.3237,0.292 -0.741,0.4377 -1.2538,0.4377 -0.6772,0 -1.186,-0.2673 -1.5248,-0.8045 -0.2826,-0.449 -0.4249,-1.0326 -0.4249,-1.7492 0,-0.9468 0.2472,-1.6784 0.7393,-2.1949 0.4921,-0.5165 1.2104,-0.7747 2.1555,-0.7747 0.7483,0 1.2722,0.2171 1.5715,0.6494 0.2208,0.3161 0.3314,0.8008 0.3314,1.4556 0,0.157 -0.008,0.3912 -0.0227,0.7016 -0.0167,0.3126 -0.0241,0.5352 -0.0241,0.6681 0,0.3946 0.0505,0.6866 0.1534,0.8756 0.1179,0.2282 0.3347,0.3425 0.6491,0.3425 0.4734,0 0.8439,-0.2209 1.1115,-0.6625 0.2208,-0.3705 0.331,-0.7988 0.331,-1.2872 0,-0.4811 -0.1065,-0.9057 -0.3197,-1.2762 -0.2602,-0.4266 -0.6137,-0.6381 -1.063,-0.6381 -0.2449,0 -0.4637,0.0825 -0.6622,0.2472 v -0.9955 c 0.1891,-0.0244 0.3986,-0.0354 0.6268,-0.0354 0.7727,0 1.362,0.2525 1.7719,0.7577 0.3798,0.464 0.5689,1.0964 0.5689,1.8935 z m -5.0706,1.205 c 0,-0.2452 -0.0842,-0.451 -0.2545,-0.6213 -0.1684,-0.1684 -0.3762,-0.2543 -0.6194,-0.2543 -0.2449,0 -0.451,0.0842 -0.6211,0.2486 -0.1684,0.1647 -0.2545,0.3745 -0.2545,0.627 0,0.2356 0.0878,0.4397 0.2602,0.608 0.1737,0.1704 0.3778,0.2546 0.6154,0.2546 0.2358,0 0.4416,-0.0862 0.6137,-0.2602 0.174,-0.1741 0.2602,-0.3742 0.2602,-0.6024 z m 1.9851,-5.4728 c 0,0.174 -0.0598,0.3197 -0.1834,0.4376 -0.1216,0.118 -0.2733,0.1778 -0.4547,0.1778 -0.1647,0 -0.3107,-0.0598 -0.4376,-0.1778 -0.1256,-0.1179 -0.1891,-0.2636 -0.1891,-0.4376 0,-0.1741 0.0618,-0.3237 0.1834,-0.451 0.1233,-0.1253 0.2713,-0.1891 0.4433,-0.1891 0.1814,0 0.3331,0.0618 0.4547,0.1834 0.1236,0.1236 0.1834,0.275 0.1834,0.4567 z m 21.5833,6.9378 h -9.6078 c -0.9056,0 -1.3583,-0.3461 -1.3583,-1.0404 0,-0.2993 0.1216,-0.5388 0.3668,-0.7202 0.3067,-0.2285 0.8025,-0.3425 1.4893,-0.3425 0.0692,0 0.174,0 0.3124,0 0.1386,0 0.2375,0 0.3013,0 0.5669,0 0.9728,-0.0748 1.218,-0.2245 0.3388,-0.2284 0.5072,-0.6587 0.5072,-1.2892 0,-0.4322 -0.1574,-0.7784 -0.4734,-1.0383 -0.2994,-0.2378 -0.6681,-0.3557 -1.1098,-0.3557 -0.4734,0 -0.8232,0.1423 -1.0514,0.4249 0.1253,-0.0301 0.2469,-0.0468 0.3649,-0.0468 0.2919,0 0.5315,0.0935 0.7166,0.2786 0.1851,0.1854 0.2769,0.423 0.2769,0.7149 0,0.3929 -0.1253,0.6942 -0.3779,0.9037 -0.2525,0.2075 -0.5802,0.3124 -0.9805,0.3124 -0.4342,0 -0.7633,-0.131 -0.9878,-0.3966 -0.2245,-0.2639 -0.3368,-0.612 -0.3368,-1.0459 0,-0.6157 0.2563,-1.0965 0.7688,-1.4426 0.4493,-0.3163 0.9918,-0.4734 1.6299,-0.4734 0.6865,0 1.2572,0.1778 1.7138,0.5315 0.5052,0.3946 0.756,0.9224 0.756,1.5846 0,0.7336 -0.2171,1.3062 -0.6551,1.7158 -0.4376,0.4099 -1.0216,0.6137 -1.7549,0.6137 h -1.2518 c -0.2769,0 -0.4153,0.0918 -0.4153,0.2733 0,0.1326 0.1384,0.2001 0.4153,0.2001 h 9.5236 z m -8.9212,-3.557 c 0,-0.1346 -0.0468,-0.2468 -0.1364,-0.3367 -0.0898,-0.0916 -0.2021,-0.1366 -0.337,-0.1366 -0.1346,0 -0.2469,0.045 -0.3368,0.1366 -0.0898,0.0899 -0.1366,0.2021 -0.1366,0.3367 0,0.1253 0.0488,0.2339 0.1423,0.3258 0.0955,0.0895 0.2058,0.1346 0.3311,0.1346 0.1256,0 0.2358,-0.0451 0.3314,-0.1346 0.0935,-0.0919 0.142,-0.2005 0.142,-0.3258 z m 16.8307,1.3771 c 0,2.3035 -1.1432,3.4764 -3.4277,3.5158 -0.172,0 -0.5071,0 -1.0029,0 -0.466,0 -0.8682,0.0749 -1.207,0.2245 -0.449,0.1985 -0.6735,0.4941 -0.6735,0.8907 v 0.3668 H 311.4 v -0.4156 c 0,-0.4977 0.2245,-0.9204 0.6735,-1.2722 0.449,-0.3517 1.1693,-0.5278 2.1628,-0.5278 0.118,0 0.2863,0.004 0.5072,0.0114 0.2134,0 0.3668,0 0.462,0 1.6784,0 2.5166,-0.9057 2.5166,-2.7168 0,-1.5043 -0.4807,-2.2583 -1.4425,-2.2583 -0.3294,0 -0.5913,0.1029 -0.7858,0.3087 -0.1928,0.2038 -0.2883,0.4753 -0.2883,0.8138 v 3.2389 h -0.9692 v -3.7347 c 0,-0.3461 -0.17,-0.5201 -0.5088,-0.5201 -0.3217,0 -0.4847,0.2021 -0.4847,0.6023 v 3.6525 h -0.898 v -3.8526 c 0,-0.4246 0.146,-0.752 0.4379,-0.9805 0.2673,-0.2205 0.6174,-0.3311 1.0514,-0.3311 0.4808,0 0.8793,0.1573 1.1937,0.4734 0.464,-0.3161 0.8833,-0.4734 1.2518,-0.4734 1.5361,0 2.3051,0.9955 2.3051,2.9843 z m -2.8721,-4.8271 c 0,0.1964 -0.0598,0.3572 -0.1834,0.4844 -0.1216,0.1253 -0.2769,0.1891 -0.4657,0.1891 -0.2058,0 -0.3688,-0.0638 -0.4904,-0.1891 -0.1216,-0.1272 -0.1831,-0.288 -0.1831,-0.4844 0,-0.1891 0.0655,-0.3444 0.1944,-0.466 0.131,-0.1216 0.29,-0.1834 0.4791,-0.1834 0.1814,0 0.3348,0.0635 0.4603,0.1891 0.127,0.1252 0.1888,0.2786 0.1888,0.4603 z m 10.9126,4.8271 c 0,2.3035 -1.1432,3.4764 -3.4277,3.5158 -0.1721,0 -0.5071,0 -1.0029,0 -0.466,0 -0.8682,0.0749 -1.207,0.2245 -0.449,0.1985 -0.6735,0.4941 -0.6735,0.8907 v 0.3668 h -0.8736 v -0.4156 c 0,-0.4977 0.2245,-0.9204 0.6735,-1.2722 0.449,-0.3517 1.1693,-0.5278 2.1628,-0.5278 0.1179,0 0.2863,0.004 0.5071,0.0114 0.2135,0 0.3668,0 0.4621,0 1.6784,0 2.5166,-0.9057 2.5166,-2.7168 0,-1.5043 -0.4808,-2.2583 -1.4426,-2.2583 -0.3294,0 -0.5913,0.1029 -0.7857,0.3087 -0.1928,0.2038 -0.2883,0.4753 -0.2883,0.8138 v 3.2389 h -0.9692 v -3.7347 c 0,-0.3461 -0.1701,-0.5201 -0.5088,-0.5201 -0.3217,0 -0.4847,0.2021 -0.4847,0.6023 v 3.6525 h -0.898 v -3.8526 c 0,-0.4246 0.1459,-0.752 0.4379,-0.9805 0.2673,-0.2205 0.6174,-0.3311 1.0514,-0.3311 0.4807,0 0.8793,0.1573 1.1937,0.4734 0.464,-0.3161 0.8832,-0.4734 1.2517,-0.4734 1.5361,0 2.3052,0.9955 2.3052,2.9843 z m 8.0762,0.1948 c 0,0.7577 -0.3385,1.3283 -1.016,1.7138 -0.5519,0.3161 -1.2331,0.4734 -2.0449,0.4734 -1.1339,0 -2.0115,-0.3742 -2.6345,-1.1208 -0.5746,-0.7016 -0.8626,-1.626 -0.8626,-2.7749 0,-2.6045 1.2966,-3.9067 3.888,-3.9067 0.6922,0 1.2725,0.1423 1.7362,0.4246 0.5596,0.3445 0.8402,0.8402 0.8402,1.484 0,0.4714 -0.159,0.8419 -0.479,1.1131 -0.3198,0.2713 -0.7183,0.4079 -1.1994,0.4079 -0.4564,0 -0.8345,-0.144 -1.1338,-0.4322 -0.2994,-0.288 -0.449,-0.6605 -0.449,-1.1169 0,-0.4416 0.1573,-0.8308 0.4716,-1.1696 h -0.0825 c -1.7886,-0.0167 -2.6829,1.1192 -2.6829,3.4036 0,0.9374 0.2469,1.6654 0.7389,2.1855 0.4921,0.5202 1.207,0.7801 2.1442,0.7801 h 0.0842 c -0.4882,-0.3929 -0.7334,-0.8308 -0.7334,-1.3116 0,-0.5352 0.1591,-0.9635 0.4791,-1.2818 0.318,-0.3198 0.7503,-0.4788 1.2929,-0.4788 0.4977,0 0.8943,0.144 1.1936,0.432 0.2994,0.2863 0.4491,0.6795 0.4491,1.1753 z m -0.8383,0.0243 c 0,-0.2378 -0.0822,-0.4359 -0.2488,-0.5969 -0.1647,-0.1627 -0.3666,-0.2433 -0.6024,-0.2433 -0.2282,0 -0.4229,0.0806 -0.5856,0.2433 -0.161,0.161 -0.2415,0.3591 -0.2415,0.5969 0,0.2206 0.0824,0.4133 0.2488,0.578 0.1647,0.1667 0.3575,0.2489 0.5783,0.2489 0.2358,0 0.4377,-0.0805 0.6024,-0.2432 0.1666,-0.161 0.2488,-0.3555 0.2488,-0.5837 z m -0.0467,-3.7814 c 0,-0.2134 -0.0822,-0.4005 -0.2432,-0.5615 -0.161,-0.1627 -0.3518,-0.2432 -0.5726,-0.2432 -0.2209,0 -0.4116,0.0785 -0.5743,0.2358 -0.161,0.159 -0.2415,0.3481 -0.2415,0.5689 0,0.2282 0.0805,0.4227 0.2415,0.5837 0.1627,0.161 0.3534,0.2432 0.5743,0.2432 0.2208,0 0.4116,-0.0842 0.5726,-0.2489 0.161,-0.1647 0.2432,-0.3591 0.2432,-0.578 z m 7.7675,5.7422 h -5.1174 v -5.1752 h 0.9805 v 4.2882 h 3.2145 v -4.2882 h 0.9224 z m 6.8825,-4.2903 h -1.1826 v 4.3016 h -0.9335 v -4.3016 h -1.7963 v 4.3016 h -0.9448 v -5.1755 h 4.8572 z m 9.2588,5.1883 h -2.1274 c -0.756,0.9504 -1.9216,1.4258 -3.4991,1.4258 -0.5593,0 -1.0346,-0.0935 -1.4292,-0.2826 -0.5108,-0.2449 -0.7674,-0.6097 -0.7674,-1.0982 0,-0.5425 0.436,-0.8141 1.3116,-0.8141 l 3.8526,0.0244 c 0.2115,-0.3929 0.318,-0.8419 0.318,-1.347 0,-0.3631 -0.1159,-0.6718 -0.3478,-0.9281 -0.2321,-0.2562 -0.5258,-0.3835 -0.8813,-0.3835 h -0.4603 v 0.9578 c 0,0.4717 -0.1964,0.8569 -0.5913,1.1563 -0.3611,0.2676 -0.7914,0.4025 -1.2872,0.4025 -0.5519,0 -1.0049,-0.1349 -1.3604,-0.4025 -0.3855,-0.2994 -0.5782,-0.7126 -0.5782,-1.2405 0,-0.7239 0.3705,-1.2441 1.1114,-1.5584 v -1.9741 h 4.3841 v 0.7914 h -1.6784 v 1.1115 h 0.769 c 0.5426,0 0.9842,0.2115 1.3227,0.6381 0.307,0.3929 0.4603,0.8699 0.4603,1.4295 0,0.4657 -0.0785,0.9054 -0.2358,1.3226 l 0.8158,0.0244 v -5.3175 h 0.8983 z m -3.2856,0 h -3.0966 c -0.2041,0 -0.3181,0.004 -0.3424,0.0113 -0.1347,0.0244 -0.2002,0.0955 -0.2002,0.2132 0,0.1647 0.2245,0.292 0.6736,0.3781 0.2899,0.0468 0.5893,0.0712 0.898,0.0712 0.8101,0 1.5006,-0.2285 2.0676,-0.6849 z m -1.7028,-2.6119 v -0.7914 h -0.9916 c -0.2843,0 -0.5128,0.0765 -0.6848,0.2302 -0.1741,0.1533 -0.26,0.3685 -0.26,0.6434 0,0.2696 0.1066,0.4848 0.3181,0.6512 0.1888,0.1573 0.4209,0.2358 0.6979,0.2358 0.6137,0 0.9204,-0.3237 0.9204,-0.9692 z m 0,-1.5474 v -1.1115 h -0.8737 v 1.1115 z m 20.1895,0.7914 c 0,0.567 -0.161,1.0704 -0.4848,1.5118 -0.3537,0.4977 -0.8027,0.7449 -1.3473,0.7449 -0.1644,0 -0.3461,-0.0581 -0.5425,-0.176 v 0.0224 c 0,0.1984 0.1366,0.3835 0.4136,0.5575 0.2508,0.1497 0.4884,0.2245 0.7092,0.2245 l 0.6381,0.0114 v 0.9467 c -0.5202,0 -0.8479,0.0281 -0.9825,0.0823 -0.1327,0.0561 -0.5426,0.2976 -1.2274,0.7222 -0.4584,0.2843 -0.915,0.4266 -1.3714,0.4266 -0.5596,0 -1.059,-0.1703 -1.5007,-0.5088 -0.4884,-0.3725 -0.7333,-0.8251 -0.7333,-1.3623 l 0.9692,0.0113 c 0,0.292 0.1196,0.5426 0.3611,0.756 0.2395,0.2132 0.5088,0.3198 0.8081,0.3198 0.3555,0 0.7186,-0.1233 1.0871,-0.3665 0.4661,-0.2994 0.7841,-0.4734 0.9581,-0.5202 -0.3781,-0.1423 -0.6698,-0.3986 -0.8739,-0.769 -0.1888,-0.3388 -0.2843,-0.7243 -0.2843,-1.1583 0,-0.8268 0.2526,-1.4913 0.756,-1.9964 l 0.6979,0.5913 c -0.2676,0.2282 -0.4025,0.4771 -0.4025,0.7446 0,0.1571 0.047,0.292 0.1423,0.4023 0.0955,0.1086 0.2208,0.1647 0.3778,0.1647 0.3238,0 0.567,-0.1851 0.7336,-0.5556 0.133,-0.292 0.2002,-0.6177 0.2002,-0.9805 0,-0.7654 -0.275,-1.3714 -0.8269,-1.8207 -0.5128,-0.4173 -1.1582,-0.6248 -1.9386,-0.6248 -0.7484,0 -1.3788,0.2002 -1.8896,0.6024 -0.5445,0.4173 -0.8589,0.9879 -0.9468,1.7121 0.3068,-0.2993 0.6662,-0.449 1.0758,-0.449 0.5128,0 0.913,0.1477 1.205,0.4434 0.292,0.2956 0.438,0.6998 0.438,1.2123 0,0.5035 -0.1778,0.8927 -0.5315,1.1696 -0.3164,0.2526 -0.7334,0.3779 -1.2535,0.3779 -0.6381,0 -1.1191,-0.26 -1.4409,-0.7801 -0.2676,-0.4343 -0.4022,-0.9882 -0.4022,-1.6674 0,-1.0309 0.3424,-1.8598 1.0273,-2.4809 0.6621,-0.5913 1.5137,-0.8869 2.554,-0.8869 0.9691,0 1.8485,0.2619 2.6399,0.7858 0.7914,0.5241 1.1883,1.377 1.1883,2.5596 z m -4.644,0.9224 c 0,-0.2282 -0.0805,-0.4246 -0.2432,-0.5856 -0.1611,-0.1607 -0.3558,-0.2412 -0.584,-0.2412 -0.2282,0 -0.4209,0.0805 -0.58,0.2412 -0.157,0.161 -0.2358,0.3574 -0.2358,0.5856 0,0.2208 0.0805,0.4099 0.2415,0.567 0.1627,0.1573 0.3535,0.2358 0.5743,0.2358 0.2282,0 0.4229,-0.0768 0.584,-0.2302 0.1627,-0.1533 0.2432,-0.3441 0.2432,-0.5726 z m 14.883,-2.8964 h -1.0162 v 4.4439 h -0.898 v -4.4439 h -1.4539 v 4.4439 h -0.9224 v -2.9189 c 0,-0.5201 -0.1477,-0.913 -0.4414,-1.1826 -0.2956,-0.2676 -0.7075,-0.4002 -1.235,-0.4002 -0.5446,0 -0.9879,0.159 -1.3303,0.479 -0.3425,0.3181 -0.5145,0.7501 -0.5145,1.2929 0.3387,-0.3855 0.7577,-0.5783 1.2535,-0.5783 0.5034,0 0.9,0.1423 1.1882,0.4266 0.2863,0.2863 0.4303,0.6755 0.4303,1.1676 0,0.5332 -0.174,0.9505 -0.5201,1.2555 -0.3461,0.305 -0.7878,0.4584 -1.3229,0.4584 -0.6866,0 -1.1974,-0.2863 -1.5361,-0.8589 -0.2676,-0.4714 -0.4023,-1.0758 -0.4023,-1.8148 0,-0.7616 0.2489,-1.3884 0.7447,-1.8842 0.4958,-0.494 1.1302,-0.7409 1.9029,-0.7409 0.449,0 0.8028,0.0394 1.0627,0.1196 0.3555,0.1105 0.6454,0.32 0.8756,0.6287 v -0.6247 h 4.1352 z m -5.8022,2.8721 c 0,-0.2526 -0.0879,-0.4641 -0.2657,-0.6378 -0.1777,-0.1741 -0.3874,-0.2603 -0.6324,-0.2603 -0.2432,0 -0.4493,0.0879 -0.6137,0.2656 -0.1666,0.1778 -0.2488,0.3875 -0.2488,0.6325 0,0.2358 0.0822,0.4436 0.2488,0.6213 0.1644,0.1758 0.3705,0.2656 0.6137,0.2656 0.245,0 0.4547,-0.0898 0.6324,-0.2656 0.1778,-0.1777 0.2657,-0.3855 0.2657,-0.6213 z m 17.4818,1.5718 h -2.4455 c -0.2282,0.2676 -0.3424,0.5014 -0.3424,0.6979 0,0.2432 0.0618,0.4396 0.1834,0.5856 0.1216,0.146 0.2452,0.2883 0.3725,0.4303 l -0.7223,0.5091 c -0.008,-0.015 -0.0224,-0.032 -0.0468,-0.0468 -0.2602,-0.2528 -0.4359,-0.4547 -0.5315,-0.6043 -0.1252,-0.2115 -0.1887,-0.468 -0.1887,-0.7674 0,-0.3798 0.0822,-0.6474 0.2488,-0.8044 h -3.0257 v -0.887 c 0.0394,0.009 0.0973,0.013 0.1761,0.013 0.3946,0 0.6865,-0.1851 0.8756,-0.5555 0.1497,-0.2844 0.2245,-0.6418 0.2245,-1.0758 0,-0.6457 -0.176,-1.1472 -0.5258,-1.5007 -0.3518,-0.3537 -0.8496,-0.5315 -1.495,-0.5315 -0.5202,0 -0.9899,0.1497 -1.4071,0.4493 -0.4714,0.3311 -0.709,0.7407 -0.709,1.2291 0.2994,-0.2919 0.6381,-0.4376 1.016,-0.4376 0.4807,0 0.8625,0.1496 1.1469,0.447 0.2843,0.2976 0.4249,0.6905 0.4249,1.1769 0,0.5035 -0.1517,0.9074 -0.4547,1.2144 -0.3033,0.305 -0.7073,0.4584 -1.2107,0.4584 -0.623,0 -1.0944,-0.2432 -1.4182,-0.7317 -0.2752,-0.4172 -0.4135,-0.9524 -0.4135,-1.6052 0,-0.9675 0.2786,-1.7085 0.8382,-2.2193 0.5445,-0.4881 1.3042,-0.7313 2.2807,-0.7313 0.8589,0 1.5344,0.2245 2.0282,0.6735 0.4921,0.451 0.7373,1.0965 0.7373,1.9403 0,0.8289 -0.1814,1.4239 -0.5425,1.7867 h 2.3629 c -0.7801,-0.7597 -1.1693,-1.5528 -1.1693,-2.3837 0,-0.625 0.1758,-1.1171 0.5315,-1.4779 0.3535,-0.3595 0.8419,-0.5389 1.465,-0.5389 0.4172,0 0.7727,0.2168 1.0627,0.6528 0.2695,0.3799 0.4022,0.7897 0.4022,1.2331 0,0.9411 -0.4133,1.7475 -1.2404,2.4211 -0.0318,0.0224 -0.0786,0.0544 -0.1423,0.0935 h 1.654 z m -7.5629,-1.5475 c 0,-0.2449 -0.0802,-0.451 -0.2412,-0.621 -0.161,-0.1704 -0.3611,-0.2546 -0.597,-0.2546 -0.2355,0 -0.4359,0.0842 -0.5967,0.2546 -0.161,0.17 -0.2432,0.3761 -0.2432,0.621 0,0.2285 0.0842,0.4249 0.2489,0.5894 0.1644,0.1666 0.3629,0.2488 0.591,0.2488 0.2285,0 0.425,-0.0822 0.5913,-0.2488 0.1647,-0.1645 0.2469,-0.3609 0.2469,-0.5894 z m 6.4758,-1.7138 c 0,-0.8045 -0.2676,-1.205 -0.8025,-1.205 -0.3237,0 -0.5746,0.1179 -0.756,0.3538 -0.1814,0.2355 -0.2733,0.5201 -0.2733,0.8512 0,0.3217 0.0919,0.6531 0.2733,0.9916 0.0862,0.1666 0.2789,0.4529 0.5783,0.8625 0.2917,-0.2114 0.5275,-0.4881 0.7089,-0.8268 0.1817,-0.3388 0.2713,-0.6812 0.2713,-1.0273 z m 8.7591,1.9029 c 0,0.7951 -0.275,1.4312 -0.8215,1.9086 -0.5483,0.4751 -1.4125,0.7183 -2.5932,0.7259 h -0.4977 c -0.9448,0 -1.5755,0.1627 -1.8899,0.4864 -0.1737,0.1721 -0.2599,0.3892 -0.2599,0.6512 v 0.2245 h -0.8158 v -0.2843 c 0,-0.6231 0.2749,-1.1078 0.8271,-1.4559 0.4734,-0.2917 1.0403,-0.434 1.7025,-0.4247 l 1.3473,0.0114 c 0.3291,0 0.6846,-0.0882 1.0627,-0.2659 0.3779,-0.1777 0.6622,-0.3966 0.8513,-0.6568 0.172,-0.2355 0.2602,-0.5462 0.2602,-0.9334 0,-0.2994 -0.0749,-0.567 -0.2245,-0.8028 -0.1741,-0.2676 -0.4025,-0.4022 -0.6869,-0.4022 h -0.7092 c 0,0.0785 0.006,0.2057 0.0133,0.3778 0.005,0.1741 0.005,0.3033 0,0.3912 0,0.6698 -0.1777,1.1375 -0.5334,1.4051 -0.3779,0.2676 -0.7915,0.4023 -1.2405,0.4023 -0.6137,0 -1.0981,-0.146 -1.4519,-0.438 -0.3798,-0.3141 -0.5689,-0.7744 -0.5689,-1.3824 0,-0.5746 0.292,-1.0387 0.8759,-1.3941 v -1.9607 h 4.3126 v 0.8382 h -1.4071 v 0.9691 h 0.8983 c 0.4978,0 0.8907,0.2208 1.1823,0.6622 0.2452,0.3781 0.3669,0.8271 0.3669,1.3473 z m -3.3211,-0.3912 v -0.8268 h -1.0871 c -0.2676,0 -0.4921,0.0785 -0.6735,0.2375 -0.1817,0.1573 -0.2713,0.3648 -0.2713,0.625 0,0.277 0.1216,0.5052 0.3665,0.6866 0.2191,0.1573 0.4754,0.2358 0.7674,0.2358 0.5986,0 0.898,-0.32 0.898,-0.9581 z m 0,-1.6183 v -0.9691 h -1.2294 v 0.9691 z m 12.4974,0.7504 c 0,0.7857 -0.2452,1.4181 -0.7373,1.8989 -0.4938,0.479 -1.1339,0.7186 -1.9216,0.7186 h -4.7617 v -5.1642 h 0.9335 v 4.3129 h 2.4454 v -4.3129 h 1.8805 c 0.7093,0 1.2555,0.2563 1.6427,0.7671 0.3464,0.4546 0.5185,1.0479 0.5185,1.7796 z m -0.874,0.005 c 0,-0.4714 -0.0935,-0.8623 -0.2843,-1.1693 -0.2358,-0.3628 -0.5743,-0.5445 -1.0159,-0.5445 h -0.9207 v 3.4747 h 0.5559 c 0.5181,0 0.9261,-0.161 1.2217,-0.4847 0.2957,-0.3217 0.4433,-0.7484 0.4433,-1.2762 z m -2.0205,-4.337 c 0,0.1814 -0.0618,0.3331 -0.1834,0.4547 -0.1216,0.1236 -0.2696,0.1834 -0.4436,0.1834 -0.1814,0 -0.3331,-0.0618 -0.4547,-0.1891 -0.1216,-0.1253 -0.1831,-0.2769 -0.1831,-0.449 0,-0.174 0.0635,-0.3217 0.1888,-0.4453 0.1273,-0.1216 0.2769,-0.1834 0.449,-0.1834 0.174,0 0.322,0.0601 0.4436,0.1777 0.1216,0.118 0.1834,0.2676 0.1834,0.451 z" style="fill:#565757;fill-rule:evenodd" id="path16"></path>   <path d="m 196.7405,423.6744 c 34.2242,15.633 58.4013,43.3457 93.8152,6.9684 -35.7285,25.6442 -60.7107,-0.601 -80.2466,-6.9684 19.5359,-6.3674 44.5181,-32.613 80.2466,-6.9688 -35.0875,-36.0422 -58.6899,-9.0756 -93.8152,6.9688 z" style="fill:#5fc2bb;fill-rule:evenodd" id="path18"></path> </svg>