<?xml version="1.0" encoding="UTF-8"?>
<svg xmlns="http://www.w3.org/2000/svg" xmlns:xlink="http://www.w3.org/1999/xlink" width="1726.56pt" height="1193.75pt" viewBox="0 0 1726.56 1193.75" version="1.1">
<defs>
<clipPath id="clip1">
  <path d="M 0 0 L 1726.558594 0 L 1726.558594 1193.75 L 0 1193.75 Z M 0 0 "/>
</clipPath>
</defs>
<g id="surface1">
<g clip-path="url(#clip1)" clip-rule="nonzero">
<path style=" stroke:none;fill-rule:nonzero;fill:rgb(1.960754%,39.988708%,21.972656%);fill-opacity:1;" d="M 863.28125 0 L 0 1193.75 L 1726.558594 1193.75 "/>
</g>
<path style=" stroke:none;fill-rule:nonzero;fill:rgb(89.0625%,92.576599%,75.389099%);fill-opacity:1;" d="M 863.28125 226.621094 L 270.492188 1046.328125 L 1456.070313 1046.328125 "/>
<path style=" stroke:none;fill-rule:nonzero;fill:rgb(100%,100%,100%);fill-opacity:1;" d="M 999.46875 652.535156 C 999.46875 729.046875 937.441406 791.070313 860.929688 791.070313 C 784.417969 791.070313 722.390625 729.046875 722.390625 652.535156 C 722.390625 576.023438 784.417969 513.996094 860.929688 513.996094 C 937.441406 513.996094 999.46875 576.023438 999.46875 652.535156 "/>
<path style=" stroke:none;fill-rule:nonzero;fill:rgb(73.631287%,89.451599%,96.484375%);fill-opacity:1;" d="M 783.96875 702.9375 L 813.929688 702.9375 L 813.929688 589.550781 L 783.96875 589.550781 Z M 783.96875 702.9375 "/>
<path style=" stroke:none;fill-rule:nonzero;fill:rgb(73.631287%,89.451599%,96.484375%);fill-opacity:1;" d="M 910.574219 702.9375 L 940.535156 702.9375 L 940.535156 589.550781 L 910.574219 589.550781 Z M 910.574219 702.9375 "/>
<path style=" stroke:none;fill-rule:nonzero;fill:rgb(91.40625%,13.719177%,14.892578%);fill-opacity:1;" d="M 863.28125 668.570313 L 677.046875 879.722656 L 1049.511719 879.722656 "/>
<path style=" stroke:none;fill-rule:nonzero;fill:rgb(1.567078%,66.601563%,88.28125%);fill-opacity:1;" d="M 910.28125 864.203125 C 885.617188 850.230469 784.628906 762.921875 751.660156 720.851563 C 734.714844 699.234375 719.035156 664.746094 734.617188 612.316406 C 741.109375 590.476563 752.21875 576.449219 755.34375 572.664063 C 790.546875 529.980469 869.523438 505.59375 930.453125 543.523438 C 967.335938 566.488281 992.976563 609.410156 992.015625 657.046875 C 990.828125 715.539063 941.730469 757.515625 941.730469 757.515625 L 1006.121094 830.59375 C 1017.820313 822.003906 1034.148438 808.105469 1049.289063 787.464844 C 1049.289063 787.464844 1073.78125 754.097656 1084.179688 709.105469 C 1094.691406 663.625 1097.738281 571.828125 1034.53125 500.546875 C 964.851563 421.960938 850.769531 407.15625 765.753906 444.226563 C 749.054688 451.507813 678.28125 484.851563 647.464844 565.257813 C 611.546875 658.972656 658.335938 742.441406 667.644531 759.042969 C 702.3125 820.886719 754.398438 850.558594 776.332031 861.488281 C 820.980469 862.394531 865.628906 863.300781 910.28125 864.203125 "/>
<path style=" stroke:none;fill-rule:nonzero;fill:rgb(73.631287%,89.451599%,96.484375%);fill-opacity:1;" d="M 834.199219 660.050781 L 892.359375 660.050781 L 892.359375 630.089844 L 834.199219 630.089844 Z M 834.199219 660.050781 "/>
<path style=" stroke:none;fill-rule:nonzero;fill:rgb(25.488281%,27.43988%,50.584412%);fill-opacity:1;" d="M 775.082031 562.914063 C 775.289063 569.914063 782.445313 569.445313 786.800781 572.246094 L 787.0625 568.878906 C 784.570313 567.996094 783.015625 565.816406 782.445313 562.34375 C 779.957031 562.757813 777.519531 562.964844 775.082031 562.914063 "/>
<path style="fill:none;stroke-width:7.99;stroke-linecap:butt;stroke-linejoin:miter;stroke:rgb(100%,100%,100%);stroke-opacity:1;stroke-miterlimit:4;" d="M 7750.820313 6308.359375 C 7752.890625 6238.359375 7824.453125 6243.046875 7868.007813 6215.039063 L 7870.625 6248.710938 C 7845.703125 6257.539063 7830.15625 6279.335938 7824.453125 6314.0625 C 7799.570313 6309.921875 7775.195313 6307.851563 7750.820313 6308.359375 Z M 7750.820313 6308.359375 " transform="matrix(0.1,0,0,-0.1,0,1193.75)"/>
<path style=" stroke:none;fill-rule:nonzero;fill:rgb(25.488281%,27.43988%,50.584412%);fill-opacity:1;" d="M 775.082031 562.914063 C 775.289063 569.914063 782.445313 569.445313 786.800781 572.246094 L 787.0625 568.878906 C 784.570313 567.996094 783.015625 565.816406 782.445313 562.34375 C 779.957031 562.757813 777.519531 562.964844 775.082031 562.914063 "/>
<path style="fill:none;stroke-width:7.99;stroke-linecap:butt;stroke-linejoin:miter;stroke:rgb(100%,100%,100%);stroke-opacity:1;stroke-miterlimit:4;" d="M 7750.820313 6308.359375 C 7752.890625 6238.359375 7824.453125 6243.046875 7868.007813 6215.039063 L 7870.625 6248.710938 C 7845.703125 6257.539063 7830.15625 6279.335938 7824.453125 6314.0625 C 7799.570313 6309.921875 7775.195313 6307.851563 7750.820313 6308.359375 Z M 7750.820313 6308.359375 " transform="matrix(0.1,0,0,-0.1,0,1193.75)"/>
<path style=" stroke:none;fill-rule:nonzero;fill:rgb(25.488281%,27.43988%,50.584412%);fill-opacity:1;" d="M 782.445313 562.34375 C 783.015625 565.816406 784.570313 567.996094 787.0625 568.878906 C 789.808594 569.808594 793.699219 569.238281 798.78125 567.164063 C 797.378906 565.195313 796.914063 562.136719 797.328125 558.144531 C 792.351563 559.90625 787.320313 561.511719 782.445313 562.34375 "/>
<path style="fill:none;stroke-width:7.99;stroke-linecap:butt;stroke-linejoin:miter;stroke:rgb(100%,100%,100%);stroke-opacity:1;stroke-miterlimit:4;" d="M 7824.453125 6314.0625 C 7830.15625 6279.335938 7845.703125 6257.539063 7870.625 6248.710938 C 7898.085938 6239.414063 7936.992188 6245.117188 7987.8125 6265.859375 C 7973.789063 6285.546875 7969.140625 6316.132813 7973.28125 6356.054688 C 7923.515625 6338.4375 7873.203125 6322.382813 7824.453125 6314.0625 Z M 7824.453125 6314.0625 " transform="matrix(0.1,0,0,-0.1,0,1193.75)"/>
<path style=" stroke:none;fill-rule:nonzero;fill:rgb(25.488281%,27.43988%,50.584412%);fill-opacity:1;" d="M 782.445313 562.34375 C 783.015625 565.816406 784.570313 567.996094 787.0625 568.878906 C 789.808594 569.808594 793.699219 569.238281 798.78125 567.164063 C 797.378906 565.195313 796.914063 562.136719 797.328125 558.144531 C 792.351563 559.90625 787.320313 561.511719 782.445313 562.34375 "/>
<path style="fill:none;stroke-width:7.99;stroke-linecap:butt;stroke-linejoin:miter;stroke:rgb(100%,100%,100%);stroke-opacity:1;stroke-miterlimit:4;" d="M 7824.453125 6314.0625 C 7830.15625 6279.335938 7845.703125 6257.539063 7870.625 6248.710938 C 7898.085938 6239.414063 7936.992188 6245.117188 7987.8125 6265.859375 C 7973.789063 6285.546875 7969.140625 6316.132813 7973.28125 6356.054688 C 7923.515625 6338.4375 7873.203125 6322.382813 7824.453125 6314.0625 Z M 7824.453125 6314.0625 " transform="matrix(0.1,0,0,-0.1,0,1193.75)"/>
<path style=" stroke:none;fill-rule:nonzero;fill:rgb(25.488281%,27.43988%,50.584412%);fill-opacity:1;" d="M 798.78125 567.164063 C 793.699219 569.238281 789.808594 569.8125 787.0625 568.878906 L 786.800781 572.246094 C 785.714844 580.390625 791.675781 582.046875 801.011719 580.542969 C 801.527344 586.871094 805.105469 590.5 812.675781 590.757813 C 811.589844 588.320313 812.054688 584.535156 814.023438 581.269531 C 805.78125 584.691406 797.847656 578.210938 801.164063 569.085938 C 800.179688 568.617188 799.351563 567.996094 798.78125 567.164063 "/>
<path style="fill:none;stroke-width:7.99;stroke-linecap:butt;stroke-linejoin:miter;stroke:rgb(100%,100%,100%);stroke-opacity:1;stroke-miterlimit:4;" d="M 7987.8125 6265.859375 C 7936.992188 6245.117188 7898.085938 6239.375 7870.625 6248.710938 L 7868.007813 6215.039063 C 7857.148438 6133.59375 7916.757813 6117.03125 8010.117188 6132.070313 C 8015.273438 6068.789063 8051.054688 6032.5 8126.757813 6029.921875 C 8115.898438 6054.296875 8120.546875 6092.148438 8140.234375 6124.804688 C 8057.8125 6090.585938 7978.476563 6155.390625 8011.640625 6246.640625 C 8001.796875 6251.328125 7993.515625 6257.539063 7987.8125 6265.859375 Z M 7987.8125 6265.859375 " transform="matrix(0.1,0,0,-0.1,0,1193.75)"/>
<path style=" stroke:none;fill-rule:nonzero;fill:rgb(25.488281%,27.43988%,50.584412%);fill-opacity:1;" d="M 798.78125 567.164063 C 793.699219 569.238281 789.808594 569.8125 787.0625 568.878906 L 786.800781 572.246094 C 785.714844 580.390625 791.675781 582.046875 801.011719 580.542969 C 801.527344 586.871094 805.105469 590.5 812.675781 590.757813 C 811.589844 588.320313 812.054688 584.535156 814.023438 581.269531 C 805.78125 584.691406 797.847656 578.210938 801.164063 569.085938 C 800.179688 568.617188 799.351563 567.996094 798.78125 567.164063 "/>
<path style="fill:none;stroke-width:7.99;stroke-linecap:butt;stroke-linejoin:miter;stroke:rgb(100%,100%,100%);stroke-opacity:1;stroke-miterlimit:4;" d="M 7987.8125 6265.859375 C 7936.992188 6245.117188 7898.085938 6239.375 7870.625 6248.710938 L 7868.007813 6215.039063 C 7857.148438 6133.59375 7916.757813 6117.03125 8010.117188 6132.070313 C 8015.273438 6068.789063 8051.054688 6032.5 8126.757813 6029.921875 C 8115.898438 6054.296875 8120.546875 6092.148438 8140.234375 6124.804688 C 8057.8125 6090.585938 7978.476563 6155.390625 8011.640625 6246.640625 C 8001.796875 6251.328125 7993.515625 6257.539063 7987.8125 6265.859375 Z M 7987.8125 6265.859375 " transform="matrix(0.1,0,0,-0.1,0,1193.75)"/>
<path style=" stroke:none;fill-rule:nonzero;fill:rgb(25.488281%,27.43988%,50.584412%);fill-opacity:1;" d="M 813.765625 581.375 C 811.796875 584.640625 811.589844 588.320313 812.675781 590.757813 C 814.542969 590.8125 816.722656 590.65625 819.160156 590.242188 C 821.390625 593.351563 823.671875 595.269531 826.003906 596.050781 C 825.640625 592.679688 825.691406 587.855469 827.351563 582.359375 C 822.371094 582.566406 819.054688 581.582031 817.136719 579.453125 C 816.097656 580.234375 814.800781 580.90625 813.765625 581.375 "/>
<path style="fill:none;stroke-width:7.99;stroke-linecap:butt;stroke-linejoin:miter;stroke:rgb(100%,100%,100%);stroke-opacity:1;stroke-miterlimit:4;" d="M 8137.65625 6123.75 C 8117.96875 6091.09375 8115.898438 6054.296875 8126.757813 6029.921875 C 8145.429688 6029.375 8167.226563 6030.9375 8191.601563 6035.078125 C 8213.90625 6003.984375 8236.71875 5984.804688 8260.039063 5976.992188 C 8256.40625 6010.703125 8256.914063 6058.945313 8273.515625 6113.90625 C 8223.710938 6111.835938 8190.546875 6121.679688 8171.367188 6142.96875 C 8160.976563 6135.15625 8148.007813 6128.4375 8137.65625 6123.75 Z M 8137.65625 6123.75 " transform="matrix(0.1,0,0,-0.1,0,1193.75)"/>
<path style=" stroke:none;fill-rule:nonzero;fill:rgb(25.488281%,27.43988%,50.584412%);fill-opacity:1;" d="M 813.765625 581.375 C 811.796875 584.640625 811.589844 588.320313 812.675781 590.757813 C 814.542969 590.8125 816.722656 590.65625 819.160156 590.242188 C 821.390625 593.351563 823.671875 595.269531 826.003906 596.050781 C 825.640625 592.679688 825.691406 587.855469 827.351563 582.359375 C 822.371094 582.566406 819.054688 581.582031 817.136719 579.453125 C 816.097656 580.234375 814.800781 580.90625 813.765625 581.375 "/>
<path style="fill:none;stroke-width:7.99;stroke-linecap:butt;stroke-linejoin:miter;stroke:rgb(100%,100%,100%);stroke-opacity:1;stroke-miterlimit:4;" d="M 8137.65625 6123.75 C 8117.96875 6091.09375 8115.898438 6054.296875 8126.757813 6029.921875 C 8145.429688 6029.375 8167.226563 6030.9375 8191.601563 6035.078125 C 8213.90625 6003.984375 8236.71875 5984.804688 8260.039063 5976.992188 C 8256.40625 6010.703125 8256.914063 6058.945313 8273.515625 6113.90625 C 8223.710938 6111.835938 8190.546875 6121.679688 8171.367188 6142.96875 C 8160.976563 6135.15625 8148.007813 6128.4375 8137.65625 6123.75 Z M 8137.65625 6123.75 " transform="matrix(0.1,0,0,-0.1,0,1193.75)"/>
<path style=" stroke:none;fill-rule:nonzero;fill:rgb(25.488281%,27.43988%,50.584412%);fill-opacity:1;" d="M 827.351563 582.359375 C 825.691406 587.855469 825.640625 592.679688 826.003906 596.046875 C 828.335938 596.824219 830.671875 596.464844 833.105469 595.0625 C 830.359375 590.65625 828.390625 586.453125 827.351563 582.359375 "/>
<path style=" stroke:none;fill-rule:nonzero;fill:rgb(25.488281%,27.43988%,50.584412%);fill-opacity:1;" d="M 827.351563 582.359375 C 825.691406 587.855469 825.640625 592.679688 826.003906 596.046875 C 828.335938 596.824219 830.671875 596.464844 833.105469 595.0625 C 830.359375 590.65625 828.390625 586.453125 827.351563 582.359375 "/>
<path style="fill:none;stroke-width:7.99;stroke-linecap:butt;stroke-linejoin:miter;stroke:rgb(100%,100%,100%);stroke-opacity:1;stroke-miterlimit:4;" d="M 8273.515625 6113.90625 C 8256.914063 6058.945313 8256.40625 6010.703125 8260.039063 5977.03125 C 8283.359375 5969.257813 8306.71875 5972.851563 8331.054688 5986.875 C 8303.59375 6030.9375 8283.90625 6072.96875 8273.515625 6113.90625 Z M 8273.515625 6113.90625 " transform="matrix(0.1,0,0,-0.1,0,1193.75)"/>
<path style=" stroke:none;fill-rule:nonzero;fill:rgb(25.488281%,27.43988%,50.584412%);fill-opacity:1;" d="M 810.757813 563.847656 C 813.816406 570.535156 819.9375 571.003906 827.558594 568.304688 C 824.808594 565.867188 824.914063 560.21875 827.402344 551.660156 C 822.996094 550.832031 818.171875 551.507813 813.089844 552.855469 C 811.535156 556.484375 810.757813 560.269531 810.757813 563.847656 "/>
<path style="fill:none;stroke-width:7.99;stroke-linecap:butt;stroke-linejoin:miter;stroke:rgb(100%,100%,100%);stroke-opacity:1;stroke-miterlimit:4;" d="M 8107.578125 6299.023438 C 8138.164063 6232.148438 8199.375 6227.460938 8275.585938 6254.453125 C 8248.085938 6278.828125 8249.140625 6335.3125 8274.023438 6420.898438 C 8229.960938 6429.179688 8181.71875 6422.421875 8130.898438 6408.945313 C 8115.351563 6372.65625 8107.578125 6334.804688 8107.578125 6299.023438 Z M 8107.578125 6299.023438 " transform="matrix(0.1,0,0,-0.1,0,1193.75)"/>
<path style=" stroke:none;fill-rule:nonzero;fill:rgb(25.488281%,27.43988%,50.584412%);fill-opacity:1;" d="M 810.757813 563.847656 C 813.816406 570.535156 819.9375 571.003906 827.558594 568.304688 C 824.808594 565.867188 824.914063 560.21875 827.402344 551.660156 C 822.996094 550.832031 818.171875 551.507813 813.089844 552.855469 C 811.535156 556.484375 810.757813 560.269531 810.757813 563.847656 "/>
<path style="fill:none;stroke-width:7.99;stroke-linecap:butt;stroke-linejoin:miter;stroke:rgb(100%,100%,100%);stroke-opacity:1;stroke-miterlimit:4;" d="M 8107.578125 6299.023438 C 8138.164063 6232.148438 8199.375 6227.460938 8275.585938 6254.453125 C 8248.085938 6278.828125 8249.140625 6335.3125 8274.023438 6420.898438 C 8229.960938 6429.179688 8181.71875 6422.421875 8130.898438 6408.945313 C 8115.351563 6372.65625 8107.578125 6334.804688 8107.578125 6299.023438 Z M 8107.578125 6299.023438 " transform="matrix(0.1,0,0,-0.1,0,1193.75)"/>
<path style=" stroke:none;fill-rule:nonzero;fill:rgb(25.488281%,27.43988%,50.584412%);fill-opacity:1;" d="M 827.402344 551.660156 C 824.914063 560.21875 824.808594 565.871094 827.558594 568.308594 C 828.960938 564.003906 831.757813 559.90625 836.011719 556.121094 C 833.417969 553.683594 830.515625 552.285156 827.402344 551.660156 "/>
<path style="fill:none;stroke-width:7.99;stroke-linecap:butt;stroke-linejoin:miter;stroke:rgb(100%,100%,100%);stroke-opacity:1;stroke-miterlimit:4;" d="M 8274.023438 6420.898438 C 8249.140625 6335.3125 8248.085938 6278.789063 8275.585938 6254.414063 C 8289.609375 6297.460938 8317.578125 6338.4375 8360.117188 6376.289063 C 8334.179688 6400.664063 8305.15625 6414.648438 8274.023438 6420.898438 Z M 8274.023438 6420.898438 " transform="matrix(0.1,0,0,-0.1,0,1193.75)"/>
<path style=" stroke:none;fill-rule:nonzero;fill:rgb(25.488281%,27.43988%,50.584412%);fill-opacity:1;" d="M 827.402344 551.660156 C 824.914063 560.21875 824.808594 565.871094 827.558594 568.308594 C 828.960938 564.003906 831.757813 559.90625 836.011719 556.121094 C 833.417969 553.683594 830.515625 552.285156 827.402344 551.660156 "/>
<path style="fill:none;stroke-width:7.99;stroke-linecap:butt;stroke-linejoin:miter;stroke:rgb(100%,100%,100%);stroke-opacity:1;stroke-miterlimit:4;" d="M 8274.023438 6420.898438 C 8249.140625 6335.3125 8248.085938 6278.789063 8275.585938 6254.414063 C 8289.609375 6297.460938 8317.578125 6338.4375 8360.117188 6376.289063 C 8334.179688 6400.664063 8305.15625 6414.648438 8274.023438 6420.898438 Z M 8274.023438 6420.898438 " transform="matrix(0.1,0,0,-0.1,0,1193.75)"/>
<path style=" stroke:none;fill-rule:nonzero;fill:rgb(25.488281%,27.43988%,50.584412%);fill-opacity:1;" d="M 810.757813 563.847656 C 810.757813 560.269531 811.535156 556.484375 813.089844 552.855469 C 808.007813 554.203125 802.667969 556.277344 797.328125 558.144531 L 797.328125 558.195313 C 796.34375 568.515625 800.957031 572.402344 813.246094 567.425781 C 812.261719 566.492188 811.433594 565.300781 810.757813 563.847656 "/>
<path style="fill:none;stroke-width:7.99;stroke-linecap:butt;stroke-linejoin:miter;stroke:rgb(100%,100%,100%);stroke-opacity:1;stroke-miterlimit:4;" d="M 8107.578125 6299.023438 C 8107.578125 6334.804688 8115.351563 6372.65625 8130.898438 6408.945313 C 8080.078125 6395.46875 8026.679688 6374.726563 7973.28125 6356.054688 L 7973.28125 6355.546875 C 7963.4375 6252.34375 8009.570313 6213.476563 8132.460938 6263.242188 C 8122.617188 6272.578125 8114.335938 6284.492188 8107.578125 6299.023438 Z M 8107.578125 6299.023438 " transform="matrix(0.1,0,0,-0.1,0,1193.75)"/>
<path style=" stroke:none;fill-rule:nonzero;fill:rgb(25.488281%,27.43988%,50.584412%);fill-opacity:1;" d="M 810.757813 563.847656 C 810.757813 560.269531 811.535156 556.484375 813.089844 552.855469 C 808.007813 554.203125 802.667969 556.277344 797.328125 558.144531 L 797.328125 558.195313 C 796.34375 568.515625 800.957031 572.402344 813.246094 567.425781 C 812.261719 566.492188 811.433594 565.300781 810.757813 563.847656 "/>
<path style="fill:none;stroke-width:7.99;stroke-linecap:butt;stroke-linejoin:miter;stroke:rgb(100%,100%,100%);stroke-opacity:1;stroke-miterlimit:4;" d="M 8107.578125 6299.023438 C 8107.578125 6334.804688 8115.351563 6372.65625 8130.898438 6408.945313 C 8080.078125 6395.46875 8026.679688 6374.726563 7973.28125 6356.054688 L 7973.28125 6355.546875 C 7963.4375 6252.34375 8009.570313 6213.476563 8132.460938 6263.242188 C 8122.617188 6272.578125 8114.335938 6284.492188 8107.578125 6299.023438 Z M 8107.578125 6299.023438 " transform="matrix(0.1,0,0,-0.1,0,1193.75)"/>
<path style=" stroke:none;fill-rule:nonzero;fill:rgb(25.488281%,27.43988%,50.584412%);fill-opacity:1;" d="M 813.246094 567.425781 C 800.957031 572.402344 796.34375 568.515625 797.328125 558.195313 L 797.328125 558.144531 C 792.351563 559.90625 787.320313 561.511719 782.445313 562.34375 C 783.015625 565.816406 784.570313 567.996094 787.0625 568.878906 C 789.808594 569.808594 793.699219 569.238281 798.78125 567.164063 C 799.351563 567.996094 800.179688 568.617188 801.164063 569.085938 C 797.898438 578.105469 805.625 584.589844 813.765625 581.375 C 814.804688 580.90625 816.097656 580.234375 817.136719 579.507813 C 815.011719 577.226563 814.59375 573.699219 815.789063 569.085938 C 814.855469 568.667969 814.023438 568.097656 813.246094 567.425781 "/>
<path style="fill:none;stroke-width:7.99;stroke-linecap:butt;stroke-linejoin:miter;stroke:rgb(100%,100%,100%);stroke-opacity:1;stroke-miterlimit:4;" d="M 8132.460938 6263.242188 C 8009.570313 6213.476563 7963.4375 6252.34375 7973.28125 6355.546875 L 7973.28125 6356.054688 C 7923.515625 6338.4375 7873.203125 6322.382813 7824.453125 6314.0625 C 7830.15625 6279.335938 7845.703125 6257.539063 7870.625 6248.710938 C 7898.085938 6239.414063 7936.992188 6245.117188 7987.8125 6265.859375 C 7993.515625 6257.539063 8001.796875 6251.328125 8011.640625 6246.640625 C 7978.984375 6156.445313 8056.25 6091.601563 8137.65625 6123.75 C 8148.046875 6128.4375 8160.976563 6135.15625 8171.367188 6142.421875 C 8150.117188 6165.234375 8145.9375 6200.507813 8157.890625 6246.640625 C 8148.554688 6250.820313 8140.234375 6256.523438 8132.460938 6263.242188 Z M 8132.460938 6263.242188 " transform="matrix(0.1,0,0,-0.1,0,1193.75)"/>
<path style=" stroke:none;fill-rule:nonzero;fill:rgb(25.488281%,27.43988%,50.584412%);fill-opacity:1;" d="M 813.246094 567.425781 C 800.957031 572.402344 796.34375 568.515625 797.328125 558.195313 L 797.328125 558.144531 C 792.351563 559.90625 787.320313 561.511719 782.445313 562.34375 C 783.015625 565.816406 784.570313 567.996094 787.0625 568.878906 C 789.808594 569.808594 793.699219 569.238281 798.78125 567.164063 C 799.351563 567.996094 800.179688 568.617188 801.164063 569.085938 C 797.898438 578.105469 805.625 584.589844 813.765625 581.375 C 814.804688 580.90625 816.097656 580.234375 817.136719 579.507813 C 815.011719 577.226563 814.59375 573.699219 815.789063 569.085938 C 814.855469 568.667969 814.023438 568.097656 813.246094 567.425781 "/>
<path style="fill:none;stroke-width:7.99;stroke-linecap:butt;stroke-linejoin:miter;stroke:rgb(100%,100%,100%);stroke-opacity:1;stroke-miterlimit:4;" d="M 8132.460938 6263.242188 C 8009.570313 6213.476563 7963.4375 6252.34375 7973.28125 6355.546875 L 7973.28125 6356.054688 C 7923.515625 6338.4375 7873.203125 6322.382813 7824.453125 6314.0625 C 7830.15625 6279.335938 7845.703125 6257.539063 7870.625 6248.710938 C 7898.085938 6239.414063 7936.992188 6245.117188 7987.8125 6265.859375 C 7993.515625 6257.539063 8001.796875 6251.328125 8011.640625 6246.640625 C 7978.984375 6156.445313 8056.25 6091.601563 8137.65625 6123.75 C 8148.046875 6128.4375 8160.976563 6135.15625 8171.367188 6142.421875 C 8150.117188 6165.234375 8145.9375 6200.507813 8157.890625 6246.640625 C 8148.554688 6250.820313 8140.234375 6256.523438 8132.460938 6263.242188 Z M 8132.460938 6263.242188 " transform="matrix(0.1,0,0,-0.1,0,1193.75)"/>
<path style=" stroke:none;fill-rule:nonzero;fill:rgb(25.488281%,27.43988%,50.584412%);fill-opacity:1;" d="M 815.789063 569.085938 C 814.59375 573.699219 815.011719 577.226563 817.136719 579.507813 C 817.707031 580.128906 818.484375 580.699219 819.417969 581.164063 C 821.335938 582.101563 823.980469 582.515625 827.351563 582.359375 C 826.105469 577.433594 826.105469 572.714844 827.558594 568.304688 C 822.996094 569.914063 818.949219 570.378906 815.789063 569.085938 M 817.136719 579.507813 L 817.136719 579.453125 "/>
<path style="fill:none;stroke-width:7.99;stroke-linecap:butt;stroke-linejoin:miter;stroke:rgb(100%,100%,100%);stroke-opacity:1;stroke-miterlimit:4;" d="M 8157.890625 6246.640625 C 8145.9375 6200.507813 8150.117188 6165.234375 8171.367188 6142.421875 C 8177.070313 6136.210938 8184.84375 6130.507813 8194.179688 6125.859375 C 8213.359375 6116.484375 8239.804688 6112.34375 8273.515625 6113.90625 C 8261.054688 6163.164063 8261.054688 6210.351563 8275.585938 6254.453125 C 8229.960938 6238.359375 8189.492188 6233.710938 8157.890625 6246.640625 Z M 8171.367188 6142.421875 L 8171.367188 6142.96875 Z M 8171.367188 6142.421875 " transform="matrix(0.1,0,0,-0.1,0,1193.75)"/>
<path style=" stroke:none;fill-rule:nonzero;fill:rgb(25.488281%,27.43988%,50.584412%);fill-opacity:1;" d="M 815.789063 569.085938 C 814.59375 573.699219 815.011719 577.226563 817.136719 579.507813 C 817.707031 580.128906 818.484375 580.699219 819.417969 581.164063 C 821.335938 582.101563 823.980469 582.515625 827.351563 582.359375 C 826.105469 577.433594 826.105469 572.714844 827.558594 568.304688 C 822.996094 569.914063 818.949219 570.378906 815.789063 569.085938 M 817.136719 579.507813 L 817.136719 579.453125 "/>
<path style="fill:none;stroke-width:7.99;stroke-linecap:butt;stroke-linejoin:miter;stroke:rgb(100%,100%,100%);stroke-opacity:1;stroke-miterlimit:4;" d="M 8157.890625 6246.640625 C 8145.9375 6200.507813 8150.117188 6165.234375 8171.367188 6142.421875 C 8177.070313 6136.210938 8184.84375 6130.507813 8194.179688 6125.859375 C 8213.359375 6116.484375 8239.804688 6112.34375 8273.515625 6113.90625 C 8261.054688 6163.164063 8261.054688 6210.351563 8275.585938 6254.453125 C 8229.960938 6238.359375 8189.492188 6233.710938 8157.890625 6246.640625 Z M 8171.367188 6142.421875 L 8171.367188 6142.96875 Z M 8171.367188 6142.421875 " transform="matrix(0.1,0,0,-0.1,0,1193.75)"/>
<path style=" stroke:none;fill-rule:nonzero;fill:rgb(25.488281%,27.43988%,50.584412%);fill-opacity:1;" d="M 952.476563 562.914063 C 952.269531 569.914063 945.164063 569.445313 940.808594 572.246094 L 940.496094 568.878906 C 942.984375 567.996094 944.539063 565.816406 945.113281 562.34375 C 947.601563 562.757813 950.089844 562.964844 952.476563 562.914063 "/>
<path style=" stroke:none;fill-rule:nonzero;fill:rgb(25.488281%,27.43988%,50.584412%);fill-opacity:1;" d="M 952.476563 562.914063 C 952.269531 569.914063 945.164063 569.445313 940.808594 572.246094 L 940.496094 568.878906 C 942.984375 567.996094 944.539063 565.816406 945.113281 562.34375 C 947.601563 562.757813 950.089844 562.964844 952.476563 562.914063 "/>
<path style="fill:none;stroke-width:7.99;stroke-linecap:butt;stroke-linejoin:miter;stroke:rgb(100%,100%,100%);stroke-opacity:1;stroke-miterlimit:4;" d="M 9524.765625 6308.359375 C 9522.695313 6238.359375 9451.640625 6243.046875 9408.085938 6215.039063 L 9404.960938 6248.710938 C 9429.84375 6257.539063 9445.390625 6279.335938 9451.132813 6314.0625 C 9476.015625 6309.921875 9500.898438 6307.851563 9524.765625 6308.359375 Z M 9524.765625 6308.359375 " transform="matrix(0.1,0,0,-0.1,0,1193.75)"/>
<path style=" stroke:none;fill-rule:nonzero;fill:rgb(25.488281%,27.43988%,50.584412%);fill-opacity:1;" d="M 945.113281 562.34375 C 944.542969 565.816406 942.984375 567.996094 940.496094 568.878906 C 937.75 569.808594 933.859375 569.238281 928.828125 567.164063 C 930.230469 565.195313 930.644531 562.136719 930.28125 558.144531 C 935.207031 559.90625 940.238281 561.511719 945.113281 562.34375 "/>
<path style=" stroke:none;fill-rule:nonzero;fill:rgb(25.488281%,27.43988%,50.584412%);fill-opacity:1;" d="M 945.113281 562.34375 C 944.542969 565.816406 942.984375 567.996094 940.496094 568.878906 C 937.75 569.808594 933.859375 569.238281 928.828125 567.164063 C 930.230469 565.195313 930.644531 562.136719 930.28125 558.144531 C 935.207031 559.90625 940.238281 561.511719 945.113281 562.34375 "/>
<path style=" stroke:none;fill-rule:nonzero;fill:rgb(25.488281%,27.43988%,50.584412%);fill-opacity:1;" d="M 928.828125 567.164063 C 933.859375 569.238281 937.75 569.8125 940.496094 568.878906 L 940.808594 572.246094 C 941.847656 580.390625 935.933594 582.046875 926.550781 580.542969 C 926.03125 586.871094 922.503906 590.5 914.933594 590.757813 C 916.023438 588.320313 915.503906 584.535156 913.53125 581.269531 C 921.777344 584.691406 929.710938 578.210938 926.445313 569.085938 C 927.429688 568.617188 928.207031 567.996094 928.828125 567.164063 "/>
<path style=" stroke:none;fill-rule:nonzero;fill:rgb(25.488281%,27.43988%,50.584412%);fill-opacity:1;" d="M 928.828125 567.164063 C 933.859375 569.238281 937.75 569.8125 940.496094 568.878906 L 940.808594 572.246094 C 941.847656 580.390625 935.933594 582.046875 926.550781 580.542969 C 926.03125 586.871094 922.503906 590.5 914.933594 590.757813 C 916.023438 588.320313 915.503906 584.535156 913.53125 581.269531 C 921.777344 584.691406 929.710938 578.210938 926.445313 569.085938 C 927.429688 568.617188 928.207031 567.996094 928.828125 567.164063 "/>
<path style="fill:none;stroke-width:7.99;stroke-linecap:butt;stroke-linejoin:miter;stroke:rgb(100%,100%,100%);stroke-opacity:1;stroke-miterlimit:4;" d="M 9288.28125 6265.859375 C 9338.59375 6245.117188 9377.5 6239.375 9404.960938 6248.710938 L 9408.085938 6215.039063 C 9418.476563 6133.59375 9359.335938 6117.03125 9265.507813 6132.070313 C 9260.3125 6068.789063 9225.039063 6032.5 9149.335938 6029.921875 C 9160.234375 6054.296875 9155.039063 6092.148438 9135.3125 6124.804688 C 9217.773438 6090.585938 9297.109375 6155.390625 9264.453125 6246.640625 C 9274.296875 6251.328125 9282.070313 6257.539063 9288.28125 6265.859375 Z M 9288.28125 6265.859375 " transform="matrix(0.1,0,0,-0.1,0,1193.75)"/>
<path style=" stroke:none;fill-rule:nonzero;fill:rgb(25.488281%,27.43988%,50.584412%);fill-opacity:1;" d="M 913.792969 581.375 C 915.761719 584.640625 916.019531 588.320313 914.933594 590.757813 C 913.015625 590.8125 910.886719 590.65625 908.449219 590.242188 C 906.167969 593.351563 903.886719 595.269531 901.554688 596.050781 C 901.917969 592.679688 901.917969 587.855469 900.207031 582.359375 C 905.183594 582.566406 908.554688 581.582031 910.421875 579.453125 C 911.460938 580.234375 912.753906 580.90625 913.792969 581.375 "/>
<path style=" stroke:none;fill-rule:nonzero;fill:rgb(25.488281%,27.43988%,50.584412%);fill-opacity:1;" d="M 913.792969 581.375 C 915.761719 584.640625 916.019531 588.320313 914.933594 590.757813 C 913.015625 590.8125 910.886719 590.65625 908.449219 590.242188 C 906.167969 593.351563 903.886719 595.269531 901.554688 596.050781 C 901.917969 592.679688 901.917969 587.855469 900.207031 582.359375 C 905.183594 582.566406 908.554688 581.582031 910.421875 579.453125 C 911.460938 580.234375 912.753906 580.90625 913.792969 581.375 "/>
<path style="fill:none;stroke-width:7.99;stroke-linecap:butt;stroke-linejoin:miter;stroke:rgb(100%,100%,100%);stroke-opacity:1;stroke-miterlimit:4;" d="M 9137.929688 6123.75 C 9157.617188 6091.09375 9160.195313 6054.296875 9149.335938 6029.921875 C 9130.15625 6029.375 9108.867188 6030.9375 9084.492188 6035.078125 C 9061.679688 6003.984375 9038.867188 5984.804688 9015.546875 5976.992188 C 9019.179688 6010.703125 9019.179688 6058.945313 9002.070313 6113.90625 C 9051.835938 6111.835938 9085.546875 6121.679688 9104.21875 6142.96875 C 9114.609375 6135.15625 9127.539063 6128.4375 9137.929688 6123.75 Z M 9137.929688 6123.75 " transform="matrix(0.1,0,0,-0.1,0,1193.75)"/>
<path style=" stroke:none;fill-rule:nonzero;fill:rgb(25.488281%,27.43988%,50.584412%);fill-opacity:1;" d="M 900.207031 582.359375 C 901.917969 587.855469 901.917969 592.679688 901.554688 596.046875 C 899.273438 596.824219 896.886719 596.464844 894.503906 595.0625 C 897.25 590.65625 899.171875 586.453125 900.207031 582.359375 "/>
<path style=" stroke:none;fill-rule:nonzero;fill:rgb(25.488281%,27.43988%,50.584412%);fill-opacity:1;" d="M 900.207031 582.359375 C 901.917969 587.855469 901.917969 592.679688 901.554688 596.046875 C 899.273438 596.824219 896.886719 596.464844 894.503906 595.0625 C 897.25 590.65625 899.171875 586.453125 900.207031 582.359375 "/>
<path style="fill:none;stroke-width:7.99;stroke-linecap:butt;stroke-linejoin:miter;stroke:rgb(100%,100%,100%);stroke-opacity:1;stroke-miterlimit:4;" d="M 9002.070313 6113.90625 C 9019.179688 6058.945313 9019.179688 6010.703125 9015.546875 5977.03125 C 8992.734375 5969.257813 8968.867188 5972.851563 8945.039063 5986.875 C 8972.5 6030.9375 8991.71875 6072.96875 9002.070313 6113.90625 Z M 9002.070313 6113.90625 " transform="matrix(0.1,0,0,-0.1,0,1193.75)"/>
<path style=" stroke:none;fill-rule:nonzero;fill:rgb(25.488281%,27.43988%,50.584412%);fill-opacity:1;" d="M 916.800781 563.847656 C 913.742188 570.535156 907.671875 571.003906 899.996094 568.304688 C 902.746094 565.867188 902.695313 560.21875 900.207031 551.660156 C 904.5625 550.832031 909.386719 551.507813 914.46875 552.855469 C 916.019531 556.484375 916.800781 560.269531 916.800781 563.847656 "/>
<path style=" stroke:none;fill-rule:nonzero;fill:rgb(25.488281%,27.43988%,50.584412%);fill-opacity:1;" d="M 916.800781 563.847656 C 913.742188 570.535156 907.671875 571.003906 899.996094 568.304688 C 902.746094 565.867188 902.695313 560.21875 900.207031 551.660156 C 904.5625 550.832031 909.386719 551.507813 914.46875 552.855469 C 916.019531 556.484375 916.800781 560.269531 916.800781 563.847656 "/>
<path style="fill:none;stroke-width:7.99;stroke-linecap:butt;stroke-linejoin:miter;stroke:rgb(100%,100%,100%);stroke-opacity:1;stroke-miterlimit:4;" d="M 9168.007813 6299.023438 C 9137.421875 6232.148438 9076.71875 6227.460938 8999.960938 6254.453125 C 9027.460938 6278.828125 9026.953125 6335.3125 9002.070313 6420.898438 C 9045.625 6429.179688 9093.867188 6422.421875 9144.6875 6408.945313 C 9160.195313 6372.65625 9168.007813 6334.804688 9168.007813 6299.023438 Z M 9168.007813 6299.023438 " transform="matrix(0.1,0,0,-0.1,0,1193.75)"/>
<path style=" stroke:none;fill-rule:nonzero;fill:rgb(25.488281%,27.43988%,50.584412%);fill-opacity:1;" d="M 900.207031 551.660156 C 902.695313 560.21875 902.746094 565.871094 899.996094 568.308594 C 898.597656 564.003906 895.800781 559.90625 891.546875 556.121094 C 894.140625 553.683594 897.042969 552.285156 900.207031 551.660156 "/>
<path style=" stroke:none;fill-rule:nonzero;fill:rgb(25.488281%,27.43988%,50.584412%);fill-opacity:1;" d="M 900.207031 551.660156 C 902.695313 560.21875 902.746094 565.871094 899.996094 568.308594 C 898.597656 564.003906 895.800781 559.90625 891.546875 556.121094 C 894.140625 553.683594 897.042969 552.285156 900.207031 551.660156 "/>
<path style="fill:none;stroke-width:7.99;stroke-linecap:butt;stroke-linejoin:miter;stroke:rgb(100%,100%,100%);stroke-opacity:1;stroke-miterlimit:4;" d="M 9002.070313 6420.898438 C 9026.953125 6335.3125 9027.460938 6278.789063 8999.960938 6254.414063 C 8985.976563 6297.460938 8958.007813 6338.4375 8915.46875 6376.289063 C 8941.40625 6400.664063 8970.429688 6414.648438 9002.070313 6420.898438 Z M 9002.070313 6420.898438 " transform="matrix(0.1,0,0,-0.1,0,1193.75)"/>
<path style=" stroke:none;fill-rule:nonzero;fill:rgb(25.488281%,27.43988%,50.584412%);fill-opacity:1;" d="M 916.800781 563.847656 C 916.800781 560.269531 916.019531 556.484375 914.46875 552.855469 C 919.546875 554.203125 924.890625 556.277344 930.28125 558.144531 L 930.28125 558.195313 C 931.214844 568.515625 926.601563 572.402344 914.3125 567.425781 C 915.296875 566.492188 916.125 565.300781 916.800781 563.847656 "/>
<path style=" stroke:none;fill-rule:nonzero;fill:rgb(25.488281%,27.43988%,50.584412%);fill-opacity:1;" d="M 916.800781 563.847656 C 916.800781 560.269531 916.019531 556.484375 914.46875 552.855469 C 919.546875 554.203125 924.890625 556.277344 930.28125 558.144531 L 930.28125 558.195313 C 931.214844 568.515625 926.601563 572.402344 914.3125 567.425781 C 915.296875 566.492188 916.125 565.300781 916.800781 563.847656 "/>
<path style="fill:none;stroke-width:7.99;stroke-linecap:butt;stroke-linejoin:miter;stroke:rgb(100%,100%,100%);stroke-opacity:1;stroke-miterlimit:4;" d="M 9168.007813 6299.023438 C 9168.007813 6334.804688 9160.195313 6372.65625 9144.6875 6408.945313 C 9195.46875 6395.46875 9248.90625 6374.726563 9302.8125 6356.054688 L 9302.8125 6355.546875 C 9312.148438 6252.34375 9266.015625 6213.476563 9143.125 6263.242188 C 9152.96875 6272.578125 9161.25 6284.492188 9168.007813 6299.023438 Z M 9168.007813 6299.023438 " transform="matrix(0.1,0,0,-0.1,0,1193.75)"/>
<path style=" stroke:none;fill-rule:nonzero;fill:rgb(25.488281%,27.43988%,50.584412%);fill-opacity:1;" d="M 914.3125 567.425781 C 926.601563 572.402344 931.214844 568.515625 930.28125 558.195313 L 930.28125 558.144531 C 935.207031 559.90625 940.238281 561.511719 945.113281 562.34375 C 944.542969 565.816406 942.984375 567.996094 940.496094 568.878906 C 937.75 569.808594 933.859375 569.238281 928.828125 567.164063 C 928.207031 567.996094 927.429688 568.617188 926.445313 569.085938 C 929.710938 578.105469 921.933594 584.589844 913.792969 581.375 C 912.753906 580.90625 911.460938 580.234375 910.472656 579.507813 C 912.546875 577.226563 912.964844 573.699219 911.769531 569.085938 C 912.703125 568.667969 913.585938 568.097656 914.3125 567.425781 "/>
<path style=" stroke:none;fill-rule:nonzero;fill:rgb(25.488281%,27.43988%,50.584412%);fill-opacity:1;" d="M 914.3125 567.425781 C 926.601563 572.402344 931.214844 568.515625 930.28125 558.195313 L 930.28125 558.144531 C 935.207031 559.90625 940.238281 561.511719 945.113281 562.34375 C 944.542969 565.816406 942.984375 567.996094 940.496094 568.878906 C 937.75 569.808594 933.859375 569.238281 928.828125 567.164063 C 928.207031 567.996094 927.429688 568.617188 926.445313 569.085938 C 929.710938 578.105469 921.933594 584.589844 913.792969 581.375 C 912.753906 580.90625 911.460938 580.234375 910.472656 579.507813 C 912.546875 577.226563 912.964844 573.699219 911.769531 569.085938 C 912.703125 568.667969 913.585938 568.097656 914.3125 567.425781 "/>
<path style="fill:none;stroke-width:7.99;stroke-linecap:butt;stroke-linejoin:miter;stroke:rgb(100%,100%,100%);stroke-opacity:1;stroke-miterlimit:4;" d="M 9143.125 6263.242188 C 9266.015625 6213.476563 9312.148438 6252.34375 9302.8125 6355.546875 L 9302.8125 6356.054688 C 9352.070313 6338.4375 9402.382813 6322.382813 9451.132813 6314.0625 C 9445.429688 6279.335938 9429.84375 6257.539063 9404.960938 6248.710938 C 9377.5 6239.414063 9338.59375 6245.117188 9288.28125 6265.859375 C 9282.070313 6257.539063 9274.296875 6251.328125 9264.453125 6246.640625 C 9297.109375 6156.445313 9219.335938 6091.601563 9137.929688 6123.75 C 9127.539063 6128.4375 9114.609375 6135.15625 9104.726563 6142.421875 C 9125.46875 6165.234375 9129.648438 6200.507813 9117.695313 6246.640625 C 9127.03125 6250.820313 9135.859375 6256.523438 9143.125 6263.242188 Z M 9143.125 6263.242188 " transform="matrix(0.1,0,0,-0.1,0,1193.75)"/>
<path style=" stroke:none;fill-rule:nonzero;fill:rgb(25.488281%,27.43988%,50.584412%);fill-opacity:1;" d="M 911.769531 569.085938 C 912.964844 573.699219 912.546875 577.226563 910.472656 579.507813 C 909.851563 580.128906 909.074219 580.699219 908.191406 581.164063 C 906.222656 582.101563 903.578125 582.515625 900.257813 582.359375 L 900.207031 582.359375 C 901.503906 577.433594 901.449219 572.714844 900 568.304688 C 904.613281 569.914063 908.660156 570.378906 911.769531 569.085938 M 910.472656 579.507813 C 910.472656 579.507813 910.472656 579.453125 910.421875 579.453125 C 910.472656 579.453125 910.472656 579.507813 910.472656 579.507813 "/>
<path style=" stroke:none;fill-rule:nonzero;fill:rgb(25.488281%,27.43988%,50.584412%);fill-opacity:1;" d="M 911.769531 569.085938 C 912.964844 573.699219 912.546875 577.226563 910.472656 579.507813 C 909.851563 580.128906 909.074219 580.699219 908.191406 581.164063 C 906.222656 582.101563 903.578125 582.515625 900.257813 582.359375 L 900.207031 582.359375 C 901.503906 577.433594 901.449219 572.714844 900 568.304688 C 904.613281 569.914063 908.660156 570.378906 911.769531 569.085938 M 910.472656 579.507813 C 910.472656 579.507813 910.472656 579.453125 910.421875 579.453125 C 910.472656 579.453125 910.472656 579.507813 910.472656 579.507813 "/>
<path style="fill:none;stroke-width:7.99;stroke-linecap:butt;stroke-linejoin:miter;stroke:rgb(100%,100%,100%);stroke-opacity:1;stroke-miterlimit:4;" d="M 9117.695313 6246.640625 C 9129.648438 6200.507813 9125.46875 6165.234375 9104.726563 6142.421875 C 9098.515625 6136.210938 9090.742188 6130.507813 9081.914063 6125.859375 C 9062.226563 6116.484375 9035.78125 6112.34375 9002.578125 6113.90625 L 9002.070313 6113.90625 C 9015.039063 6163.164063 9014.492188 6210.351563 9000 6254.453125 C 9046.132813 6238.359375 9086.601563 6233.710938 9117.695313 6246.640625 Z M 9104.726563 6142.421875 C 9104.726563 6142.421875 9104.726563 6142.96875 9104.21875 6142.96875 C 9104.726563 6142.96875 9104.726563 6142.421875 9104.726563 6142.421875 Z M 9104.726563 6142.421875 " transform="matrix(0.1,0,0,-0.1,0,1193.75)"/>
<path style=" stroke:none;fill-rule:nonzero;fill:rgb(25.488281%,27.43988%,50.584412%);fill-opacity:1;" d="M 859.035156 562.550781 L 859.761719 563.484375 "/>
<path style=" stroke:none;fill-rule:nonzero;fill:rgb(25.488281%,27.43988%,50.584412%);fill-opacity:1;" d="M 856.546875 558.609375 C 856.90625 558.609375 857.167969 558.867188 857.167969 559.179688 C 857.167969 559.492188 856.90625 559.75 856.546875 559.75 C 856.234375 559.75 855.976563 559.492188 855.976563 559.179688 C 855.976563 558.867188 856.234375 558.609375 856.546875 558.609375 "/>
<path style=" stroke:none;fill-rule:nonzero;fill:rgb(25.488281%,27.43988%,50.584412%);fill-opacity:1;" d="M 848.871094 562.238281 C 849.339844 566.855469 853.226563 569.5 860.539063 570.226563 L 860.539063 593.09375 C 859.191406 595.425781 857.21875 596.046875 854.886719 595.839844 C 837.773438 579.820313 837.617188 569.238281 848.871094 562.238281 "/>
<path style=" stroke:none;fill-rule:nonzero;fill:rgb(25.488281%,27.43988%,50.584412%);fill-opacity:1;" d="M 868.835938 562.550781 L 868.109375 563.484375 "/>
<path style=" stroke:none;fill-rule:nonzero;fill:rgb(25.488281%,27.43988%,50.584412%);fill-opacity:1;" d="M 871.324219 558.609375 C 871.011719 558.609375 870.753906 558.867188 870.753906 559.179688 C 870.753906 559.492188 871.011719 559.75 871.324219 559.75 C 871.636719 559.75 871.894531 559.492188 871.894531 559.179688 C 871.894531 558.867188 871.636719 558.609375 871.324219 558.609375 "/>
<path style=" stroke:none;fill-rule:nonzero;fill:rgb(25.488281%,27.43988%,50.584412%);fill-opacity:1;" d="M 878.996094 562.238281 C 878.585938 566.855469 874.644531 569.5 867.382813 570.226563 L 867.382813 593.09375 C 868.679688 595.425781 870.703125 596.046875 872.984375 595.839844 C 890.09375 579.820313 890.25 569.238281 878.996094 562.238281 "/>
<path style=" stroke:none;fill-rule:nonzero;fill:rgb(25.488281%,27.43988%,50.584412%);fill-opacity:1;" d="M 872.515625 619.125 C 873.03125 625.332031 869.839844 628.65625 865.207031 630.074219 L 865.285156 610.339844 C 869.285156 611.507813 872.152344 614.304688 872.515625 619.125 M 872.953125 646.785156 C 872.953125 651.8125 869.523438 655.734375 865.101563 656.269531 L 865.179688 637.417969 C 869.5625 637.988281 872.953125 641.882813 872.953125 646.785156 M 865.003906 681.574219 L 865.074219 663.472656 C 875.585938 665.097656 875.042969 677.148438 865.003906 681.574219 M 864.929688 700.101563 L 864.988281 686.234375 C 873.070313 689.3125 873.949219 696.527344 864.929688 700.101563 M 870.078125 711.683594 C 869.253906 714.84375 867.367188 716.976563 864.859375 718.46875 L 864.914063 704.382813 C 868.886719 705.496094 870.507813 708.003906 870.078125 711.683594 M 857.894531 711.683594 C 857.480469 708.140625 858.996094 705.691406 862.652344 704.519531 L 862.703125 718.152344 C 860.433594 716.664063 858.667969 714.652344 857.894531 711.683594 M 862.585938 686.476563 L 862.636719 699.875 C 854.402344 696.316406 855.1875 689.605469 862.585938 686.476563 M 862.503906 663.664063 L 862.566406 681.136719 C 853.570313 676.539063 853.125 665.714844 862.503906 663.664063 M 855.378906 646.785156 C 855.378906 642.167969 858.40625 638.492188 862.410156 637.582031 L 862.476563 656.101563 C 858.4375 655.21875 855.378906 651.515625 855.378906 646.785156 M 855.042969 619.125 C 855.40625 614.289063 858.289063 611.488281 862.308594 610.328125 L 862.382813 630.082031 C 857.730469 628.671875 854.527344 625.347656 855.042969 619.125 M 868.835938 562.550781 C 871.945313 562.445313 871.6875 561.929688 872.722656 561.410156 C 882.160156 556.796875 888.539063 561.359375 891.597656 572.195313 C 895.414063 585.851563 878.933594 600.414063 865.3125 602.746094 L 865.515625 551.375 C 867.65625 550.664063 869.199219 548.730469 869.199219 546.371094 C 869.199219 543.46875 866.8125 541.082031 863.804688 541.082031 C 860.847656 541.082031 858.464844 543.46875 858.464844 546.371094 C 858.464844 548.722656 859.992188 550.652344 862.09375 551.371094 L 862.28125 602.675781 C 848.679688 600.171875 832.484375 585.746094 836.269531 572.195313 C 839.328125 561.359375 845.761719 556.796875 855.144531 561.410156 C 856.234375 561.929688 855.921875 562.445313 859.035156 562.550781 C 851.445313 527.792969 798.355469 590.203125 859.347656 605.6875 C 852.679688 606.4375 848.445313 611.136719 848.402344 618.8125 C 848.402344 625.972656 852.675781 631.316406 860.21875 633.800781 C 854.371094 635.429688 850.085938 640.507813 850.085938 646.585938 C 850.085938 652.695313 854.414063 657.863281 860.3125 659.488281 C 849.910156 662.089844 848.191406 678.84375 862.0625 683.394531 C 851.367188 687.058594 850.621094 697.574219 861.613281 701.960938 C 856.753906 704.058594 854.285156 707.640625 854.109375 711.0625 C 854.265625 715.105469 856.339844 718.21875 860.746094 720.136719 C 862.507813 721.066406 862.457031 722.210938 860.277344 723.507813 C 859.8125 723.816406 859.292969 723.921875 860.019531 724.492188 C 860.640625 724.957031 861.527344 724.199219 862.714844 721.933594 L 862.765625 735.898438 L 864.789063 735.898438 L 864.847656 721.015625 C 866.273438 723.902344 867.304688 725.007813 867.953125 724.492188 C 868.679688 723.921875 868.210938 723.816406 867.746094 723.507813 C 865.566406 722.210938 865.515625 721.066406 867.277344 720.136719 C 871.6875 718.21875 873.761719 715.105469 873.914063 711.0625 C 873.695313 707.648438 871.234375 704.074219 866.429688 701.976563 C 877.449219 697.617188 876.738281 687.15625 866.195313 683.445313 C 880.175781 678.957031 878.5 662.097656 868.03125 659.488281 C 873.953125 657.863281 878.347656 652.695313 878.347656 646.585938 C 878.347656 640.363281 873.800781 635.183594 867.722656 633.683594 C 875.023438 631.140625 879.152344 625.851563 879.152344 618.8125 C 879.113281 611.214844 874.960938 606.53125 868.410156 605.714844 C 929.574219 590.277344 876.476563 527.773438 868.835938 562.550781 "/>
<path style=" stroke:none;fill-rule:nonzero;fill:rgb(100%,100%,100%);fill-opacity:1;" d="M 647.976563 1130.175781 L 662.289063 1134.710938 C 660.097656 1142.691406 656.449219 1148.621094 651.347656 1152.492188 C 646.242188 1156.363281 639.769531 1158.304688 631.925781 1158.304688 C 622.214844 1158.304688 614.234375 1154.988281 607.984375 1148.355469 C 601.738281 1141.722656 598.609375 1132.652344 598.609375 1121.15625 C 598.609375 1108.980469 601.753906 1099.53125 608.039063 1092.800781 C 614.320313 1086.070313 622.578125 1082.707031 632.820313 1082.707031 C 641.765625 1082.707031 649.027344 1085.351563 654.609375 1090.636719 C 657.9375 1093.757813 660.429688 1098.242188 662.089844 1104.09375 L 647.480469 1107.585938 C 646.617188 1103.792969 644.8125 1100.808594 642.070313 1098.613281 C 639.328125 1096.417969 635.996094 1095.320313 632.070313 1095.320313 C 626.652344 1095.320313 622.257813 1097.269531 618.882813 1101.152344 C 615.507813 1105.042969 613.820313 1111.34375 613.820313 1120.050781 C 613.820313 1129.296875 615.484375 1135.882813 618.804688 1139.800781 C 622.132813 1143.722656 626.453125 1145.683594 631.773438 1145.683594 C 635.691406 1145.683594 639.066406 1144.433594 641.894531 1141.949219 C 644.71875 1139.449219 646.75 1135.53125 647.976563 1130.175781 "/>
<path style=" stroke:none;fill-rule:nonzero;fill:rgb(100%,100%,100%);fill-opacity:1;" d="M 674.960938 1157.054688 L 674.960938 1083.945313 L 729.164063 1083.945313 L 729.164063 1096.3125 L 689.71875 1096.3125 L 689.71875 1112.523438 L 726.421875 1112.523438 L 726.421875 1124.839844 L 689.71875 1124.839844 L 689.71875 1144.738281 L 730.558594 1144.738281 L 730.558594 1157.054688 "/>
<path style=" stroke:none;fill-rule:nonzero;fill:rgb(100%,100%,100%);fill-opacity:1;" d="M 757.886719 1114.863281 L 768.808594 1114.863281 C 775.886719 1114.863281 780.3125 1114.570313 782.070313 1113.964844 C 783.832031 1113.371094 785.210938 1112.339844 786.210938 1110.875 C 787.207031 1109.410156 787.710938 1107.589844 787.710938 1105.394531 C 787.710938 1102.933594 787.050781 1100.945313 785.738281 1099.433594 C 784.421875 1097.921875 782.570313 1096.964844 780.179688 1096.566406 C 778.980469 1096.398438 775.390625 1096.3125 769.40625 1096.3125 L 757.886719 1096.3125 Z M 743.128906 1157.054688 L 743.128906 1083.945313 L 774.195313 1083.945313 C 782.003906 1083.945313 787.683594 1084.609375 791.226563 1085.914063 C 794.765625 1087.230469 797.597656 1089.574219 799.726563 1092.929688 C 801.851563 1096.28125 802.917969 1100.125 802.917969 1104.449219 C 802.917969 1109.929688 801.304688 1114.464844 798.082031 1118.03125 C 794.851563 1121.613281 790.035156 1123.867188 783.617188 1124.792969 C 786.8125 1126.65625 789.445313 1128.703125 791.523438 1130.925781 C 793.601563 1133.152344 796.398438 1137.109375 799.925781 1142.796875 L 808.847656 1157.054688 L 791.199219 1157.054688 L 780.527344 1141.148438 C 776.738281 1135.464844 774.140625 1131.882813 772.746094 1130.398438 C 771.351563 1128.925781 769.871094 1127.914063 768.308594 1127.355469 C 766.742188 1126.8125 764.269531 1126.539063 760.878906 1126.539063 L 757.886719 1126.539063 L 757.886719 1157.054688 "/>
<path style=" stroke:none;fill-rule:nonzero;fill:rgb(100%,100%,100%);fill-opacity:1;" d="M 833.285156 1157.054688 L 833.285156 1096.3125 L 811.59375 1096.3125 L 811.59375 1083.945313 L 869.699219 1083.945313 L 869.699219 1096.3125 L 848.046875 1096.3125 L 848.046875 1157.054688 "/>
<path style=" stroke:none;fill-rule:nonzero;fill:rgb(100%,100%,100%);fill-opacity:1;" d="M 878.769531 1157.054688 L 893.527344 1157.054688 L 893.527344 1083.945313 L 878.769531 1083.945313 Z M 878.769531 1157.054688 "/>
<path style=" stroke:none;fill-rule:nonzero;fill:rgb(100%,100%,100%);fill-opacity:1;" d="M 907.6875 1157.054688 L 907.6875 1083.945313 L 957.8125 1083.945313 L 957.8125 1096.3125 L 922.445313 1096.3125 L 922.445313 1113.625 L 952.972656 1113.625 L 952.972656 1125.992188 L 922.445313 1125.992188 L 922.445313 1157.054688 "/>
<path style=" stroke:none;fill-rule:nonzero;fill:rgb(100%,100%,100%);fill-opacity:1;" d="M 969.523438 1157.054688 L 984.28125 1157.054688 L 984.28125 1083.945313 L 969.523438 1083.945313 Z M 969.523438 1157.054688 "/>
<path style=" stroke:none;fill-rule:nonzero;fill:rgb(100%,100%,100%);fill-opacity:1;" d="M 998.355469 1157.054688 L 998.355469 1083.945313 L 1052.558594 1083.945313 L 1052.558594 1096.3125 L 1013.109375 1096.3125 L 1013.109375 1112.523438 L 1049.808594 1112.523438 L 1049.808594 1124.839844 L 1013.109375 1124.839844 L 1013.109375 1144.738281 L 1053.960938 1144.738281 L 1053.960938 1157.054688 "/>
<path style=" stroke:none;fill-rule:nonzero;fill:rgb(100%,100%,100%);fill-opacity:1;" d="M 1081.179688 1096.3125 L 1081.179688 1144.738281 L 1092.199219 1144.738281 C 1096.328125 1144.738281 1099.300781 1144.503906 1101.128906 1144.046875 C 1103.53125 1143.441406 1105.511719 1142.425781 1107.089844 1141 C 1108.671875 1139.570313 1109.949219 1137.21875 1110.960938 1133.941406 C 1111.949219 1130.664063 1112.449219 1126.207031 1112.449219 1120.550781 C 1112.449219 1114.902344 1111.949219 1110.5625 1110.960938 1107.539063 C 1109.949219 1104.515625 1108.558594 1102.15625 1106.761719 1100.457031 C 1104.96875 1098.761719 1102.691406 1097.609375 1099.941406 1097.015625 C 1097.871094 1096.546875 1093.828125 1096.3125 1087.808594 1096.3125 Z M 1066.421875 1083.945313 L 1093.398438 1083.945313 C 1099.488281 1083.945313 1104.121094 1084.414063 1107.308594 1085.347656 C 1111.601563 1086.609375 1115.28125 1088.851563 1118.328125 1092.078125 C 1121.390625 1095.308594 1123.710938 1099.25 1125.308594 1103.917969 C 1126.910156 1108.589844 1127.699219 1114.355469 1127.699219 1121.203125 C 1127.699219 1127.21875 1126.960938 1132.410156 1125.460938 1136.757813 C 1123.640625 1142.074219 1121.019531 1146.386719 1117.640625 1149.671875 C 1115.070313 1152.167969 1111.621094 1154.109375 1107.261719 1155.503906 C 1104 1156.539063 1099.648438 1157.054688 1094.199219 1157.054688 L 1066.421875 1157.054688 "/>
<path style=" stroke:none;fill-rule:nonzero;fill:rgb(100%,100%,100%);fill-opacity:1;" d="M 220.550781 969.402344 L 237.441406 981.457031 L 242.132813 974.882813 C 245.515625 970.144531 247.46875 966.75 247.984375 964.71875 C 248.503906 962.671875 248.425781 960.742188 247.742188 958.878906 C 247.078125 957.035156 245.847656 955.472656 244.09375 954.214844 C 241.929688 952.664063 239.683594 952.023438 237.371094 952.296875 C 235.0625 952.566406 233.03125 953.542969 231.285156 955.242188 C 229.988281 956.488281 227.785156 959.257813 224.703125 963.589844 Z M 261.394531 1016.714844 L 201.921875 974.210938 L 215.683594 954.9375 C 220.898438 947.632813 224.605469 943.089844 226.78125 941.292969 C 230.105469 938.523438 234.085938 937.058594 238.730469 936.894531 C 243.351563 936.730469 248.035156 938.347656 252.765625 941.722656 C 256.421875 944.335938 259.015625 947.183594 260.558594 950.285156 C 262.109375 953.398438 262.859375 956.480469 262.820313 959.53125 C 262.78125 962.59375 262.234375 965.335938 261.179688 967.773438 C 259.699219 971.050781 257.027344 975.410156 253.144531 980.84375 L 247.546875 988.675781 L 269.980469 1004.710938 "/>
<path style=" stroke:none;fill-rule:nonzero;fill:rgb(100%,100%,100%);fill-opacity:1;" d="M 295.589844 919.113281 L 267.65625 911.546875 L 283.984375 935.34375 Z M 334.914063 913.816406 L 325.582031 926.878906 L 308.359375 922.410156 L 291.367188 946.199219 L 301.375 960.761719 L 292.273438 973.5 L 249.339844 907.828125 L 258.410156 895.121094 "/>
<path style=" stroke:none;fill-rule:nonzero;fill:rgb(100%,100%,100%);fill-opacity:1;" d="M 344.628906 900.222656 L 295.199219 864.90625 L 282.597656 882.558594 L 272.535156 875.359375 L 306.300781 828.097656 L 316.363281 835.296875 L 303.78125 852.898438 L 353.214844 888.214844 "/>
<path style=" stroke:none;fill-rule:nonzero;fill:rgb(100%,100%,100%);fill-opacity:1;" d="M 371.0625 863.21875 L 311.585938 820.714844 L 320.160156 808.707031 L 379.644531 851.210938 Z M 371.0625 863.21875 "/>
<path style=" stroke:none;fill-rule:nonzero;fill:rgb(100%,100%,100%);fill-opacity:1;" d="M 387.816406 839.761719 L 328.34375 797.257813 L 359.847656 753.152344 L 369.910156 760.351563 L 346.980469 792.4375 L 360.175781 801.859375 L 381.507813 771.996094 L 391.523438 779.164063 L 370.195313 809.03125 L 386.382813 820.585938 L 410.125 787.367188 L 420.140625 794.527344 "/>
<path style=" stroke:none;fill-rule:nonzero;fill:rgb(100%,100%,100%);fill-opacity:1;" d="M 427.515625 784.226563 L 368.019531 741.722656 L 376.367188 730.027344 L 433.492188 734.074219 L 393.765625 705.683594 L 401.746094 694.523438 L 461.222656 737.03125 L 452.617188 749.074219 L 396.691406 745.351563 L 435.480469 773.066406 "/>
<path style=" stroke:none;fill-rule:nonzero;fill:rgb(100%,100%,100%);fill-opacity:1;" d="M 479.871094 710.941406 L 430.4375 675.632813 L 417.828125 693.277344 L 407.773438 686.089844 L 441.539063 638.8125 L 451.605469 646.003906 L 439.023438 663.617188 L 488.453125 698.921875 "/>
<path style=" stroke:none;fill-rule:nonzero;fill:rgb(100%,100%,100%);fill-opacity:1;" d="M 501.53125 639.691406 L 508.75 627.199219 C 513.167969 629.304688 517.066406 629.929688 520.441406 629.089844 C 523.816406 628.261719 526.824219 626.007813 529.425781 622.359375 C 532.1875 618.496094 533.453125 614.988281 533.21875 611.855469 C 532.988281 608.726563 531.777344 606.382813 529.582031 604.824219 C 528.179688 603.808594 526.6875 603.359375 525.105469 603.488281 C 523.523438 603.613281 521.632813 604.433594 519.449219 605.972656 C 517.945313 607.027344 514.785156 609.613281 509.96875 613.738281 C 503.773438 619.023438 498.585938 622.144531 494.402344 623.082031 C 488.53125 624.386719 483.226563 623.363281 478.523438 620 C 475.492188 617.835938 473.277344 614.957031 471.863281 611.359375 C 470.449219 607.757813 470.203125 603.847656 471.140625 599.613281 C 472.078125 595.410156 474.171875 591.011719 477.441406 586.441406 C 482.777344 578.972656 488.421875 574.519531 494.382813 573.085938 C 500.371094 571.652344 506.144531 572.792969 511.742188 576.511719 L 503.6875 588.898438 C 500.265625 587.222656 497.28125 586.761719 494.734375 587.492188 C 492.1875 588.226563 489.699219 590.28125 487.28125 593.664063 C 484.804688 597.148438 483.558594 600.40625 483.585938 603.398438 C 483.597656 605.332031 484.375 606.84375 485.914063 607.945313 C 487.320313 608.949219 488.949219 609.214844 490.792969 608.746094 C 493.152344 608.128906 497.113281 605.398438 502.671875 600.550781 C 508.214844 595.691406 512.730469 592.378906 516.210938 590.636719 C 519.683594 588.898438 523.261719 588.144531 526.949219 588.378906 C 530.636719 588.628906 534.351563 590.097656 538.117188 592.78125 C 541.53125 595.214844 544.046875 598.441406 545.664063 602.464844 C 547.285156 606.480469 547.585938 610.734375 546.5625 615.230469 C 545.53125 619.734375 543.179688 624.5625 539.480469 629.722656 C 534.117188 637.242188 528.246094 641.789063 521.886719 643.328125 C 515.527344 644.878906 508.757813 643.671875 501.53125 639.691406 "/>
<path style=" stroke:none;fill-rule:nonzero;fill:rgb(100%,100%,100%);fill-opacity:1;" d="M 561.660156 546.71875 L 533.726563 539.140625 L 550.054688 562.953125 Z M 600.984375 541.417969 L 591.652344 554.476563 L 574.417969 550.019531 L 557.4375 573.796875 L 567.433594 588.363281 L 558.34375 601.097656 L 515.410156 535.433594 L 524.480469 522.726563 "/>
<path style=" stroke:none;fill-rule:nonzero;fill:rgb(100%,100%,100%);fill-opacity:1;" d="M 605.589844 534.964844 L 546.113281 492.460938 L 575.246094 451.679688 L 585.304688 458.871094 L 564.742188 487.648438 L 578.835938 497.707031 L 596.578125 472.867188 L 606.644531 480.058594 L 588.890625 504.902344 L 614.171875 522.960938 "/>
<path style=" stroke:none;fill-rule:nonzero;fill:rgb(100%,100%,100%);fill-opacity:1;" d="M 641.804688 484.285156 L 582.316406 441.78125 L 613.832031 397.671875 L 623.886719 404.867188 L 600.957031 436.96875 L 614.152344 446.390625 L 635.484375 416.527344 L 645.5 423.691406 L 624.171875 453.554688 L 640.359375 465.117188 L 664.109375 431.878906 L 674.125 439.039063 "/>
<path style=" stroke:none;fill-rule:nonzero;fill:rgb(100%,100%,100%);fill-opacity:1;" d="M 690.972656 415.46875 L 641.539063 380.15625 L 628.9375 397.804688 L 618.871094 390.613281 L 652.660156 343.339844 L 662.714844 350.53125 L 650.132813 368.140625 L 699.554688 403.453125 "/>
<path style=" stroke:none;fill-rule:nonzero;fill:rgb(100%,100%,100%);fill-opacity:1;" d="M 728.832031 362.480469 L 703.785156 344.589844 L 653.78125 341.757813 L 663.835938 327.679688 L 697.367188 330.496094 L 683.636719 299.964844 L 693.527344 286.132813 L 712.4375 332.671875 L 737.386719 350.503906 "/>
<path style=" stroke:none;fill-rule:nonzero;fill:rgb(100%,100%,100%);fill-opacity:1;" d="M 757.703125 264.515625 C 757.15625 268.082031 757.351563 271.183594 758.289063 273.820313 C 759.222656 276.449219 760.667969 278.453125 762.617188 279.84375 C 765.078125 281.609375 767.660156 282.242188 770.363281 281.746094 C 773.074219 281.242188 775.394531 279.644531 777.328125 276.941406 C 778.59375 275.15625 779.472656 273.175781 779.949219 271.03125 C 780.425781 268.871094 780.546875 266.253906 780.3125 263.136719 Z M 748.515625 251.207031 L 748.359375 246.441406 C 748.230469 242.910156 747.296875 240.527344 745.570313 239.292969 C 744.105469 238.25 742.46875 237.910156 740.652344 238.265625 C 738.851563 238.632813 737.277344 239.742188 735.941406 241.609375 C 734.644531 243.421875 734.078125 245.164063 734.253906 246.839844 C 734.429688 248.515625 735.113281 249.777344 736.304688 250.632813 C 737.710938 251.636719 740.027344 251.992188 743.269531 251.691406 Z M 803.035156 243.273438 L 806.898438 256.453125 C 802.839844 258.660156 798.246094 260.28125 793.128906 261.328125 C 793.574219 265.277344 793.339844 268.984375 792.441406 272.414063 C 791.535156 275.855469 789.753906 279.445313 787.078125 283.167969 C 781.792969 290.582031 775.726563 294.667969 768.898438 295.429688 C 763.59375 296.023438 758.863281 294.820313 754.679688 291.828125 C 750.855469 289.097656 748.242188 285.519531 746.816406 281.066406 C 745.394531 276.621094 745.179688 271.339844 746.164063 265.21875 C 742.3125 265.53125 738.925781 265.417969 736.011719 264.886719 C 733.105469 264.355469 730.664063 263.398438 728.726563 262.011719 C 725.128906 259.433594 723.097656 255.820313 722.660156 251.160156 C 722.210938 246.480469 723.898438 241.484375 727.703125 236.160156 C 731.378906 231.019531 735.5625 227.9375 740.253906 226.910156 C 744.9375 225.898438 749.179688 226.738281 752.964844 229.4375 C 755.382813 231.164063 757.144531 233.519531 758.289063 236.488281 C 759.421875 239.472656 759.808594 244.128906 759.4375 250.421875 L 776.253906 249.941406 C 775.21875 247.742188 773.570313 245.285156 771.277344 242.582031 L 780.992188 233.96875 C 783.921875 237.601563 785.949219 240.40625 787.097656 242.367188 C 788.25 244.34375 789.078125 246.160156 789.59375 247.832031 C 791.691406 247.414063 794.171875 246.703125 797.027344 245.695313 C 799.894531 244.699219 801.894531 243.894531 803.035156 243.273438 "/>
<path style=" stroke:none;fill-rule:nonzero;fill:rgb(100%,100%,100%);fill-opacity:1;" d="M 969.503906 291.875 C 972.421875 292.109375 975.433594 291.6875 978.554688 290.617188 C 981.667969 289.542969 984.894531 287.808594 988.210938 285.417969 C 995.066406 280.480469 999.085938 275.292969 1000.308594 269.832031 C 1001.53125 264.371094 1000.371094 259.199219 996.863281 254.324219 C 993.34375 249.4375 988.785156 246.695313 983.210938 246.109375 C 977.621094 245.519531 971.417969 247.683594 964.597656 252.585938 C 957.65625 257.582031 953.558594 262.828125 952.300781 268.347656 C 951.042969 273.851563 952.09375 278.941406 955.429688 283.585938 C 956.671875 285.300781 958.121094 286.722656 959.800781 287.863281 C 959.644531 284.285156 959.109375 280.929688 958.199219 277.769531 L 967.457031 276.210938 C 968.929688 281.128906 969.632813 286.34375 969.503906 291.875 M 969.679688 306.367188 C 969.691406 310.824219 970.316406 315.222656 971.5625 319.574219 L 959.917969 321.253906 C 959.167969 319.046875 958.628906 316.753906 958.339844 314.347656 C 958.25 313.839844 958.105469 309.910156 957.859375 302.585938 C 953.371094 299.921875 949.421875 296.234375 946.019531 291.503906 C 939.453125 282.394531 936.996094 273.3125 938.65625 264.273438 C 940.3125 255.238281 945.988281 247.234375 955.703125 240.238281 C 965.390625 233.277344 974.792969 230.449219 983.902344 231.753906 C 993.019531 233.0625 1000.761719 238.152344 1007.148438 247.027344 C 1013.480469 255.828125 1015.808594 264.738281 1014.140625 273.773438 C 1012.460938 282.804688 1006.769531 290.800781 997.097656 297.765625 C 991.96875 301.453125 986.945313 303.988281 982.027344 305.355469 C 978.28125 306.40625 974.167969 306.746094 969.679688 306.367188 "/>
<path style=" stroke:none;fill-rule:nonzero;fill:rgb(100%,100%,100%);fill-opacity:1;" d="M 1033.460938 285.730469 L 1042.078125 297.707031 L 1009.941406 320.84375 C 1004.839844 324.507813 1001.640625 327.035156 1000.351563 328.421875 C 998.289063 330.671875 997.214844 333.308594 997.136719 336.289063 C 997.058594 339.273438 998.21875 342.445313 1000.628906 345.789063 C 1003.070313 349.183594 1005.601563 351.253906 1008.238281 351.972656 C 1010.871094 352.707031 1013.328125 352.519531 1015.601563 351.410156 C 1017.871094 350.316406 1021.359375 348.0625 1026.058594 344.6875 L 1058.890625 321.066406 L 1067.519531 333.054688 L 1036.339844 355.464844 C 1029.230469 360.597656 1023.949219 363.894531 1020.539063 365.375 C 1017.128906 366.839844 1013.789063 367.421875 1010.519531 367.140625 C 1007.238281 366.859375 1003.949219 365.6875 1000.660156 363.640625 C 997.359375 361.589844 994.015625 358.214844 990.640625 353.523438 C 986.5625 347.859375 984.125 343.078125 983.324219 339.21875 C 982.527344 335.355469 982.566406 331.8125 983.421875 328.605469 C 984.300781 325.40625 985.6875 322.703125 987.597656 320.511719 C 990.4375 317.28125 995.164063 313.28125 1001.800781 308.515625 "/>
<path style=" stroke:none;fill-rule:nonzero;fill:rgb(100%,100%,100%);fill-opacity:1;" d="M 1063.359375 402.9375 L 1079.488281 378.914063 L 1051.71875 386.746094 Z M 1055.75 441.890625 L 1046.378906 428.851563 L 1056.140625 413.964844 L 1039.078125 390.246094 L 1022.070313 395.054688 L 1012.921875 382.347656 L 1088.898438 362.761719 L 1098.011719 375.429688 "/>
<path style=" stroke:none;fill-rule:nonzero;fill:rgb(100%,100%,100%);fill-opacity:1;" d="M 1060.558594 448.570313 L 1119.421875 406.222656 L 1128.050781 418.199219 L 1079.179688 453.351563 L 1100.621094 483.136719 L 1090.621094 490.335938 "/>
<path style=" stroke:none;fill-rule:nonzero;fill:rgb(100%,100%,100%);fill-opacity:1;" d="M 1096.5 498.519531 L 1155.839844 455.816406 L 1164.460938 467.804688 L 1105.128906 510.503906 Z M 1096.5 498.519531 "/>
<path style=" stroke:none;fill-rule:nonzero;fill:rgb(100%,100%,100%);fill-opacity:1;" d="M 1122.949219 535.277344 L 1172.261719 499.796875 L 1159.589844 482.191406 L 1169.621094 474.964844 L 1203.558594 522.132813 L 1193.519531 529.347656 L 1180.878906 511.773438 L 1131.578125 547.253906 "/>
<path style=" stroke:none;fill-rule:nonzero;fill:rgb(100%,100%,100%);fill-opacity:1;" d="M 1160.988281 588.140625 L 1185.960938 570.164063 L 1204.691406 523.699219 L 1214.789063 537.753906 L 1201.371094 568.605469 L 1234.691406 565.394531 L 1244.621094 579.207031 L 1194.46875 582.171875 L 1169.578125 600.085938 "/>
<path style=" stroke:none;fill-rule:nonzero;fill:rgb(100%,100%,100%);fill-opacity:1;" d="M 1241.898438 637.90625 C 1235.179688 642.746094 1231.199219 647.972656 1229.96875 653.570313 C 1228.738281 659.167969 1229.828125 664.359375 1233.261719 669.136719 C 1236.71875 673.914063 1241.238281 676.589844 1246.898438 677.175781 C 1252.539063 677.777344 1258.800781 675.574219 1265.671875 670.640625 C 1272.46875 665.742188 1276.480469 660.59375 1277.679688 655.210938 C 1278.871094 649.824219 1277.699219 644.65625 1274.148438 639.722656 C 1270.601563 634.785156 1266.039063 632.015625 1260.480469 631.429688 C 1254.921875 630.84375 1248.710938 633.011719 1241.898438 637.90625 M 1232.609375 625.851563 C 1238.648438 621.519531 1244.371094 618.769531 1249.789063 617.621094 C 1253.769531 616.800781 1257.808594 616.703125 1261.898438 617.289063 C 1265.980469 617.894531 1269.578125 619.179688 1272.75 621.113281 C 1276.980469 623.6875 1280.828125 627.394531 1284.308594 632.230469 C 1290.589844 640.96875 1292.921875 649.921875 1291.28125 659.070313 C 1289.628906 668.21875 1283.96875 676.277344 1274.320313 683.21875 C 1264.730469 690.125 1255.359375 692.894531 1246.199219 691.589844 C 1237.050781 690.28125 1229.320313 685.269531 1223.058594 676.550781 C 1216.699219 667.714844 1214.351563 658.761719 1215.980469 649.6875 C 1217.621094 640.597656 1223.160156 632.660156 1232.609375 625.851563 "/>
<path style=" stroke:none;fill-rule:nonzero;fill:rgb(100%,100%,100%);fill-opacity:1;" d="M 1251.5 713.945313 L 1310.851563 671.242188 L 1340.121094 711.933594 L 1330.089844 719.152344 L 1309.441406 690.4375 L 1295.371094 700.5625 L 1313.199219 725.335938 L 1303.179688 732.554688 L 1285.351563 707.78125 L 1260.121094 725.921875 "/>
<path style=" stroke:none;fill-rule:nonzero;fill:rgb(100%,100%,100%);fill-opacity:1;" d="M 1353.601563 809.820313 L 1358.269531 824.078125 C 1350.519531 826.945313 1343.570313 827.453125 1337.449219 825.578125 C 1331.320313 823.707031 1325.96875 819.570313 1321.390625 813.191406 C 1315.71875 805.3125 1313.75 796.90625 1315.480469 787.972656 C 1317.210938 779.019531 1322.761719 771.175781 1332.078125 764.464844 C 1341.96875 757.367188 1351.46875 754.382813 1360.601563 755.550781 C 1369.730469 756.722656 1377.300781 761.460938 1383.269531 769.769531 C 1388.5 777.027344 1390.589844 784.480469 1389.570313 792.105469 C 1388.980469 796.632813 1386.78125 801.257813 1383.019531 806.035156 L 1371.640625 796.222656 C 1374.21875 793.296875 1375.578125 790.078125 1375.769531 786.585938 C 1375.949219 783.074219 1374.890625 779.71875 1372.601563 776.539063 C 1369.441406 772.132813 1365.289063 769.714844 1360.160156 769.226563 C 1355.03125 768.777344 1348.941406 771.078125 1341.859375 776.171875 C 1334.359375 781.574219 1329.988281 786.761719 1328.75 791.757813 C 1327.5 796.730469 1328.441406 801.390625 1331.539063 805.703125 C 1333.839844 808.902344 1336.820313 810.910156 1340.488281 811.75 C 1344.160156 812.589844 1348.53125 811.945313 1353.601563 809.820313 "/>
<path style=" stroke:none;fill-rule:nonzero;fill:rgb(100%,100%,100%);fill-opacity:1;" d="M 1393.648438 861.980469 L 1409.78125 837.945313 L 1381.980469 845.769531 Z M 1386.039063 900.914063 L 1376.660156 887.882813 L 1386.410156 873 L 1369.339844 849.28125 L 1352.328125 854.078125 L 1343.191406 841.378906 L 1419.160156 821.796875 L 1428.289063 834.457031 "/>
<path style=" stroke:none;fill-rule:nonzero;fill:rgb(100%,100%,100%);fill-opacity:1;" d="M 1433.511719 894.652344 L 1439.890625 903.507813 C 1444.019531 909.261719 1446.839844 912.675781 1448.359375 913.769531 C 1449.878906 914.84375 1451.519531 915.367188 1453.289063 915.308594 C 1455.058594 915.269531 1456.828125 914.609375 1458.609375 913.320313 C 1460.609375 911.898438 1461.839844 910.199219 1462.300781 908.25 C 1462.761719 906.300781 1462.449219 904.230469 1461.378906 902.066406 C 1460.808594 900.992188 1458.789063 898.027344 1455.289063 893.171875 L 1448.570313 883.828125 Z M 1390.640625 907.3125 L 1449.980469 864.613281 L 1468.121094 889.835938 C 1472.691406 896.175781 1475.46875 901.167969 1476.46875 904.796875 C 1477.46875 908.445313 1477.230469 912.109375 1475.75 915.800781 C 1474.269531 919.484375 1471.769531 922.585938 1468.261719 925.121094 C 1463.808594 928.320313 1459.191406 929.667969 1454.410156 929.121094 C 1449.628906 928.613281 1444.980469 926 1440.480469 921.339844 C 1440.828125 925.023438 1440.710938 928.359375 1440.109375 931.34375 C 1439.53125 934.328125 1437.949219 938.914063 1435.390625 945.097656 L 1429.03125 960.664063 L 1418.710938 946.34375 L 1425.398438 928.378906 C 1427.800781 921.980469 1429.191406 917.789063 1429.578125 915.800781 C 1429.960938 913.808594 1429.910156 911.996094 1429.449219 910.414063 C 1428.980469 908.835938 1427.761719 906.648438 1425.78125 903.898438 L 1424.039063 901.480469 L 1399.269531 919.289063 "/>
<path style=" stroke:none;fill-rule:nonzero;fill:rgb(100%,100%,100%);fill-opacity:1;" d="M 1433.691406 967.140625 L 1493.03125 924.4375 L 1524.691406 968.449219 L 1514.660156 975.664063 L 1491.609375 943.65625 L 1478.460938 953.113281 L 1499.890625 982.902344 L 1489.890625 990.101563 L 1468.460938 960.3125 L 1452.300781 971.917969 L 1476.160156 1005.078125 L 1466.160156 1012.277344 "/>
<path style="fill:none;stroke-width:99.87;stroke-linecap:butt;stroke-linejoin:miter;stroke:rgb(0%,0%,0%);stroke-opacity:1;stroke-miterlimit:10;" d="M 6797.617188 2212.03125 L 10468.007813 2212.03125 " transform="matrix(0.1,0,0,-0.1,0,1193.75)"/>
<path style=" stroke:none;fill-rule:nonzero;fill:rgb(0%,0%,0%);fill-opacity:1;" d="M 740.585938 1030.800781 L 737.234375 1030.800781 C 735.464844 1027.628906 734.113281 1024.324219 733.191406 1020.902344 C 732.265625 1017.476563 731.804688 1014.171875 731.804688 1010.960938 C 731.804688 1006.992188 732.375 1003.226563 733.519531 999.675781 C 734.515625 996.59375 735.777344 993.757813 737.304688 991.160156 L 740.640625 991.160156 C 739.054688 995.328125 737.960938 998.867188 737.367188 1001.792969 C 736.765625 1004.71875 736.46875 1007.8125 736.46875 1011.089844 C 736.46875 1013.34375 736.648438 1015.652344 737.003906 1018.015625 C 737.351563 1020.382813 737.835938 1022.628906 738.449219 1024.761719 C 738.855469 1026.167969 739.566406 1028.175781 740.585938 1030.800781 "/>
<path style=" stroke:none;fill-rule:nonzero;fill:rgb(0%,0%,0%);fill-opacity:1;" d="M 744.371094 1021.914063 L 744.371094 991.679688 L 763.242188 991.679688 L 763.242188 996.789063 L 749.511719 996.789063 L 749.511719 1003.488281 L 762.285156 1003.488281 L 762.285156 1008.59375 L 749.511719 1008.59375 L 749.511719 1016.824219 L 763.726563 1016.824219 L 763.726563 1021.914063 "/>
<path style=" stroke:none;fill-rule:nonzero;fill:rgb(0%,0%,0%);fill-opacity:1;" d="M 768.132813 1021.914063 L 768.132813 991.679688 L 773.132813 991.679688 L 783.550781 1011.867188 L 783.550781 991.679688 L 788.324219 991.679688 L 788.324219 1021.914063 L 783.167969 1021.914063 L 772.90625 1002.191406 L 772.90625 1021.914063 "/>
<path style=" stroke:none;fill-rule:nonzero;fill:rgb(0%,0%,0%);fill-opacity:1;" d="M 799.484375 1021.914063 L 799.484375 996.789063 L 791.9375 996.789063 L 791.9375 991.679688 L 812.160156 991.679688 L 812.160156 996.789063 L 804.625 996.789063 L 804.625 1021.914063 "/>
<path style=" stroke:none;fill-rule:nonzero;fill:rgb(0%,0%,0%);fill-opacity:1;" d="M 820.632813 1004.464844 L 824.429688 1004.464844 C 826.898438 1004.464844 828.433594 1004.339844 829.046875 1004.097656 C 829.660156 1003.84375 830.140625 1003.421875 830.484375 1002.816406 C 830.839844 1002.214844 831.007813 1001.453125 831.007813 1000.546875 C 831.007813 999.53125 830.777344 998.710938 830.324219 998.078125 C 829.867188 997.453125 829.222656 997.0625 828.390625 996.898438 C 827.96875 996.828125 826.722656 996.789063 824.640625 996.789063 L 820.632813 996.789063 Z M 815.492188 1021.914063 L 815.492188 991.679688 L 826.308594 991.679688 C 829.023438 991.679688 831 991.953125 832.234375 992.488281 C 833.464844 993.035156 834.449219 994 835.191406 995.386719 C 835.933594 996.78125 836.304688 998.371094 836.304688 1000.15625 C 836.304688 1002.429688 835.742188 1004.300781 834.621094 1005.773438 C 833.496094 1007.253906 831.816406 1008.183594 829.585938 1008.570313 C 830.695313 1009.34375 831.613281 1010.183594 832.339844 1011.109375 C 833.0625 1012.023438 834.035156 1013.664063 835.261719 1016.015625 L 838.367188 1021.914063 L 832.222656 1021.914063 L 828.511719 1015.332031 C 827.191406 1012.980469 826.289063 1011.496094 825.800781 1010.894531 C 825.316406 1010.277344 824.800781 1009.859375 824.257813 1009.636719 C 823.714844 1009.402344 822.851563 1009.292969 821.671875 1009.292969 L 820.632813 1009.292969 L 820.632813 1021.914063 "/>
<path style=" stroke:none;fill-rule:nonzero;fill:rgb(0%,0%,0%);fill-opacity:1;" d="M 846.515625 1021.914063 L 846.515625 1009.1875 L 837.1875 991.679688 L 843.214844 991.679688 L 849.199219 1003.636719 L 855.070313 991.679688 L 861 991.679688 L 851.636719 1009.226563 L 851.636719 1021.914063 "/>
<path style=" stroke:none;fill-rule:nonzero;fill:rgb(0%,0%,0%);fill-opacity:1;" d="M 872.910156 1021.914063 L 872.910156 991.921875 L 878.046875 991.921875 L 878.046875 1016.824219 L 890.824219 1016.824219 L 890.824219 1021.914063 "/>
<path style=" stroke:none;fill-rule:nonzero;fill:rgb(0%,0%,0%);fill-opacity:1;" d="M 894.492188 1021.914063 L 894.492188 991.679688 L 913.367188 991.679688 L 913.367188 996.789063 L 899.632813 996.789063 L 899.632813 1003.488281 L 912.410156 1003.488281 L 912.410156 1008.59375 L 899.632813 1008.59375 L 899.632813 1016.824219 L 913.851563 1016.824219 L 913.851563 1021.914063 "/>
<path style=" stroke:none;fill-rule:nonzero;fill:rgb(0%,0%,0%);fill-opacity:1;" d="M 924.699219 1021.914063 L 915.597656 991.679688 L 921.175781 991.679688 L 927.617188 1014.054688 L 933.847656 991.679688 L 939.300781 991.679688 L 930.179688 1021.914063 "/>
<path style=" stroke:none;fill-rule:nonzero;fill:rgb(0%,0%,0%);fill-opacity:1;" d="M 941.914063 1021.914063 L 941.914063 991.679688 L 960.785156 991.679688 L 960.785156 996.789063 L 947.054688 996.789063 L 947.054688 1003.488281 L 959.828125 1003.488281 L 959.828125 1008.59375 L 947.054688 1008.59375 L 947.054688 1016.824219 L 961.273438 1016.824219 L 961.273438 1021.914063 "/>
<path style=" stroke:none;fill-rule:nonzero;fill:rgb(0%,0%,0%);fill-opacity:1;" d="M 965.769531 1021.914063 L 965.769531 991.921875 L 970.910156 991.921875 L 970.910156 1016.824219 L 983.6875 1016.824219 L 983.6875 1021.914063 "/>
<path style=" stroke:none;fill-rule:nonzero;fill:rgb(0%,0%,0%);fill-opacity:1;" d="M 985.960938 1030.800781 C 986.914063 1028.363281 987.597656 1026.480469 987.988281 1025.171875 C 988.378906 1023.863281 988.75 1022.363281 989.078125 1020.65625 C 989.421875 1018.949219 989.664063 1017.328125 989.832031 1015.800781 C 989.988281 1014.269531 990.074219 1012.695313 990.074219 1011.089844 C 990.074219 1007.8125 989.773438 1004.71875 989.1875 1001.792969 C 988.59375 998.867188 987.511719 995.328125 985.921875 991.160156 L 989.234375 991.160156 C 990.980469 994.117188 992.339844 997.246094 993.3125 1000.566406 C 994.277344 1003.882813 994.757813 1007.246094 994.757813 1010.648438 C 994.757813 1013.527344 994.375 1016.609375 993.613281 1019.894531 C 992.746094 1023.582031 991.3125 1027.222656 989.324219 1030.800781 "/>
<path style=" stroke:none;fill-rule:nonzero;fill:rgb(1.567078%,66.601563%,88.28125%);fill-opacity:1;" d="M 681.617188 962.898438 L 681.617188 891.40625 L 695.660156 891.40625 L 724.921875 939.148438 L 724.921875 891.40625 L 738.332031 891.40625 L 738.332031 962.898438 L 723.847656 962.898438 L 695.027344 916.277344 L 695.027344 962.898438 "/>
<path style=" stroke:none;fill-rule:nonzero;fill:rgb(1.567078%,66.601563%,88.28125%);fill-opacity:1;" d="M 821.449219 934.613281 L 811.597656 908.085938 L 801.945313 934.613281 Z M 848.027344 962.898438 L 832.324219 962.898438 L 826.082031 946.65625 L 797.507813 946.65625 L 791.605469 962.898438 L 776.292969 962.898438 L 804.136719 891.40625 L 819.402344 891.40625 "/>
<path style=" stroke:none;fill-rule:nonzero;fill:rgb(1.567078%,66.601563%,88.28125%);fill-opacity:1;" d="M 900.136719 931.734375 L 900.136719 950.851563 L 913.496094 950.851563 C 918.695313 950.851563 922.003906 950.707031 923.398438 950.414063 C 925.542969 950.023438 927.289063 949.066406 928.632813 947.566406 C 929.988281 946.042969 930.664063 944.023438 930.664063 941.488281 C 930.664063 939.34375 930.144531 937.519531 929.101563 936.027344 C 928.058594 934.535156 926.558594 933.441406 924.597656 932.757813 C 922.625 932.078125 918.355469 931.734375 911.789063 931.734375 Z M 900.136719 903.304688 L 900.136719 919.835938 L 909.59375 919.835938 C 915.222656 919.835938 918.714844 919.757813 920.078125 919.59375 C 922.546875 919.300781 924.5 918.441406 925.902344 917.035156 C 927.328125 915.613281 928.03125 913.757813 928.03125 911.449219 C 928.03125 909.234375 927.425781 907.4375 926.195313 906.054688 C 924.988281 904.679688 923.171875 903.839844 920.761719 903.546875 C 919.328125 903.382813 915.222656 903.304688 908.425781 903.304688 Z M 885.699219 891.40625 L 914.277344 891.40625 C 919.933594 891.40625 924.148438 891.640625 926.9375 892.105469 C 929.707031 892.585938 932.203125 893.570313 934.386719 895.0625 C 936.59375 896.554688 938.417969 898.546875 939.878906 901.042969 C 941.34375 903.519531 942.074219 906.308594 942.074219 909.398438 C 942.074219 912.746094 941.175781 915.816406 939.363281 918.617188 C 937.566406 921.414063 935.121094 923.511719 932.027344 924.90625 C 936.386719 926.175781 939.734375 928.339844 942.074219 931.394531 C 944.414063 934.445313 945.585938 938.046875 945.585938 942.171875 C 945.585938 945.417969 944.824219 948.578125 943.324219 951.660156 C 941.800781 954.722656 939.742188 957.179688 937.117188 959.015625 C 934.507813 960.859375 931.277344 961.988281 927.445313 962.410156 C 925.035156 962.671875 919.230469 962.828125 910.035156 962.898438 L 885.699219 962.898438 "/>
<path style=" stroke:none;fill-rule:nonzero;fill:rgb(1.567078%,66.601563%,88.28125%);fill-opacity:1;" d="M 987.789063 962.898438 L 987.789063 891.40625 L 1002.21875 891.40625 L 1002.21875 919.542969 L 1030.511719 919.542969 L 1030.511719 891.40625 L 1044.941406 891.40625 L 1044.941406 962.898438 L 1030.511719 962.898438 L 1030.511719 931.636719 L 1002.21875 931.636719 L 1002.21875 962.898438 "/>
</g>
</svg>
